<ttFont>
<head>
    <!-- Most of this table will be recalculated by the compiler -->
    <tableVersion value="1.0"/>
    <fontRevision value="1.0"/>
    <checkSumAdjustment value="0x9b435aa0"/>
    <magicNumber value="0x5f0f3cf5"/>
    <flags value="00000000 00011011"/>
    <unitsPerEm value="1000"/>
    <created value="Sat Dec  6 13:43:38 2025"/>
    <modified value="Sat Dec  6 13:48:50 2025"/>
    <xMin value="-62"/>
    <yMin value="-251"/>
    <xMax value="978"/>
    <yMax value="758"/>
    <macStyle value="00000000 00000000"/>
    <lowestRecPPEM value="6"/>
    <fontDirectionHint value="2"/>
    <indexToLocFormat value="0"/>
    <glyphDataFormat value="0"/>
  </head>
    <TTGlyph name="A" xMin="27" yMin="0" xMax="619" yMax="694">
      <contour>
        <pt x="619" y="0" on="1"/>
        <pt x="530" y="0" on="1"/>
        <pt x="456" y="203" on="1"/>
        <pt x="174" y="203" on="1"/>
        <pt x="101" y="0" on="1"/>
        <pt x="27" y="0" on="1"/>
        <pt x="279" y="694" on="1"/>
        <pt x="367" y="694" on="1"/>
      </contour>
      <contour>
        <pt x="196" y="259" on="1"/>
        <pt x="435" y="259" on="1"/>
        <pt x="315" y="622" on="1"/>
      </contour>
    </TTGlyph>
    <TTGlyph name="AE" xMin="27" yMin="0" xMax="798" yMax="694">
      <contour>
        <pt x="101" y="0" on="1"/>
        <pt x="27" y="0" on="1"/>
        <pt x="302" y="694" on="1"/>
        <pt x="785" y="694" on="1"/>
        <pt x="785" y="631" on="1"/>
        <pt x="635" y="631" on="1"/>
        <pt x="626" y="631" on="0"/>
        <pt x="608" y="632" on="0"/>
        <pt x="599" y="632" on="1"/>
        <pt x="492" y="632" on="1"/>
        <pt x="492" y="391" on="1"/>
        <pt x="757" y="391" on="1"/>
        <pt x="757" y="331" on="1"/>
        <pt x="492" y="331" on="1"/>
        <pt x="492" y="67" on="1"/>
        <pt x="653" y="67" on="1"/>
        <pt x="662" y="67" on="0"/>
        <pt x="680" y="68" on="0"/>
        <pt x="689" y="68" on="1"/>
        <pt x="798" y="68" on="1"/>
        <pt x="798" y="0" on="1"/>
        <pt x="407" y="0" on="1"/>
        <pt x="407" y="222" on="1"/>
        <pt x="189" y="222" on="1"/>
      </contour>
      <contour>
        <pt x="211" y="278" on="1"/>
        <pt x="407" y="278" on="1"/>
        <pt x="407" y="632" on="1"/>
        <pt x="351" y="632" on="1"/>
      </contour>
    </TTGlyph>
    <TTGlyph name="B" xMin="93" yMin="0" xMax="595" yMax="694">
      <contour>
        <pt x="324" y="694" on="1"/>
        <pt x="377" y="694" on="0"/>
        <pt x="466" y="665" on="0"/>
        <pt x="531" y="617" on="0"/>
        <pt x="567" y="554" on="0"/>
        <pt x="567" y="520" on="1"/>
        <pt x="567" y="498" on="0"/>
        <pt x="549" y="453" on="0"/>
        <pt x="510" y="411" on="0"/>
        <pt x="449" y="375" on="0"/>
        <pt x="405" y="363" on="1"/>
        <pt x="444" y="357" on="0"/>
        <pt x="513" y="326" on="0"/>
        <pt x="565" y="279" on="0"/>
        <pt x="595" y="221" on="0"/>
        <pt x="595" y="188" on="1"/>
        <pt x="595" y="151" on="0"/>
        <pt x="558" y="83" on="0"/>
        <pt x="493" y="31" on="0"/>
        <pt x="404" y="0" on="0"/>
        <pt x="351" y="0" on="1"/>
        <pt x="93" y="0" on="1"/>
        <pt x="93" y="694" on="1"/>
      </contour>
      <contour>
        <pt x="298" y="391" on="1"/>
        <pt x="338" y="391" on="0"/>
        <pt x="408" y="411" on="0"/>
        <pt x="460" y="446" on="0"/>
        <pt x="490" y="493" on="0"/>
        <pt x="490" y="519" on="1"/>
        <pt x="490" y="544" on="0"/>
        <pt x="460" y="587" on="0"/>
        <pt x="407" y="619" on="0"/>
        <pt x="337" y="638" on="0"/>
        <pt x="297" y="638" on="1"/>
        <pt x="174" y="638" on="1"/>
        <pt x="174" y="391" on="1"/>
      </contour>
      <contour>
        <pt x="323" y="56" on="1"/>
        <pt x="365" y="56" on="0"/>
        <pt x="436" y="78" on="0"/>
        <pt x="487" y="115" on="0"/>
        <pt x="516" y="163" on="0"/>
        <pt x="516" y="189" on="1"/>
        <pt x="516" y="215" on="0"/>
        <pt x="487" y="266" on="0"/>
        <pt x="433" y="306" on="0"/>
        <pt x="355" y="331" on="0"/>
        <pt x="307" y="331" on="1"/>
        <pt x="174" y="331" on="1"/>
        <pt x="174" y="56" on="1"/>
      </contour>
    </TTGlyph>
    <TTGlyph name="C" xMin="66" yMin="-9" xMax="576" yMax="705">
      <contour>
        <pt x="576" y="46" on="1"/>
        <pt x="546" y="28" on="0"/>
        <pt x="503" y="6" on="0"/>
        <pt x="461" y="-6" on="0"/>
        <pt x="411" y="-9" on="0"/>
        <pt x="373" y="-9" on="1"/>
        <pt x="318" y="-9" on="0"/>
        <pt x="209" y="41" on="0"/>
        <pt x="121" y="134" on="0"/>
        <pt x="66" y="266" on="0"/>
        <pt x="66" y="348" on="1"/>
        <pt x="66" y="426" on="0"/>
        <pt x="117" y="557" on="0"/>
        <pt x="204" y="652" on="0"/>
        <pt x="318" y="705" on="0"/>
        <pt x="382" y="705" on="1"/>
        <pt x="434" y="705" on="0"/>
        <pt x="516" y="690" on="0"/>
        <pt x="565" y="671" on="1"/>
        <pt x="550" y="589" on="1"/>
        <pt x="512" y="615" on="0"/>
        <pt x="434" y="643" on="0"/>
        <pt x="384" y="643" on="1"/>
        <pt x="327" y="643" on="0"/>
        <pt x="240" y="589" on="0"/>
        <pt x="181" y="504" on="0"/>
        <pt x="151" y="400" on="0"/>
        <pt x="151" y="349" on="1"/>
        <pt x="151" y="289" on="0"/>
        <pt x="186" y="181" on="0"/>
        <pt x="248" y="100" on="0"/>
        <pt x="331" y="53" on="0"/>
        <pt x="380" y="53" on="1"/>
        <pt x="413" y="53" on="0"/>
        <pt x="463" y="60" on="0"/>
        <pt x="507" y="75" on="0"/>
        <pt x="547" y="98" on="0"/>
        <pt x="570" y="115" on="1"/>
      </contour>
    </TTGlyph>
    <TTGlyph name="D" xMin="91" yMin="0" xMax="649" yMax="694">
      <contour>
        <pt x="348" y="694" on="1"/>
        <pt x="411" y="694" on="0"/>
        <pt x="521" y="639" on="0"/>
        <pt x="602" y="543" on="0"/>
        <pt x="649" y="414" on="0"/>
        <pt x="649" y="341" on="1"/>
        <pt x="649" y="270" on="0"/>
        <pt x="602" y="145" on="0"/>
        <pt x="520" y="53" on="0"/>
        <pt x="411" y="0" on="0"/>
        <pt x="348" y="0" on="1"/>
        <pt x="91" y="0" on="1"/>
        <pt x="91" y="694" on="1"/>
      </contour>
      <contour>
        <pt x="325" y="56" on="1"/>
        <pt x="373" y="56" on="0"/>
        <pt x="460" y="94" on="0"/>
        <pt x="526" y="167" on="0"/>
        <pt x="565" y="273" on="0"/>
        <pt x="565" y="342" on="1"/>
        <pt x="565" y="410" on="0"/>
        <pt x="528" y="519" on="0"/>
        <pt x="463" y="596" on="0"/>
        <pt x="375" y="638" on="0"/>
        <pt x="325" y="638" on="1"/>
        <pt x="175" y="638" on="1"/>
        <pt x="175" y="56" on="1"/>
      </contour>
    </TTGlyph>
    <TTGlyph name="E" xMin="90" yMin="0" xMax="541" yMax="692">
      <contour>
        <pt x="176" y="330" on="1"/>
        <pt x="176" y="67" on="1"/>
        <pt x="374" y="67" on="1"/>
        <pt x="383" y="67" on="0"/>
        <pt x="401" y="68" on="0"/>
        <pt x="410" y="68" on="1"/>
        <pt x="541" y="68" on="1"/>
        <pt x="541" y="0" on="1"/>
        <pt x="90" y="0" on="1"/>
        <pt x="90" y="692" on="1"/>
        <pt x="528" y="692" on="1"/>
        <pt x="528" y="629" on="1"/>
        <pt x="348" y="629" on="1"/>
        <pt x="339" y="629" on="0"/>
        <pt x="321" y="630" on="0"/>
        <pt x="312" y="630" on="1"/>
        <pt x="176" y="630" on="1"/>
        <pt x="176" y="390" on="1"/>
        <pt x="500" y="390" on="1"/>
        <pt x="500" y="330" on="1"/>
      </contour>
    </TTGlyph>
    <TTGlyph name="F" xMin="90" yMin="0" xMax="514" yMax="692">
      <contour>
        <pt x="176" y="316" on="1"/>
        <pt x="176" y="0" on="1"/>
        <pt x="90" y="0" on="1"/>
        <pt x="90" y="692" on="1"/>
        <pt x="514" y="692" on="1"/>
        <pt x="514" y="629" on="1"/>
        <pt x="341" y="629" on="1"/>
        <pt x="332" y="629" on="0"/>
        <pt x="314" y="630" on="0"/>
        <pt x="305" y="630" on="1"/>
        <pt x="176" y="630" on="1"/>
        <pt x="176" y="376" on="1"/>
        <pt x="473" y="376" on="1"/>
        <pt x="473" y="316" on="1"/>
      </contour>
    </TTGlyph>
    <TTGlyph name="G" xMin="65" yMin="-9" xMax="587" yMax="706">
      <contour>
        <pt x="587" y="39" on="1"/>
        <pt x="539" y="15" on="0"/>
        <pt x="436" y="-9" on="0"/>
        <pt x="383" y="-9" on="1"/>
        <pt x="311" y="-9" on="0"/>
        <pt x="193" y="52" on="0"/>
        <pt x="110" y="152" on="0"/>
        <pt x="65" y="281" on="0"/>
        <pt x="65" y="348" on="1"/>
        <pt x="65" y="415" on="0"/>
        <pt x="110" y="543" on="0"/>
        <pt x="193" y="644" on="0"/>
        <pt x="309" y="706" on="0"/>
        <pt x="381" y="706" on="1"/>
        <pt x="438" y="706" on="0"/>
        <pt x="529" y="683" on="0"/>
        <pt x="579" y="657" on="1"/>
        <pt x="564" y="575" on="1"/>
        <pt x="523" y="609" on="0"/>
        <pt x="441" y="643" on="0"/>
        <pt x="384" y="643" on="1"/>
        <pt x="327" y="643" on="0"/>
        <pt x="240" y="589" on="0"/>
        <pt x="181" y="503" on="0"/>
        <pt x="151" y="398" on="0"/>
        <pt x="151" y="348" on="1"/>
        <pt x="151" y="296" on="0"/>
        <pt x="182" y="191" on="0"/>
        <pt x="240" y="107" on="0"/>
        <pt x="325" y="54" on="0"/>
        <pt x="379" y="54" on="1"/>
        <pt x="416" y="54" on="0"/>
        <pt x="479" y="66" on="0"/>
        <pt x="510" y="74" on="1"/>
        <pt x="510" y="242" on="1"/>
        <pt x="380" y="242" on="1"/>
        <pt x="380" y="303" on="1"/>
        <pt x="587" y="303" on="1"/>
      </contour>
    </TTGlyph>
    <TTGlyph name="Gamma" xMin="90" yMin="0" xMax="487" yMax="692">
      <contour>
        <pt x="176" y="630" on="1"/>
        <pt x="176" y="0" on="1"/>
        <pt x="90" y="0" on="1"/>
        <pt x="90" y="692" on="1"/>
        <pt x="487" y="692" on="1"/>
        <pt x="487" y="629" on="1"/>
        <pt x="328" y="629" on="1"/>
        <pt x="319" y="629" on="0"/>
        <pt x="301" y="630" on="0"/>
        <pt x="292" y="630" on="1"/>
      </contour>
    </TTGlyph>
    <TTGlyph name="H" xMin="90" yMin="0" xMax="595" yMax="694">
      <contour>
        <pt x="595" y="0" on="1"/>
        <pt x="509" y="0" on="1"/>
        <pt x="509" y="331" on="1"/>
        <pt x="176" y="331" on="1"/>
        <pt x="176" y="0" on="1"/>
        <pt x="90" y="0" on="1"/>
        <pt x="90" y="694" on="1"/>
        <pt x="176" y="694" on="1"/>
        <pt x="176" y="391" on="1"/>
        <pt x="509" y="391" on="1"/>
        <pt x="509" y="694" on="1"/>
        <pt x="595" y="694" on="1"/>
      </contour>
    </TTGlyph>
    <TTGlyph name="I" xMin="90" yMin="0" xMax="176" yMax="694">
      <contour>
        <pt x="176" y="0" on="1"/>
        <pt x="90" y="0" on="1"/>
        <pt x="90" y="694" on="1"/>
        <pt x="176" y="694" on="1"/>
      </contour>
    </TTGlyph>
    <TTGlyph name="J" xMin="41" yMin="-21" xMax="379" yMax="694">
      <contour>
        <pt x="379" y="148" on="1"/>
        <pt x="379" y="67" on="0"/>
        <pt x="287" y="-21" on="0"/>
        <pt x="208" y="-21" on="1"/>
        <pt x="168" y="-21" on="0"/>
        <pt x="85" y="-2" on="0"/>
        <pt x="41" y="21" on="1"/>
        <pt x="55" y="96" on="1"/>
        <pt x="74" y="74" on="0"/>
        <pt x="137" y="41" on="0"/>
        <pt x="179" y="41" on="1"/>
        <pt x="212" y="41" on="0"/>
        <pt x="257" y="59" on="0"/>
        <pt x="284" y="90" on="0"/>
        <pt x="295" y="130" on="0"/>
        <pt x="295" y="152" on="1"/>
        <pt x="295" y="694" on="1"/>
        <pt x="379" y="694" on="1"/>
      </contour>
    </TTGlyph>
    <TTGlyph name="K" xMin="91" yMin="0" xMax="632" yMax="694">
      <contour>
        <pt x="632" y="0" on="1"/>
        <pt x="540" y="0" on="1"/>
        <pt x="304" y="362" on="1"/>
        <pt x="175" y="226" on="1"/>
        <pt x="175" y="0" on="1"/>
        <pt x="91" y="0" on="1"/>
        <pt x="91" y="694" on="1"/>
        <pt x="175" y="694" on="1"/>
        <pt x="175" y="325" on="1"/>
        <pt x="525" y="694" on="1"/>
        <pt x="619" y="694" on="1"/>
        <pt x="358" y="419" on="1"/>
      </contour>
    </TTGlyph>
    <TTGlyph name="L" xMin="90" yMin="0" xMax="487" yMax="694">
      <contour>
        <pt x="176" y="62" on="1"/>
        <pt x="224" y="62" on="1"/>
        <pt x="290" y="62" on="0"/>
        <pt x="421" y="62" on="0"/>
        <pt x="487" y="64" on="1"/>
        <pt x="487" y="0" on="1"/>
        <pt x="90" y="0" on="1"/>
        <pt x="90" y="694" on="1"/>
        <pt x="176" y="694" on="1"/>
      </contour>
    </TTGlyph>
    <TTGlyph name="Lambda" xMin="27" yMin="0" xMax="565" yMax="694">
      <contour>
        <pt x="565" y="0" on="1"/>
        <pt x="474" y="0" on="1"/>
        <pt x="375" y="309" on="1"/>
        <pt x="366" y="339" on="0"/>
        <pt x="338" y="426" on="0"/>
        <pt x="311" y="516" on="0"/>
        <pt x="291" y="596" on="0"/>
        <pt x="288" y="618" on="1"/>
        <pt x="287" y="618" on="1"/>
        <pt x="284" y="596" on="0"/>
        <pt x="263" y="515" on="0"/>
        <pt x="235" y="422" on="0"/>
        <pt x="207" y="332" on="0"/>
        <pt x="197" y="302" on="1"/>
        <pt x="100" y="0" on="1"/>
        <pt x="27" y="0" on="1"/>
        <pt x="253" y="694" on="1"/>
        <pt x="339" y="694" on="1"/>
      </contour>
    </TTGlyph>
    <TTGlyph name="M" xMin="95" yMin="0" xMax="754" yMax="694">
      <contour>
        <pt x="361" y="285" on="1"/>
        <pt x="367" y="270" on="0"/>
        <pt x="374" y="251" on="0"/>
        <pt x="380" y="232" on="0"/>
        <pt x="388" y="208" on="0"/>
        <pt x="395" y="188" on="1"/>
        <pt x="405" y="159" on="0"/>
        <pt x="422" y="108" on="0"/>
        <pt x="424" y="95" on="1"/>
        <pt x="425" y="95" on="1"/>
        <pt x="433" y="130" on="0"/>
        <pt x="487" y="280" on="0"/>
        <pt x="526" y="386" on="1"/>
        <pt x="640" y="694" on="1"/>
        <pt x="754" y="694" on="1"/>
        <pt x="754" y="0" on="1"/>
        <pt x="677" y="0" on="1"/>
        <pt x="677" y="618" on="1"/>
        <pt x="676" y="618" on="1"/>
        <pt x="672" y="599" on="0"/>
        <pt x="641" y="508" on="0"/>
        <pt x="598" y="390" on="0"/>
        <pt x="549" y="257" on="0"/>
        <pt x="504" y="137" on="0"/>
        <pt x="468" y="42" on="0"/>
        <pt x="460" y="21" on="1"/>
        <pt x="387" y="21" on="1"/>
        <pt x="378" y="46" on="0"/>
        <pt x="340" y="144" on="0"/>
        <pt x="295" y="265" on="0"/>
        <pt x="247" y="397" on="0"/>
        <pt x="206" y="512" on="0"/>
        <pt x="176" y="600" on="0"/>
        <pt x="173" y="617" on="1"/>
        <pt x="172" y="617" on="1"/>
        <pt x="172" y="0" on="1"/>
        <pt x="95" y="0" on="1"/>
        <pt x="95" y="694" on="1"/>
        <pt x="209" y="694" on="1"/>
      </contour>
    </TTGlyph>
    <TTGlyph name="N" xMin="91" yMin="0" xMax="594" yMax="694">
      <contour>
        <pt x="435" y="242" on="1"/>
        <pt x="443" y="227" on="0"/>
        <pt x="467" y="176" on="0"/>
        <pt x="492" y="125" on="0"/>
        <pt x="513" y="82" on="0"/>
        <pt x="516" y="74" on="1"/>
        <pt x="517" y="74" on="1"/>
        <pt x="517" y="694" on="1"/>
        <pt x="594" y="694" on="1"/>
        <pt x="594" y="0" on="1"/>
        <pt x="471" y="0" on="1"/>
        <pt x="250" y="452" on="1"/>
        <pt x="243" y="467" on="0"/>
        <pt x="218" y="518" on="0"/>
        <pt x="193" y="569" on="0"/>
        <pt x="172" y="613" on="0"/>
        <pt x="169" y="620" on="1"/>
        <pt x="168" y="620" on="1"/>
        <pt x="168" y="0" on="1"/>
        <pt x="91" y="0" on="1"/>
        <pt x="91" y="694" on="1"/>
        <pt x="214" y="694" on="1"/>
      </contour>
    </TTGlyph>
    <TTGlyph name="O" xMin="54" yMin="-21" xMax="667" yMax="715">
      <contour>
        <pt x="667" y="345" on="1"/>
        <pt x="667" y="267" on="0"/>
        <pt x="617" y="133" on="0"/>
        <pt x="533" y="35" on="0"/>
        <pt x="422" y="-21" on="0"/>
        <pt x="360" y="-21" on="1"/>
        <pt x="300" y="-21" on="0"/>
        <pt x="189" y="34" on="0"/>
        <pt x="104" y="132" on="0"/>
        <pt x="54" y="266" on="0"/>
        <pt x="54" y="345" on="1"/>
        <pt x="54" y="423" on="0"/>
        <pt x="103" y="559" on="0"/>
        <pt x="187" y="658" on="0"/>
        <pt x="299" y="715" on="0"/>
        <pt x="361" y="715" on="1"/>
        <pt x="422" y="715" on="0"/>
        <pt x="533" y="659" on="0"/>
        <pt x="617" y="560" on="0"/>
        <pt x="667" y="425" on="0"/>
      </contour>
      <contour>
        <pt x="361" y="42" on="1"/>
        <pt x="403" y="42" on="0"/>
        <pt x="482" y="86" on="0"/>
        <pt x="544" y="169" on="0"/>
        <pt x="581" y="287" on="0"/>
        <pt x="581" y="360" on="1"/>
        <pt x="581" y="428" on="0"/>
        <pt x="544" y="536" on="0"/>
        <pt x="483" y="612" on="0"/>
        <pt x="403" y="653" on="0"/>
        <pt x="360" y="653" on="1"/>
        <pt x="318" y="653" on="0"/>
        <pt x="239" y="613" on="0"/>
        <pt x="178" y="538" on="0"/>
        <pt x="140" y="429" on="0"/>
        <pt x="140" y="360" on="1"/>
        <pt x="140" y="288" on="0"/>
        <pt x="176" y="170" on="0"/>
        <pt x="238" y="87" on="0"/>
        <pt x="318" y="42" on="0"/>
      </contour>
    </TTGlyph>
    <TTGlyph name="OE" xMin="24" yMin="-21" xMax="907" yMax="715">
      <contour>
        <pt x="543" y="67" on="1"/>
        <pt x="741" y="67" on="1"/>
        <pt x="750" y="67" on="0"/>
        <pt x="768" y="68" on="0"/>
        <pt x="777" y="68" on="1"/>
        <pt x="907" y="68" on="1"/>
        <pt x="907" y="0" on="1"/>
        <pt x="505" y="0" on="1"/>
        <pt x="486" y="0" on="0"/>
        <pt x="455" y="-4" on="0"/>
        <pt x="428" y="-10" on="1"/>
        <pt x="399" y="-16" on="0"/>
        <pt x="366" y="-21" on="0"/>
        <pt x="348" y="-21" on="1"/>
        <pt x="285" y="-21" on="0"/>
        <pt x="168" y="34" on="0"/>
        <pt x="78" y="131" on="0"/>
        <pt x="24" y="266" on="0"/>
        <pt x="24" y="345" on="1"/>
        <pt x="24" y="425" on="0"/>
        <pt x="78" y="560" on="0"/>
        <pt x="168" y="659" on="0"/>
        <pt x="285" y="715" on="0"/>
        <pt x="348" y="715" on="1"/>
        <pt x="357" y="715" on="0"/>
        <pt x="391" y="712" on="0"/>
        <pt x="430" y="703" on="1"/>
        <pt x="462" y="696" on="0"/>
        <pt x="497" y="694" on="0"/>
        <pt x="505" y="694" on="1"/>
        <pt x="894" y="694" on="1"/>
        <pt x="894" y="631" on="1"/>
        <pt x="715" y="631" on="1"/>
        <pt x="706" y="631" on="0"/>
        <pt x="688" y="632" on="0"/>
        <pt x="679" y="632" on="1"/>
        <pt x="543" y="632" on="1"/>
        <pt x="543" y="391" on="1"/>
        <pt x="866" y="391" on="1"/>
        <pt x="866" y="331" on="1"/>
        <pt x="543" y="331" on="1"/>
      </contour>
      <contour>
        <pt x="459" y="495" on="1"/>
        <pt x="459" y="546" on="0"/>
        <pt x="448" y="609" on="0"/>
        <pt x="422" y="643" on="0"/>
        <pt x="382" y="655" on="0"/>
        <pt x="352" y="655" on="1"/>
        <pt x="302" y="655" on="0"/>
        <pt x="213" y="610" on="0"/>
        <pt x="147" y="530" on="0"/>
        <pt x="108" y="423" on="0"/>
        <pt x="108" y="360" on="1"/>
        <pt x="108" y="294" on="0"/>
        <pt x="146" y="177" on="0"/>
        <pt x="212" y="90" on="0"/>
        <pt x="301" y="39" on="0"/>
        <pt x="353" y="39" on="1"/>
        <pt x="383" y="39" on="0"/>
        <pt x="423" y="51" on="0"/>
        <pt x="448" y="86" on="0"/>
        <pt x="459" y="149" on="0"/>
        <pt x="459" y="199" on="1"/>
      </contour>
    </TTGlyph>
    <TTGlyph name="Oslash" xMin="54" yMin="-64" xMax="707" yMax="758">
      <contour>
        <pt x="581" y="637" on="1"/>
        <pt x="593" y="625" on="0"/>
        <pt x="635" y="579" on="0"/>
        <pt x="677" y="507" on="0"/>
        <pt x="707" y="409" on="0"/>
        <pt x="707" y="345" on="1"/>
        <pt x="707" y="268" on="0"/>
        <pt x="655" y="134" on="0"/>
        <pt x="566" y="35" on="0"/>
        <pt x="447" y="-21" on="0"/>
        <pt x="380" y="-21" on="1"/>
        <pt x="349" y="-21" on="0"/>
        <pt x="296" y="-9" on="0"/>
        <pt x="256" y="6" on="0"/>
        <pt x="232" y="19" on="0"/>
        <pt x="230" y="20" on="1"/>
        <pt x="183" y="-64" on="1"/>
        <pt x="129" y="-34" on="1"/>
        <pt x="180" y="57" on="1"/>
        <pt x="160" y="74" on="0"/>
        <pt x="115" y="127" on="0"/>
        <pt x="78" y="200" on="0"/>
        <pt x="54" y="291" on="0"/>
        <pt x="54" y="345" on="1"/>
        <pt x="54" y="423" on="0"/>
        <pt x="106" y="558" on="0"/>
        <pt x="195" y="658" on="0"/>
        <pt x="314" y="715" on="0"/>
        <pt x="381" y="715" on="1"/>
        <pt x="420" y="715" on="0"/>
        <pt x="497" y="693" on="0"/>
        <pt x="531" y="674" on="1"/>
        <pt x="578" y="758" on="1"/>
        <pt x="632" y="728" on="1"/>
      </contour>
      <contour>
        <pt x="499" y="619" on="1"/>
        <pt x="476" y="633" on="0"/>
        <pt x="415" y="655" on="0"/>
        <pt x="380" y="655" on="1"/>
        <pt x="335" y="655" on="0"/>
        <pt x="248" y="614" on="0"/>
        <pt x="180" y="536" on="0"/>
        <pt x="138" y="420" on="0"/>
        <pt x="138" y="345" on="1"/>
        <pt x="138" y="299" on="0"/>
        <pt x="153" y="226" on="0"/>
        <pt x="176" y="170" on="0"/>
        <pt x="203" y="130" on="0"/>
        <pt x="214" y="117" on="1"/>
      </contour>
      <contour>
        <pt x="262" y="75" on="1"/>
        <pt x="279" y="64" on="0"/>
        <pt x="340" y="39" on="0"/>
        <pt x="381" y="39" on="1"/>
        <pt x="426" y="39" on="0"/>
        <pt x="513" y="79" on="0"/>
        <pt x="581" y="156" on="0"/>
        <pt x="623" y="270" on="0"/>
        <pt x="623" y="345" on="1"/>
        <pt x="623" y="408" on="0"/>
        <pt x="589" y="528" on="0"/>
        <pt x="547" y="576" on="1"/>
      </contour>
    </TTGlyph>
    <TTGlyph name="P" xMin="91" yMin="0" xMax="568" yMax="694">
      <contour>
        <pt x="177" y="289" on="1"/>
        <pt x="177" y="0" on="1"/>
        <pt x="91" y="0" on="1"/>
        <pt x="91" y="694" on="1"/>
        <pt x="335" y="694" on="1"/>
        <pt x="386" y="694" on="0"/>
        <pt x="472" y="661" on="0"/>
        <pt x="533" y="605" on="0"/>
        <pt x="568" y="532" on="0"/>
        <pt x="568" y="492" on="1"/>
        <pt x="568" y="453" on="0"/>
        <pt x="534" y="380" on="0"/>
        <pt x="473" y="323" on="0"/>
        <pt x="387" y="289" on="0"/>
        <pt x="335" y="289" on="1"/>
      </contour>
      <contour>
        <pt x="175" y="638" on="1"/>
        <pt x="175" y="347" on="1"/>
        <pt x="314" y="347" on="1"/>
        <pt x="357" y="347" on="0"/>
        <pt x="422" y="370" on="0"/>
        <pt x="466" y="410" on="0"/>
        <pt x="489" y="463" on="0"/>
        <pt x="489" y="493" on="1"/>
        <pt x="489" y="521" on="0"/>
        <pt x="467" y="573" on="0"/>
        <pt x="424" y="614" on="0"/>
        <pt x="358" y="638" on="0"/>
        <pt x="314" y="638" on="1"/>
      </contour>
    </TTGlyph>
    <TTGlyph name="Phi" xMin="54" yMin="0" xMax="652" yMax="694">
      <contour>
        <pt x="391" y="588" on="1"/>
        <pt x="451" y="582" on="0"/>
        <pt x="548" y="537" on="0"/>
        <pt x="615" y="471" on="0"/>
        <pt x="652" y="389" on="0"/>
        <pt x="652" y="347" on="1"/>
        <pt x="652" y="305" on="0"/>
        <pt x="616" y="224" on="0"/>
        <pt x="548" y="158" on="0"/>
        <pt x="451" y="112" on="0"/>
        <pt x="391" y="106" on="1"/>
        <pt x="391" y="0" on="1"/>
        <pt x="310" y="0" on="1"/>
        <pt x="310" y="107" on="1"/>
        <pt x="259" y="112" on="0"/>
        <pt x="166" y="153" on="0"/>
        <pt x="96" y="217" on="0"/>
        <pt x="54" y="300" on="0"/>
        <pt x="54" y="347" on="1"/>
        <pt x="54" y="394" on="0"/>
        <pt x="96" y="477" on="0"/>
        <pt x="166" y="541" on="0"/>
        <pt x="259" y="582" on="0"/>
        <pt x="310" y="587" on="1"/>
        <pt x="310" y="694" on="1"/>
        <pt x="391" y="694" on="1"/>
      </contour>
      <contour>
        <pt x="310" y="527" on="1"/>
        <pt x="268" y="521" on="0"/>
        <pt x="204" y="488" on="0"/>
        <pt x="161" y="440" on="0"/>
        <pt x="138" y="380" on="0"/>
        <pt x="138" y="347" on="1"/>
        <pt x="138" y="314" on="0"/>
        <pt x="161" y="254" on="0"/>
        <pt x="204" y="206" on="0"/>
        <pt x="268" y="173" on="0"/>
        <pt x="310" y="167" on="1"/>
      </contour>
      <contour>
        <pt x="391" y="166" on="1"/>
        <pt x="434" y="172" on="0"/>
        <pt x="500" y="206" on="0"/>
        <pt x="545" y="254" on="0"/>
        <pt x="568" y="314" on="0"/>
        <pt x="568" y="347" on="1"/>
        <pt x="568" y="380" on="0"/>
        <pt x="545" y="440" on="0"/>
        <pt x="500" y="488" on="0"/>
        <pt x="434" y="522" on="0"/>
        <pt x="391" y="528" on="1"/>
      </contour>
    </TTGlyph>
    <TTGlyph name="Pi" xMin="90" yMin="0" xMax="595" yMax="692">
      <contour>
        <pt x="595" y="0" on="1"/>
        <pt x="509" y="0" on="1"/>
        <pt x="509" y="632" on="1"/>
        <pt x="176" y="632" on="1"/>
        <pt x="176" y="0" on="1"/>
        <pt x="90" y="0" on="1"/>
        <pt x="90" y="692" on="1"/>
        <pt x="595" y="692" on="1"/>
      </contour>
    </TTGlyph>
    <TTGlyph name="Psi" xMin="54" yMin="0" xMax="707" yMax="694">
      <contour>
        <pt x="419" y="169" on="1"/>
        <pt x="470" y="182" on="0"/>
        <pt x="526" y="249" on="0"/>
        <pt x="552" y="330" on="0"/>
        <pt x="557" y="412" on="0"/>
        <pt x="557" y="440" on="1"/>
        <pt x="557" y="501" on="0"/>
        <pt x="570" y="570" on="0"/>
        <pt x="591" y="605" on="0"/>
        <pt x="620" y="613" on="0"/>
        <pt x="636" y="613" on="1"/>
        <pt x="707" y="613" on="1"/>
        <pt x="707" y="553" on="1"/>
        <pt x="685" y="552" on="0"/>
        <pt x="658" y="527" on="0"/>
        <pt x="643" y="489" on="0"/>
        <pt x="638" y="445" on="0"/>
        <pt x="638" y="425" on="1"/>
        <pt x="638" y="410" on="0"/>
        <pt x="636" y="355" on="0"/>
        <pt x="623" y="289" on="0"/>
        <pt x="597" y="218" on="0"/>
        <pt x="548" y="158" on="0"/>
        <pt x="473" y="114" on="0"/>
        <pt x="419" y="107" on="1"/>
        <pt x="419" y="0" on="1"/>
        <pt x="338" y="0" on="1"/>
        <pt x="338" y="107" on="1"/>
        <pt x="270" y="117" on="0"/>
        <pt x="186" y="184" on="0"/>
        <pt x="139" y="271" on="0"/>
        <pt x="123" y="365" on="0"/>
        <pt x="123" y="404" on="1"/>
        <pt x="123" y="429" on="0"/>
        <pt x="119" y="481" on="0"/>
        <pt x="106" y="523" on="0"/>
        <pt x="78" y="552" on="0"/>
        <pt x="54" y="553" on="1"/>
        <pt x="54" y="613" on="1"/>
        <pt x="125" y="613" on="1"/>
        <pt x="149" y="613" on="0"/>
        <pt x="180" y="595" on="0"/>
        <pt x="197" y="550" on="0"/>
        <pt x="204" y="477" on="0"/>
        <pt x="204" y="421" on="1"/>
        <pt x="204" y="394" on="0"/>
        <pt x="210" y="319" on="0"/>
        <pt x="237" y="244" on="0"/>
        <pt x="290" y="183" on="0"/>
        <pt x="338" y="169" on="1"/>
        <pt x="338" y="694" on="1"/>
        <pt x="419" y="694" on="1"/>
      </contour>
    </TTGlyph>
    <TTGlyph name="Q" xMin="54" yMin="-125" xMax="667" yMax="715">
      <contour>
        <pt x="639" y="-125" on="1"/>
        <pt x="538" y="-125" on="1"/>
        <pt x="454" y="-4" on="1"/>
        <pt x="444" y="-8" on="0"/>
        <pt x="393" y="-21" on="0"/>
        <pt x="361" y="-21" on="1"/>
        <pt x="299" y="-21" on="0"/>
        <pt x="188" y="35" on="0"/>
        <pt x="104" y="133" on="0"/>
        <pt x="54" y="267" on="0"/>
        <pt x="54" y="345" on="1"/>
        <pt x="54" y="423" on="0"/>
        <pt x="103" y="559" on="0"/>
        <pt x="187" y="658" on="0"/>
        <pt x="299" y="715" on="0"/>
        <pt x="361" y="715" on="1"/>
        <pt x="422" y="715" on="0"/>
        <pt x="533" y="659" on="0"/>
        <pt x="617" y="560" on="0"/>
        <pt x="667" y="425" on="0"/>
        <pt x="667" y="345" on="1"/>
        <pt x="667" y="252" on="0"/>
        <pt x="597" y="93" on="0"/>
        <pt x="522" y="33" on="1"/>
      </contour>
      <contour>
        <pt x="317" y="194" on="1"/>
        <pt x="404" y="194" on="1"/>
        <pt x="482" y="89" on="1"/>
        <pt x="501" y="105" on="0"/>
        <pt x="537" y="153" on="0"/>
        <pt x="566" y="217" on="0"/>
        <pt x="583" y="297" on="0"/>
        <pt x="583" y="345" on="1"/>
        <pt x="583" y="415" on="0"/>
        <pt x="546" y="529" on="0"/>
        <pt x="485" y="609" on="0"/>
        <pt x="404" y="653" on="0"/>
        <pt x="360" y="653" on="1"/>
        <pt x="318" y="653" on="0"/>
        <pt x="238" y="610" on="0"/>
        <pt x="176" y="530" on="0"/>
        <pt x="138" y="416" on="0"/>
        <pt x="138" y="345" on="1"/>
        <pt x="138" y="275" on="0"/>
        <pt x="175" y="163" on="0"/>
        <pt x="237" y="84" on="0"/>
        <pt x="318" y="41" on="0"/>
        <pt x="361" y="41" on="1"/>
        <pt x="382" y="41" on="0"/>
        <pt x="402" y="45" on="0"/>
        <pt x="417" y="50" on="1"/>
      </contour>
    </TTGlyph>
    <TTGlyph name="R" xMin="91" yMin="0" xMax="602" yMax="694">
      <contour>
        <pt x="602" y="0" on="1"/>
        <pt x="516" y="0" on="1"/>
        <pt x="331" y="317" on="1"/>
        <pt x="175" y="317" on="1"/>
        <pt x="175" y="0" on="1"/>
        <pt x="91" y="0" on="1"/>
        <pt x="91" y="694" on="1"/>
        <pt x="327" y="694" on="1"/>
        <pt x="380" y="694" on="0"/>
        <pt x="471" y="664" on="0"/>
        <pt x="537" y="612" on="0"/>
        <pt x="575" y="545" on="0"/>
        <pt x="575" y="507" on="1"/>
        <pt x="575" y="479" on="0"/>
        <pt x="553" y="424" on="0"/>
        <pt x="511" y="376" on="0"/>
        <pt x="448" y="338" on="0"/>
        <pt x="407" y="326" on="1"/>
      </contour>
      <contour>
        <pt x="316" y="377" on="1"/>
        <pt x="363" y="377" on="0"/>
        <pt x="431" y="400" on="0"/>
        <pt x="475" y="437" on="0"/>
        <pt x="496" y="484" on="0"/>
        <pt x="496" y="507" on="1"/>
        <pt x="496" y="532" on="0"/>
        <pt x="474" y="579" on="0"/>
        <pt x="429" y="616" on="0"/>
        <pt x="361" y="638" on="0"/>
        <pt x="316" y="638" on="1"/>
        <pt x="175" y="638" on="1"/>
        <pt x="175" y="377" on="1"/>
      </contour>
    </TTGlyph>
    <TTGlyph name="S" xMin="44" yMin="-21" xMax="489" yMax="715">
      <contour>
        <pt x="440" y="585" on="1"/>
        <pt x="427" y="597" on="0"/>
        <pt x="395" y="620" on="0"/>
        <pt x="356" y="639" on="0"/>
        <pt x="306" y="650" on="0"/>
        <pt x="274" y="650" on="1"/>
        <pt x="241" y="650" on="0"/>
        <pt x="188" y="630" on="0"/>
        <pt x="151" y="596" on="0"/>
        <pt x="131" y="553" on="0"/>
        <pt x="131" y="530" on="1"/>
        <pt x="131" y="496" on="0"/>
        <pt x="161" y="457" on="0"/>
        <pt x="171" y="446" on="1"/>
        <pt x="179" y="438" on="0"/>
        <pt x="198" y="427" on="0"/>
        <pt x="224" y="418" on="0"/>
        <pt x="261" y="408" on="0"/>
        <pt x="286" y="402" on="1"/>
        <pt x="311" y="396" on="0"/>
        <pt x="351" y="384" on="0"/>
        <pt x="386" y="368" on="0"/>
        <pt x="419" y="344" on="0"/>
        <pt x="436" y="326" on="1"/>
        <pt x="453" y="307" on="0"/>
        <pt x="489" y="237" on="0"/>
        <pt x="489" y="189" on="1"/>
        <pt x="489" y="147" on="0"/>
        <pt x="457" y="71" on="0"/>
        <pt x="398" y="13" on="0"/>
        <pt x="317" y="-21" on="0"/>
        <pt x="269" y="-21" on="1"/>
        <pt x="252" y="-21" on="0"/>
        <pt x="203" y="-16" on="0"/>
        <pt x="144" y="-2" on="0"/>
        <pt x="78" y="26" on="0"/>
        <pt x="44" y="48" on="1"/>
        <pt x="59" y="129" on="1"/>
        <pt x="104" y="88" on="0"/>
        <pt x="214" y="46" on="0"/>
        <pt x="269" y="46" on="1"/>
        <pt x="301" y="46" on="0"/>
        <pt x="354" y="68" on="0"/>
        <pt x="392" y="105" on="0"/>
        <pt x="412" y="153" on="0"/>
        <pt x="412" y="179" on="1"/>
        <pt x="412" y="205" on="0"/>
        <pt x="393" y="250" on="0"/>
        <pt x="380" y="264" on="1"/>
        <pt x="368" y="276" on="0"/>
        <pt x="348" y="292" on="0"/>
        <pt x="321" y="303" on="0"/>
        <pt x="281" y="314" on="0"/>
        <pt x="249" y="322" on="1"/>
        <pt x="225" y="328" on="0"/>
        <pt x="187" y="339" on="0"/>
        <pt x="153" y="355" on="0"/>
        <pt x="120" y="378" on="0"/>
        <pt x="102" y="397" on="1"/>
        <pt x="100" y="399" on="0"/>
        <pt x="85" y="418" on="0"/>
        <pt x="68" y="449" on="0"/>
        <pt x="54" y="492" on="0"/>
        <pt x="54" y="519" on="1"/>
        <pt x="54" y="557" on="0"/>
        <pt x="85" y="627" on="0"/>
        <pt x="143" y="682" on="0"/>
        <pt x="225" y="715" on="0"/>
        <pt x="275" y="715" on="1"/>
        <pt x="308" y="715" on="0"/>
        <pt x="361" y="706" on="0"/>
        <pt x="405" y="692" on="0"/>
        <pt x="440" y="674" on="0"/>
        <pt x="455" y="666" on="1"/>
      </contour>
    </TTGlyph>
    <TTGlyph name="Sigma" xMin="54" yMin="0" xMax="652" yMax="694">
      <contour>
        <pt x="191" y="67" on="1"/>
        <pt x="380" y="67" on="1"/>
        <pt x="389" y="67" on="0"/>
        <pt x="407" y="68" on="0"/>
        <pt x="416" y="68" on="1"/>
        <pt x="652" y="68" on="1"/>
        <pt x="652" y="0" on="1"/>
        <pt x="54" y="0" on="1"/>
        <pt x="280" y="336" on="1"/>
        <pt x="54" y="632" on="1"/>
        <pt x="54" y="694" on="1"/>
        <pt x="652" y="694" on="1"/>
        <pt x="652" y="631" on="1"/>
        <pt x="398" y="631" on="1"/>
        <pt x="389" y="631" on="0"/>
        <pt x="371" y="632" on="0"/>
        <pt x="362" y="632" on="1"/>
        <pt x="162" y="632" on="1"/>
        <pt x="379" y="347" on="1"/>
      </contour>
    </TTGlyph>
    <TTGlyph name="T" xMin="35" yMin="0" xMax="632" yMax="689">
      <contour>
        <pt x="377" y="0" on="1"/>
        <pt x="291" y="0" on="1"/>
        <pt x="291" y="627" on="1"/>
        <pt x="203" y="627" on="1"/>
        <pt x="194" y="627" on="0"/>
        <pt x="176" y="626" on="0"/>
        <pt x="167" y="626" on="1"/>
        <pt x="35" y="626" on="1"/>
        <pt x="35" y="689" on="1"/>
        <pt x="632" y="689" on="1"/>
        <pt x="632" y="626" on="1"/>
        <pt x="501" y="626" on="1"/>
        <pt x="492" y="626" on="0"/>
        <pt x="474" y="627" on="0"/>
        <pt x="465" y="627" on="1"/>
        <pt x="377" y="627" on="1"/>
      </contour>
    </TTGlyph>
    <TTGlyph name="Theta" xMin="54" yMin="-21" xMax="707" yMax="715">
      <contour>
        <pt x="707" y="345" on="1"/>
        <pt x="707" y="268" on="0"/>
        <pt x="655" y="134" on="0"/>
        <pt x="566" y="35" on="0"/>
        <pt x="447" y="-21" on="0"/>
        <pt x="380" y="-21" on="1"/>
        <pt x="315" y="-21" on="0"/>
        <pt x="197" y="35" on="0"/>
        <pt x="107" y="133" on="0"/>
        <pt x="54" y="267" on="0"/>
        <pt x="54" y="345" on="1"/>
        <pt x="54" y="423" on="0"/>
        <pt x="106" y="558" on="0"/>
        <pt x="195" y="658" on="0"/>
        <pt x="314" y="715" on="0"/>
        <pt x="381" y="715" on="1"/>
        <pt x="447" y="715" on="0"/>
        <pt x="565" y="658" on="0"/>
        <pt x="654" y="559" on="0"/>
        <pt x="707" y="424" on="0"/>
      </contour>
      <contour>
        <pt x="381" y="40" on="1"/>
        <pt x="429" y="40" on="0"/>
        <pt x="517" y="83" on="0"/>
        <pt x="585" y="163" on="0"/>
        <pt x="626" y="275" on="0"/>
        <pt x="626" y="345" on="1"/>
        <pt x="626" y="414" on="0"/>
        <pt x="586" y="528" on="0"/>
        <pt x="519" y="610" on="0"/>
        <pt x="430" y="655" on="0"/>
        <pt x="380" y="655" on="1"/>
        <pt x="332" y="655" on="0"/>
        <pt x="243" y="611" on="0"/>
        <pt x="176" y="530" on="0"/>
        <pt x="135" y="415" on="0"/>
        <pt x="135" y="345" on="1"/>
        <pt x="135" y="276" on="0"/>
        <pt x="175" y="164" on="0"/>
        <pt x="243" y="84" on="0"/>
        <pt x="332" y="40" on="0"/>
      </contour>
      <contour>
        <pt x="571" y="388" on="1"/>
        <pt x="571" y="307" on="1"/>
        <pt x="190" y="307" on="1"/>
        <pt x="190" y="388" on="1"/>
      </contour>
    </TTGlyph>
    <TTGlyph name="U" xMin="90" yMin="-21" xMax="576" yMax="694">
      <contour>
        <pt x="576" y="233" on="1"/>
        <pt x="576" y="179" on="0"/>
        <pt x="537" y="86" on="0"/>
        <pt x="471" y="18" on="0"/>
        <pt x="384" y="-21" on="0"/>
        <pt x="335" y="-21" on="1"/>
        <pt x="286" y="-21" on="0"/>
        <pt x="198" y="17" on="0"/>
        <pt x="130" y="85" on="0"/>
        <pt x="90" y="178" on="0"/>
        <pt x="90" y="233" on="1"/>
        <pt x="90" y="694" on="1"/>
        <pt x="176" y="694" on="1"/>
        <pt x="176" y="232" on="1"/>
        <pt x="176" y="181" on="0"/>
        <pt x="204" y="107" on="0"/>
        <pt x="249" y="59" on="0"/>
        <pt x="306" y="35" on="0"/>
        <pt x="336" y="35" on="1"/>
        <pt x="366" y="35" on="0"/>
        <pt x="425" y="59" on="0"/>
        <pt x="471" y="108" on="0"/>
        <pt x="500" y="182" on="0"/>
        <pt x="500" y="232" on="1"/>
        <pt x="500" y="694" on="1"/>
        <pt x="576" y="694" on="1"/>
      </contour>
    </TTGlyph>
    <TTGlyph name="Upsilon" xMin="54" yMin="0" xMax="707" yMax="715">
      <contour>
        <pt x="424" y="0" on="1"/>
        <pt x="338" y="0" on="1"/>
        <pt x="338" y="383" on="1"/>
        <pt x="338" y="465" on="0"/>
        <pt x="318" y="569" on="0"/>
        <pt x="283" y="628" on="0"/>
        <pt x="236" y="650" on="0"/>
        <pt x="210" y="650" on="1"/>
        <pt x="178" y="650" on="0"/>
        <pt x="132" y="599" on="0"/>
        <pt x="130" y="555" on="1"/>
        <pt x="54" y="555" on="1"/>
        <pt x="55" y="592" on="0"/>
        <pt x="81" y="651" on="0"/>
        <pt x="125" y="693" on="0"/>
        <pt x="180" y="715" on="0"/>
        <pt x="210" y="715" on="1"/>
        <pt x="260" y="715" on="0"/>
        <pt x="322" y="666" on="0"/>
        <pt x="359" y="597" on="0"/>
        <pt x="376" y="523" on="0"/>
        <pt x="380" y="498" on="1"/>
        <pt x="381" y="498" on="1"/>
        <pt x="387" y="540" on="0"/>
        <pt x="411" y="619" on="0"/>
        <pt x="451" y="679" on="0"/>
        <pt x="510" y="715" on="0"/>
        <pt x="551" y="715" on="1"/>
        <pt x="581" y="715" on="0"/>
        <pt x="636" y="693" on="0"/>
        <pt x="680" y="651" on="0"/>
        <pt x="706" y="592" on="0"/>
        <pt x="707" y="555" on="1"/>
        <pt x="631" y="555" on="1"/>
        <pt x="629" y="599" on="0"/>
        <pt x="583" y="650" on="0"/>
        <pt x="551" y="650" on="1"/>
        <pt x="523" y="650" on="0"/>
        <pt x="476" y="626" on="0"/>
        <pt x="443" y="566" on="0"/>
        <pt x="424" y="463" on="0"/>
        <pt x="424" y="385" on="1"/>
      </contour>
    </TTGlyph>
    <TTGlyph name="V" xMin="14" yMin="0" xMax="632" yMax="694">
      <contour>
        <pt x="368" y="0" on="1"/>
        <pt x="278" y="0" on="1"/>
        <pt x="14" y="694" on="1"/>
        <pt x="104" y="694" on="1"/>
        <pt x="264" y="265" on="1"/>
        <pt x="273" y="241" on="0"/>
        <pt x="293" y="187" on="0"/>
        <pt x="311" y="136" on="0"/>
        <pt x="326" y="90" on="0"/>
        <pt x="329" y="74" on="1"/>
        <pt x="330" y="74" on="1"/>
        <pt x="334" y="92" on="0"/>
        <pt x="355" y="157" on="0"/>
        <pt x="384" y="236" on="0"/>
        <pt x="416" y="322" on="0"/>
        <pt x="431" y="362" on="1"/>
        <pt x="556" y="694" on="1"/>
        <pt x="632" y="694" on="1"/>
      </contour>
    </TTGlyph>
    <TTGlyph name="W" xMin="14" yMin="0" xMax="904" yMax="694">
      <contour>
        <pt x="708" y="0" on="1"/>
        <pt x="620" y="0" on="1"/>
        <pt x="511" y="396" on="1"/>
        <pt x="493" y="460" on="0"/>
        <pt x="472" y="546" on="0"/>
        <pt x="461" y="597" on="0"/>
        <pt x="457" y="619" on="0"/>
        <pt x="457" y="619" on="1"/>
        <pt x="456" y="619" on="1"/>
        <pt x="454" y="599" on="0"/>
        <pt x="439" y="532" on="0"/>
        <pt x="419" y="454" on="0"/>
        <pt x="396" y="373" on="0"/>
        <pt x="387" y="340" on="1"/>
        <pt x="293" y="0" on="1"/>
        <pt x="210" y="0" on="1"/>
        <pt x="14" y="694" on="1"/>
        <pt x="99" y="694" on="1"/>
        <pt x="183" y="390" on="1"/>
        <pt x="226" y="230" on="1"/>
        <pt x="228" y="224" on="0"/>
        <pt x="237" y="185" on="0"/>
        <pt x="248" y="138" on="0"/>
        <pt x="258" y="92" on="0"/>
        <pt x="259" y="77" on="1"/>
        <pt x="260" y="77" on="1"/>
        <pt x="262" y="93" on="0"/>
        <pt x="273" y="148" on="0"/>
        <pt x="288" y="212" on="0"/>
        <pt x="306" y="279" on="0"/>
        <pt x="321" y="337" on="0"/>
        <pt x="332" y="378" on="0"/>
        <pt x="334" y="384" on="1"/>
        <pt x="420" y="694" on="1"/>
        <pt x="505" y="694" on="1"/>
        <pt x="623" y="264" on="1"/>
        <pt x="629" y="242" on="0"/>
        <pt x="643" y="189" on="0"/>
        <pt x="656" y="138" on="0"/>
        <pt x="665" y="92" on="0"/>
        <pt x="667" y="76" on="1"/>
        <pt x="668" y="76" on="1"/>
        <pt x="671" y="103" on="0"/>
        <pt x="690" y="182" on="0"/>
        <pt x="700" y="218" on="1"/>
        <pt x="740" y="366" on="1"/>
        <pt x="831" y="694" on="1"/>
        <pt x="904" y="694" on="1"/>
      </contour>
    </TTGlyph>
    <TTGlyph name="X" xMin="14" yMin="0" xMax="632" yMax="694">
      <contour>
        <pt x="632" y="0" on="1"/>
        <pt x="532" y="0" on="1"/>
        <pt x="316" y="306" on="1"/>
        <pt x="106" y="0" on="1"/>
        <pt x="14" y="0" on="1"/>
        <pt x="274" y="366" on="1"/>
        <pt x="27" y="694" on="1"/>
        <pt x="128" y="694" on="1"/>
        <pt x="316" y="432" on="1"/>
        <pt x="499" y="694" on="1"/>
        <pt x="592" y="694" on="1"/>
        <pt x="358" y="366" on="1"/>
      </contour>
    </TTGlyph>
    <TTGlyph name="Xi" xMin="41" yMin="0" xMax="611" yMax="689">
      <contour>
        <pt x="46" y="616" on="1"/>
        <pt x="46" y="689" on="1"/>
        <pt x="606" y="689" on="1"/>
        <pt x="606" y="616" on="1"/>
        <pt x="484" y="616" on="1"/>
        <pt x="168" y="616" on="1"/>
      </contour>
      <contour>
        <pt x="611" y="73" on="1"/>
        <pt x="611" y="0" on="1"/>
        <pt x="41" y="0" on="1"/>
        <pt x="41" y="73" on="1"/>
        <pt x="166" y="73" on="1"/>
        <pt x="486" y="73" on="1"/>
      </contour>
      <contour>
        <pt x="543" y="394" on="1"/>
        <pt x="543" y="322" on="1"/>
        <pt x="109" y="322" on="1"/>
        <pt x="109" y="394" on="1"/>
      </contour>
    </TTGlyph>
    <TTGlyph name="Y" xMin="3" yMin="0" xMax="643" yMax="694">
      <contour>
        <pt x="365" y="278" on="1"/>
        <pt x="365" y="0" on="1"/>
        <pt x="281" y="0" on="1"/>
        <pt x="281" y="278" on="1"/>
        <pt x="3" y="694" on="1"/>
        <pt x="103" y="694" on="1"/>
        <pt x="273" y="439" on="1"/>
        <pt x="305" y="390" on="0"/>
        <pt x="328" y="353" on="0"/>
        <pt x="330" y="349" on="1"/>
        <pt x="342" y="369" on="0"/>
        <pt x="371" y="414" on="0"/>
        <pt x="385" y="435" on="1"/>
        <pt x="557" y="694" on="1"/>
        <pt x="643" y="694" on="1"/>
      </contour>
    </TTGlyph>
    <TTGlyph name="Z" xMin="54" yMin="0" xMax="548" yMax="694">
      <contour>
        <pt x="163" y="62" on="1"/>
        <pt x="195" y="62" on="1"/>
        <pt x="260" y="62" on="0"/>
        <pt x="389" y="64" on="0"/>
        <pt x="454" y="64" on="1"/>
        <pt x="548" y="64" on="1"/>
        <pt x="548" y="0" on="1"/>
        <pt x="54" y="0" on="1"/>
        <pt x="54" y="41" on="1"/>
        <pt x="434" y="634" on="1"/>
        <pt x="300" y="634" on="1"/>
        <pt x="291" y="634" on="0"/>
        <pt x="273" y="633" on="0"/>
        <pt x="264" y="633" on="1"/>
        <pt x="68" y="633" on="1"/>
        <pt x="68" y="694" on="1"/>
        <pt x="543" y="694" on="1"/>
        <pt x="543" y="654" on="1"/>
      </contour>
    </TTGlyph>
    <TTGlyph name="a" xMin="44" yMin="-10" xMax="391" yMax="459">
      <contour>
        <pt x="391" y="0" on="1"/>
        <pt x="317" y="0" on="1"/>
        <pt x="317" y="37" on="1"/>
        <pt x="303" y="25" on="0"/>
        <pt x="265" y="8" on="0"/>
        <pt x="221" y="-4" on="0"/>
        <pt x="176" y="-10" on="0"/>
        <pt x="155" y="-10" on="1"/>
        <pt x="123" y="-10" on="0"/>
        <pt x="80" y="17" on="0"/>
        <pt x="55" y="55" on="0"/>
        <pt x="44" y="99" on="0"/>
        <pt x="44" y="115" on="1"/>
        <pt x="44" y="144" on="0"/>
        <pt x="73" y="186" on="0"/>
        <pt x="119" y="215" on="0"/>
        <pt x="178" y="233" on="0"/>
        <pt x="238" y="244" on="0"/>
        <pt x="294" y="249" on="0"/>
        <pt x="315" y="250" on="1"/>
        <pt x="315" y="291" on="1"/>
        <pt x="315" y="346" on="0"/>
        <pt x="264" y="401" on="0"/>
        <pt x="229" y="401" on="1"/>
        <pt x="185" y="401" on="0"/>
        <pt x="114" y="375" on="0"/>
        <pt x="81" y="351" on="1"/>
        <pt x="75" y="417" on="1"/>
        <pt x="112" y="438" on="0"/>
        <pt x="184" y="459" on="0"/>
        <pt x="229" y="459" on="1"/>
        <pt x="264" y="459" on="0"/>
        <pt x="323" y="434" on="0"/>
        <pt x="367" y="390" on="0"/>
        <pt x="391" y="329" on="0"/>
        <pt x="391" y="293" on="1"/>
      </contour>
      <contour>
        <pt x="315" y="199" on="1"/>
        <pt x="292" y="199" on="0"/>
        <pt x="224" y="192" on="0"/>
        <pt x="160" y="174" on="0"/>
        <pt x="115" y="142" on="0"/>
        <pt x="115" y="116" on="1"/>
        <pt x="115" y="88" on="0"/>
        <pt x="165" y="50" on="0"/>
        <pt x="206" y="50" on="1"/>
        <pt x="217" y="50" on="0"/>
        <pt x="262" y="57" on="0"/>
        <pt x="282" y="70" on="1"/>
        <pt x="307" y="85" on="0"/>
        <pt x="315" y="119" on="0"/>
        <pt x="315" y="134" on="1"/>
      </contour>
    </TTGlyph>
    <TTGlyph name="acute" xMin="201" yMin="527" xMax="407" yMax="694">
      <contour>
        <pt x="261" y="527" on="1"/>
        <pt x="201" y="527" on="1"/>
        <pt x="331" y="694" on="1"/>
        <pt x="407" y="694" on="1"/>
      </contour>
    </TTGlyph>
    <TTGlyph name="ae" xMin="46" yMin="-10" xMax="679" yMax="459">
      <contour>
        <pt x="391" y="225" on="1"/>
        <pt x="392" y="183" on="0"/>
        <pt x="416" y="118" on="0"/>
        <pt x="456" y="73" on="0"/>
        <pt x="506" y="50" on="0"/>
        <pt x="532" y="50" on="1"/>
        <pt x="561" y="50" on="0"/>
        <pt x="634" y="75" on="0"/>
        <pt x="667" y="107" on="1"/>
        <pt x="667" y="104" on="0"/>
        <pt x="669" y="81" on="0"/>
        <pt x="670" y="80" on="1"/>
        <pt x="670" y="76" on="0"/>
        <pt x="673" y="51" on="0"/>
        <pt x="673" y="47" on="1"/>
        <pt x="673" y="44" on="0"/>
        <pt x="651" y="25" on="0"/>
        <pt x="612" y="5" on="0"/>
        <pt x="561" y="-10" on="0"/>
        <pt x="531" y="-10" on="1"/>
        <pt x="484" y="-10" on="0"/>
        <pt x="402" y="30" on="0"/>
        <pt x="370" y="67" on="1"/>
        <pt x="353" y="43" on="0"/>
        <pt x="303" y="13" on="0"/>
        <pt x="245" y="-4" on="0"/>
        <pt x="185" y="-10" on="0"/>
        <pt x="157" y="-10" on="1"/>
        <pt x="122" y="-10" on="0"/>
        <pt x="79" y="20" on="0"/>
        <pt x="55" y="61" on="0"/>
        <pt x="46" y="103" on="0"/>
        <pt x="46" y="116" on="1"/>
        <pt x="46" y="150" on="0"/>
        <pt x="90" y="201" on="0"/>
        <pt x="164" y="235" on="0"/>
        <pt x="262" y="252" on="0"/>
        <pt x="315" y="252" on="1"/>
        <pt x="315" y="291" on="1"/>
        <pt x="315" y="320" on="0"/>
        <pt x="300" y="361" on="0"/>
        <pt x="276" y="388" on="0"/>
        <pt x="245" y="401" on="0"/>
        <pt x="230" y="401" on="1"/>
        <pt x="180" y="401" on="0"/>
        <pt x="110" y="371" on="0"/>
        <pt x="81" y="351" on="1"/>
        <pt x="75" y="417" on="1"/>
        <pt x="111" y="437" on="0"/>
        <pt x="184" y="459" on="0"/>
        <pt x="229" y="459" on="1"/>
        <pt x="257" y="459" on="0"/>
        <pt x="300" y="445" on="0"/>
        <pt x="334" y="423" on="0"/>
        <pt x="359" y="396" on="0"/>
        <pt x="368" y="382" on="1"/>
        <pt x="391" y="411" on="0"/>
        <pt x="439" y="442" on="0"/>
        <pt x="481" y="457" on="0"/>
        <pt x="511" y="459" on="0"/>
        <pt x="516" y="459" on="1"/>
        <pt x="557" y="459" on="0"/>
        <pt x="612" y="429" on="0"/>
        <pt x="648" y="383" on="0"/>
        <pt x="668" y="328" on="0"/>
        <pt x="677" y="276" on="0"/>
        <pt x="679" y="234" on="0"/>
        <pt x="679" y="225" on="1"/>
      </contour>
      <contour>
        <pt x="619" y="279" on="1"/>
        <pt x="610" y="342" on="0"/>
        <pt x="552" y="399" on="0"/>
        <pt x="516" y="399" on="1"/>
        <pt x="497" y="399" on="0"/>
        <pt x="460" y="382" on="0"/>
        <pt x="428" y="351" on="0"/>
        <pt x="404" y="307" on="0"/>
        <pt x="397" y="279" on="1"/>
      </contour>
      <contour>
        <pt x="316" y="198" on="1"/>
        <pt x="298" y="197" on="0"/>
        <pt x="232" y="192" on="0"/>
        <pt x="166" y="175" on="0"/>
        <pt x="117" y="144" on="0"/>
        <pt x="117" y="117" on="1"/>
        <pt x="117" y="89" on="0"/>
        <pt x="167" y="50" on="0"/>
        <pt x="206" y="50" on="1"/>
        <pt x="226" y="50" on="0"/>
        <pt x="269" y="59" on="0"/>
        <pt x="286" y="70" on="1"/>
        <pt x="311" y="85" on="0"/>
        <pt x="319" y="117" on="0"/>
        <pt x="319" y="133" on="1"/>
        <pt x="319" y="146" on="0"/>
        <pt x="317" y="184" on="0"/>
      </contour>
    </TTGlyph>
    <TTGlyph name="ampersand" xMin="41" yMin="-21" xMax="686" yMax="715">
      <contour>
        <pt x="652" y="389" on="1"/>
        <pt x="643" y="355" on="0"/>
        <pt x="615" y="278" on="0"/>
        <pt x="572" y="198" on="0"/>
        <pt x="512" y="118" on="0"/>
        <pt x="472" y="80" on="1"/>
        <pt x="509" y="51" on="0"/>
        <pt x="564" y="41" on="0"/>
        <pt x="575" y="41" on="1"/>
        <pt x="597" y="41" on="0"/>
        <pt x="657" y="50" on="0"/>
        <pt x="686" y="61" on="1"/>
        <pt x="686" y="-5" on="1"/>
        <pt x="641" y="-17" on="0"/>
        <pt x="582" y="-21" on="0"/>
        <pt x="574" y="-21" on="1"/>
        <pt x="561" y="-21" on="0"/>
        <pt x="527" y="-18" on="0"/>
        <pt x="487" y="-6" on="0"/>
        <pt x="441" y="17" on="0"/>
        <pt x="415" y="37" on="1"/>
        <pt x="383" y="17" on="0"/>
        <pt x="323" y="-6" on="0"/>
        <pt x="272" y="-18" on="0"/>
        <pt x="233" y="-21" on="0"/>
        <pt x="221" y="-21" on="1"/>
        <pt x="181" y="-21" on="0"/>
        <pt x="115" y="6" on="0"/>
        <pt x="67" y="52" on="0"/>
        <pt x="41" y="112" on="0"/>
        <pt x="41" y="145" on="1"/>
        <pt x="41" y="171" on="0"/>
        <pt x="55" y="212" on="0"/>
        <pt x="75" y="244" on="0"/>
        <pt x="100" y="268" on="0"/>
        <pt x="110" y="277" on="1"/>
        <pt x="190" y="349" on="1"/>
        <pt x="189" y="351" on="0"/>
        <pt x="179" y="380" on="0"/>
        <pt x="167" y="426" on="0"/>
        <pt x="158" y="485" on="0"/>
        <pt x="158" y="518" on="1"/>
        <pt x="158" y="559" on="0"/>
        <pt x="177" y="630" on="0"/>
        <pt x="213" y="684" on="0"/>
        <pt x="263" y="715" on="0"/>
        <pt x="294" y="715" on="1"/>
        <pt x="325" y="715" on="0"/>
        <pt x="373" y="687" on="0"/>
        <pt x="406" y="643" on="0"/>
        <pt x="423" y="587" on="0"/>
        <pt x="423" y="560" on="1"/>
        <pt x="423" y="512" on="0"/>
        <pt x="346" y="409" on="0"/>
        <pt x="273" y="344" on="1"/>
        <pt x="288" y="311" on="0"/>
        <pt x="336" y="237" on="0"/>
        <pt x="384" y="173" on="0"/>
        <pt x="422" y="127" on="0"/>
        <pt x="426" y="122" on="1"/>
        <pt x="483" y="171" on="0"/>
        <pt x="565" y="312" on="0"/>
        <pt x="591" y="406" on="1"/>
      </contour>
      <contour>
        <pt x="249" y="403" on="1"/>
        <pt x="269" y="423" on="0"/>
        <pt x="306" y="461" on="0"/>
        <pt x="335" y="500" on="0"/>
        <pt x="353" y="540" on="0"/>
        <pt x="353" y="561" on="1"/>
        <pt x="353" y="570" on="0"/>
        <pt x="349" y="602" on="0"/>
        <pt x="336" y="633" on="0"/>
        <pt x="313" y="655" on="0"/>
        <pt x="294" y="655" on="1"/>
        <pt x="282" y="655" on="0"/>
        <pt x="256" y="643" on="0"/>
        <pt x="236" y="618" on="0"/>
        <pt x="223" y="579" on="0"/>
        <pt x="223" y="552" on="1"/>
        <pt x="223" y="527" on="0"/>
        <pt x="234" y="448" on="0"/>
      </contour>
      <contour>
        <pt x="215" y="291" on="1"/>
        <pt x="188" y="268" on="0"/>
        <pt x="150" y="234" on="0"/>
        <pt x="127" y="204" on="0"/>
        <pt x="117" y="172" on="0"/>
        <pt x="117" y="151" on="1"/>
        <pt x="117" y="133" on="0"/>
        <pt x="130" y="94" on="0"/>
        <pt x="155" y="62" on="0"/>
        <pt x="195" y="41" on="0"/>
        <pt x="222" y="41" on="1"/>
        <pt x="267" y="41" on="0"/>
        <pt x="344" y="66" on="0"/>
        <pt x="367" y="80" on="1"/>
        <pt x="337" y="112" on="0"/>
        <pt x="254" y="219" on="0"/>
      </contour>
    </TTGlyph>
    <TTGlyph name="asterisk" xMin="63" yMin="306" xMax="426" yMax="750">
      <contour>
        <pt x="278" y="340" on="1"/>
        <pt x="278" y="323" on="0"/>
        <pt x="258" y="306" on="0"/>
        <pt x="244" y="306" on="1"/>
        <pt x="233" y="306" on="0"/>
        <pt x="211" y="323" on="0"/>
        <pt x="211" y="340" on="1"/>
        <pt x="219" y="481" on="1"/>
        <pt x="119" y="410" on="1"/>
        <pt x="113" y="405" on="0"/>
        <pt x="104" y="401" on="0"/>
        <pt x="96" y="401" on="1"/>
        <pt x="82" y="401" on="0"/>
        <pt x="63" y="422" on="0"/>
        <pt x="63" y="435" on="1"/>
        <pt x="63" y="443" on="0"/>
        <pt x="70" y="459" on="0"/>
        <pt x="84" y="467" on="1"/>
        <pt x="197" y="528" on="1"/>
        <pt x="84" y="589" on="1"/>
        <pt x="70" y="597" on="0"/>
        <pt x="63" y="613" on="0"/>
        <pt x="63" y="621" on="1"/>
        <pt x="63" y="634" on="0"/>
        <pt x="82" y="655" on="0"/>
        <pt x="96" y="655" on="1"/>
        <pt x="98" y="655" on="0"/>
        <pt x="111" y="653" on="0"/>
        <pt x="120" y="646" on="1"/>
        <pt x="219" y="575" on="1"/>
        <pt x="211" y="716" on="1"/>
        <pt x="211" y="733" on="0"/>
        <pt x="231" y="750" on="0"/>
        <pt x="245" y="750" on="1"/>
        <pt x="256" y="750" on="0"/>
        <pt x="278" y="733" on="0"/>
        <pt x="278" y="716" on="1"/>
        <pt x="270" y="575" on="1"/>
        <pt x="370" y="646" on="1"/>
        <pt x="376" y="651" on="0"/>
        <pt x="385" y="655" on="0"/>
        <pt x="393" y="655" on="1"/>
        <pt x="407" y="655" on="0"/>
        <pt x="426" y="634" on="0"/>
        <pt x="426" y="621" on="1"/>
        <pt x="426" y="613" on="0"/>
        <pt x="419" y="597" on="0"/>
        <pt x="405" y="589" on="1"/>
        <pt x="292" y="528" on="1"/>
        <pt x="405" y="467" on="1"/>
        <pt x="419" y="459" on="0"/>
        <pt x="426" y="443" on="0"/>
        <pt x="426" y="435" on="1"/>
        <pt x="426" y="422" on="0"/>
        <pt x="407" y="401" on="0"/>
        <pt x="393" y="401" on="1"/>
        <pt x="391" y="401" on="0"/>
        <pt x="378" y="403" on="0"/>
        <pt x="369" y="410" on="1"/>
        <pt x="270" y="481" on="1"/>
      </contour>
    </TTGlyph>
    <TTGlyph name="at" xMin="54" yMin="-10" xMax="598" yMax="704">
      <contour>
        <pt x="598" y="85" on="1"/>
        <pt x="583" y="68" on="0"/>
        <pt x="539" y="34" on="0"/>
        <pt x="483" y="7" on="0"/>
        <pt x="418" y="-10" on="0"/>
        <pt x="380" y="-10" on="1"/>
        <pt x="314" y="-10" on="0"/>
        <pt x="196" y="45" on="0"/>
        <pt x="107" y="141" on="0"/>
        <pt x="54" y="271" on="0"/>
        <pt x="54" y="347" on="1"/>
        <pt x="54" y="424" on="0"/>
        <pt x="107" y="554" on="0"/>
        <pt x="197" y="650" on="0"/>
        <pt x="315" y="704" on="0"/>
        <pt x="379" y="704" on="1"/>
        <pt x="434" y="704" on="0"/>
        <pt x="508" y="665" on="0"/>
        <pt x="557" y="604" on="0"/>
        <pt x="584" y="527" on="0"/>
        <pt x="596" y="451" on="0"/>
        <pt x="598" y="384" on="0"/>
        <pt x="598" y="362" on="1"/>
        <pt x="598" y="293" on="0"/>
        <pt x="560" y="200" on="0"/>
        <pt x="504" y="145" on="0"/>
        <pt x="441" y="121" on="0"/>
        <pt x="416" y="121" on="1"/>
        <pt x="380" y="121" on="0"/>
        <pt x="314" y="155" on="0"/>
        <pt x="264" y="215" on="0"/>
        <pt x="234" y="298" on="0"/>
        <pt x="234" y="347" on="1"/>
        <pt x="234" y="396" on="0"/>
        <pt x="264" y="479" on="0"/>
        <pt x="314" y="539" on="0"/>
        <pt x="380" y="573" on="0"/>
        <pt x="416" y="573" on="1"/>
        <pt x="433" y="573" on="0"/>
        <pt x="462" y="566" on="0"/>
        <pt x="484" y="557" on="0"/>
        <pt x="497" y="549" on="0"/>
        <pt x="498" y="549" on="1"/>
        <pt x="479" y="601" on="0"/>
        <pt x="416" y="644" on="0"/>
        <pt x="378" y="644" on="1"/>
        <pt x="331" y="644" on="0"/>
        <pt x="241" y="600" on="0"/>
        <pt x="171" y="522" on="0"/>
        <pt x="129" y="413" on="0"/>
        <pt x="129" y="347" on="1"/>
        <pt x="129" y="286" on="0"/>
        <pt x="168" y="178" on="0"/>
        <pt x="236" y="97" on="0"/>
        <pt x="329" y="50" on="0"/>
        <pt x="383" y="50" on="1"/>
        <pt x="435" y="50" on="0"/>
        <pt x="510" y="74" on="0"/>
        <pt x="526" y="81" on="1"/>
        <pt x="532" y="84" on="0"/>
        <pt x="540" y="85" on="0"/>
        <pt x="551" y="85" on="1"/>
      </contour>
      <contour>
        <pt x="416" y="181" on="1"/>
        <pt x="437" y="181" on="0"/>
        <pt x="476" y="206" on="0"/>
        <pt x="506" y="251" on="0"/>
        <pt x="523" y="311" on="0"/>
        <pt x="523" y="347" on="1"/>
        <pt x="523" y="383" on="0"/>
        <pt x="506" y="444" on="0"/>
        <pt x="476" y="488" on="0"/>
        <pt x="437" y="513" on="0"/>
        <pt x="416" y="513" on="1"/>
        <pt x="395" y="513" on="0"/>
        <pt x="356" y="488" on="0"/>
        <pt x="326" y="443" on="0"/>
        <pt x="309" y="383" on="0"/>
        <pt x="309" y="347" on="1"/>
        <pt x="309" y="311" on="0"/>
        <pt x="326" y="250" on="0"/>
        <pt x="356" y="206" on="0"/>
        <pt x="395" y="181" on="0"/>
      </contour>
    </TTGlyph>
    <TTGlyph name="b" xMin="78" yMin="-10" xMax="466" yMax="694">
      <contour>
        <pt x="152" y="398" on="1"/>
        <pt x="175" y="417" on="0"/>
        <pt x="221" y="439" on="0"/>
        <pt x="262" y="451" on="0"/>
        <pt x="296" y="454" on="0"/>
        <pt x="307" y="454" on="1"/>
        <pt x="342" y="454" on="0"/>
        <pt x="400" y="416" on="0"/>
        <pt x="442" y="353" on="0"/>
        <pt x="466" y="269" on="0"/>
        <pt x="466" y="223" on="1"/>
        <pt x="466" y="172" on="0"/>
        <pt x="436" y="86" on="0"/>
        <pt x="385" y="25" on="0"/>
        <pt x="320" y="-10" on="0"/>
        <pt x="284" y="-10" on="1"/>
        <pt x="258" y="-10" on="0"/>
        <pt x="189" y="12" on="0"/>
        <pt x="154" y="45" on="1"/>
        <pt x="154" y="0" on="1"/>
        <pt x="78" y="0" on="1"/>
        <pt x="78" y="694" on="1"/>
        <pt x="152" y="694" on="1"/>
      </contour>
      <contour>
        <pt x="154" y="130" on="1"/>
        <pt x="154" y="117" on="0"/>
        <pt x="164" y="90" on="0"/>
        <pt x="182" y="74" on="1"/>
        <pt x="196" y="63" on="0"/>
        <pt x="226" y="50" on="0"/>
        <pt x="247" y="50" on="1"/>
        <pt x="270" y="50" on="0"/>
        <pt x="320" y="68" on="0"/>
        <pt x="362" y="108" on="0"/>
        <pt x="390" y="174" on="0"/>
        <pt x="390" y="223" on="1"/>
        <pt x="390" y="270" on="0"/>
        <pt x="366" y="335" on="0"/>
        <pt x="327" y="376" on="0"/>
        <pt x="280" y="394" on="0"/>
        <pt x="257" y="394" on="1"/>
        <pt x="220" y="394" on="0"/>
        <pt x="168" y="358" on="0"/>
        <pt x="154" y="337" on="1"/>
      </contour>
    </TTGlyph>
    <TTGlyph name="bracketleft" xMin="99" yMin="-250" xMax="261" yMax="750">
      <contour>
        <pt x="99" y="-250" on="1"/>
        <pt x="99" y="750" on="1"/>
        <pt x="261" y="750" on="1"/>
        <pt x="261" y="690" on="1"/>
        <pt x="170" y="690" on="1"/>
        <pt x="170" y="-190" on="1"/>
        <pt x="261" y="-190" on="1"/>
        <pt x="261" y="-250" on="1"/>
      </contour>
    </TTGlyph>
    <TTGlyph name="bracketright" xMin="21" yMin="-250" xMax="183" yMax="750">
      <contour>
        <pt x="183" y="-250" on="1"/>
        <pt x="21" y="-250" on="1"/>
        <pt x="21" y="-190" on="1"/>
        <pt x="112" y="-190" on="1"/>
        <pt x="112" y="690" on="1"/>
        <pt x="21" y="690" on="1"/>
        <pt x="21" y="750" on="1"/>
        <pt x="183" y="750" on="1"/>
      </contour>
    </TTGlyph>
    <TTGlyph name="breve" xMin="79" yMin="516" xMax="410" yMax="694">
      <contour>
        <pt x="410" y="694" on="1"/>
        <pt x="409" y="655" on="0"/>
        <pt x="382" y="589" on="0"/>
        <pt x="337" y="542" on="0"/>
        <pt x="277" y="516" on="0"/>
        <pt x="244" y="516" on="1"/>
        <pt x="212" y="516" on="0"/>
        <pt x="153" y="542" on="0"/>
        <pt x="108" y="588" on="0"/>
        <pt x="80" y="654" on="0"/>
        <pt x="79" y="694" on="1"/>
        <pt x="139" y="694" on="1"/>
        <pt x="140" y="667" on="0"/>
        <pt x="158" y="625" on="0"/>
        <pt x="188" y="596" on="0"/>
        <pt x="226" y="581" on="0"/>
        <pt x="245" y="581" on="1"/>
        <pt x="263" y="581" on="0"/>
        <pt x="300" y="595" on="0"/>
        <pt x="330" y="624" on="0"/>
        <pt x="349" y="666" on="0"/>
        <pt x="350" y="694" on="1"/>
      </contour>
    </TTGlyph>
    <TTGlyph name="c" xMin="35" yMin="-10" xMax="407" yMax="459">
      <contour>
        <pt x="403" y="80" on="1"/>
        <pt x="403" y="79" on="0"/>
        <pt x="405" y="67" on="0"/>
        <pt x="406" y="54" on="0"/>
        <pt x="407" y="43" on="0"/>
        <pt x="407" y="42" on="1"/>
        <pt x="365" y="12" on="0"/>
        <pt x="284" y="-10" on="0"/>
        <pt x="247" y="-10" on="1"/>
        <pt x="202" y="-10" on="0"/>
        <pt x="125" y="27" on="0"/>
        <pt x="68" y="90" on="0"/>
        <pt x="35" y="175" on="0"/>
        <pt x="35" y="223" on="1"/>
        <pt x="35" y="266" on="0"/>
        <pt x="64" y="350" on="0"/>
        <pt x="119" y="417" on="0"/>
        <pt x="199" y="459" on="0"/>
        <pt x="251" y="459" on="1"/>
        <pt x="273" y="459" on="0"/>
        <pt x="309" y="455" on="0"/>
        <pt x="344" y="446" on="0"/>
        <pt x="379" y="430" on="0"/>
        <pt x="401" y="417" on="1"/>
        <pt x="389" y="352" on="1"/>
        <pt x="373" y="363" on="0"/>
        <pt x="345" y="380" on="0"/>
        <pt x="313" y="391" on="0"/>
        <pt x="276" y="397" on="0"/>
        <pt x="251" y="397" on="1"/>
        <pt x="214" y="397" on="0"/>
        <pt x="160" y="366" on="0"/>
        <pt x="127" y="316" on="0"/>
        <pt x="111" y="254" on="0"/>
        <pt x="111" y="223" on="1"/>
        <pt x="111" y="187" on="0"/>
        <pt x="130" y="124" on="0"/>
        <pt x="166" y="78" on="0"/>
        <pt x="217" y="52" on="0"/>
        <pt x="248" y="52" on="1"/>
        <pt x="331" y="52" on="0"/>
        <pt x="401" y="108" on="1"/>
      </contour>
    </TTGlyph>
    <TTGlyph name="caron" xMin="76" yMin="486" xMax="413" yMax="653">
      <contour>
        <pt x="275" y="486" on="1"/>
        <pt x="214" y="486" on="1"/>
        <pt x="76" y="653" on="1"/>
        <pt x="136" y="653" on="1"/>
        <pt x="245" y="530" on="1"/>
        <pt x="353" y="653" on="1"/>
        <pt x="413" y="653" on="1"/>
      </contour>
    </TTGlyph>
    <TTGlyph name="cedilla" xMin="142" yMin="-191" xMax="274" yMax="-23">
      <contour>
        <pt x="210" y="-191" on="1"/>
        <pt x="142" y="-191" on="1"/>
        <pt x="214" y="-23" on="1"/>
        <pt x="274" y="-23" on="1"/>
      </contour>
    </TTGlyph>
    <TTGlyph name="circumflex" xMin="76" yMin="527" xMax="413" yMax="694">
      <contour>
        <pt x="413" y="527" on="1"/>
        <pt x="353" y="527" on="1"/>
        <pt x="244" y="650" on="1"/>
        <pt x="136" y="527" on="1"/>
        <pt x="76" y="527" on="1"/>
        <pt x="214" y="694" on="1"/>
        <pt x="275" y="694" on="1"/>
      </contour>
    </TTGlyph>
    <TTGlyph name="colon" xMin="95" yMin="0" xMax="176" yMax="444">
      <contour>
        <pt x="176" y="363" on="1"/>
        <pt x="95" y="363" on="1"/>
        <pt x="95" y="444" on="1"/>
        <pt x="176" y="444" on="1"/>
      </contour>
      <contour>
        <pt x="176" y="81" on="1"/>
        <pt x="176" y="0" on="1"/>
        <pt x="95" y="0" on="1"/>
        <pt x="95" y="81" on="1"/>
      </contour>
    </TTGlyph>
    <TTGlyph name="comma" xMin="95" yMin="-125" xMax="176" yMax="81">
      <contour>
        <pt x="135" y="-125" on="1"/>
        <pt x="95" y="-125" on="1"/>
        <pt x="120" y="0" on="1"/>
        <pt x="95" y="0" on="1"/>
        <pt x="95" y="81" on="1"/>
        <pt x="176" y="81" on="1"/>
        <pt x="176" y="1" on="1"/>
      </contour>
    </TTGlyph>
    <TTGlyph name="d" xMin="35" yMin="-10" xMax="423" yMax="694">
      <contour>
        <pt x="423" y="0" on="1"/>
        <pt x="347" y="0" on="1"/>
        <pt x="347" y="51" on="1"/>
        <pt x="309" y="14" on="0"/>
        <pt x="232" y="-10" on="0"/>
        <pt x="204" y="-10" on="1"/>
        <pt x="168" y="-10" on="0"/>
        <pt x="107" y="26" on="0"/>
        <pt x="61" y="89" on="0"/>
        <pt x="35" y="174" on="0"/>
        <pt x="35" y="222" on="1"/>
        <pt x="35" y="271" on="0"/>
        <pt x="62" y="355" on="0"/>
        <pt x="109" y="418" on="0"/>
        <pt x="172" y="454" on="0"/>
        <pt x="208" y="454" on="1"/>
        <pt x="240" y="454" on="0"/>
        <pt x="314" y="431" on="0"/>
        <pt x="349" y="402" on="1"/>
        <pt x="349" y="694" on="1"/>
        <pt x="423" y="694" on="1"/>
      </contour>
      <contour>
        <pt x="347" y="341" on="1"/>
        <pt x="330" y="366" on="0"/>
        <pt x="283" y="394" on="0"/>
        <pt x="254" y="394" on="1"/>
        <pt x="232" y="394" on="0"/>
        <pt x="182" y="377" on="0"/>
        <pt x="139" y="337" on="0"/>
        <pt x="111" y="271" on="0"/>
        <pt x="111" y="221" on="1"/>
        <pt x="111" y="175" on="0"/>
        <pt x="135" y="109" on="0"/>
        <pt x="174" y="69" on="0"/>
        <pt x="221" y="50" on="0"/>
        <pt x="244" y="50" on="1"/>
        <pt x="277" y="50" on="0"/>
        <pt x="329" y="86" on="0"/>
        <pt x="347" y="118" on="1"/>
      </contour>
    </TTGlyph>
    <TTGlyph name="dieresis" xMin="109" yMin="598" xMax="380" yMax="679">
      <contour>
        <pt x="190" y="598" on="1"/>
        <pt x="109" y="598" on="1"/>
        <pt x="109" y="679" on="1"/>
        <pt x="190" y="679" on="1"/>
      </contour>
      <contour>
        <pt x="380" y="598" on="1"/>
        <pt x="299" y="598" on="1"/>
        <pt x="299" y="679" on="1"/>
        <pt x="380" y="679" on="1"/>
      </contour>
    </TTGlyph>
    <TTGlyph name="dollar" xMin="44" yMin="-56" xMax="435" yMax="750">
      <contour>
        <pt x="274" y="398" on="1"/>
        <pt x="321" y="387" on="0"/>
        <pt x="383" y="340" on="0"/>
        <pt x="420" y="282" on="0"/>
        <pt x="435" y="221" on="0"/>
        <pt x="435" y="195" on="1"/>
        <pt x="435" y="156" on="0"/>
        <pt x="410" y="88" on="0"/>
        <pt x="367" y="34" on="0"/>
        <pt x="308" y="-1" on="0"/>
        <pt x="274" y="-7" on="1"/>
        <pt x="274" y="-56" on="1"/>
        <pt x="216" y="-56" on="1"/>
        <pt x="216" y="-9" on="1"/>
        <pt x="160" y="-4" on="0"/>
        <pt x="76" y="35" on="0"/>
        <pt x="44" y="59" on="1"/>
        <pt x="56" y="127" on="1"/>
        <pt x="65" y="118" on="0"/>
        <pt x="95" y="95" on="0"/>
        <pt x="135" y="74" on="0"/>
        <pt x="186" y="57" on="0"/>
        <pt x="216" y="54" on="1"/>
        <pt x="216" y="324" on="1"/>
        <pt x="162" y="336" on="0"/>
        <pt x="98" y="386" on="0"/>
        <pt x="64" y="443" on="0"/>
        <pt x="54" y="497" on="0"/>
        <pt x="54" y="513" on="1"/>
        <pt x="54" y="547" on="0"/>
        <pt x="77" y="610" on="0"/>
        <pt x="120" y="661" on="0"/>
        <pt x="180" y="696" on="0"/>
        <pt x="216" y="702" on="1"/>
        <pt x="216" y="750" on="1"/>
        <pt x="274" y="750" on="1"/>
        <pt x="274" y="703" on="1"/>
        <pt x="307" y="700" on="0"/>
        <pt x="360" y="683" on="0"/>
        <pt x="397" y="663" on="0"/>
        <pt x="417" y="647" on="0"/>
        <pt x="417" y="645" on="1"/>
        <pt x="406" y="583" on="1"/>
        <pt x="380" y="606" on="0"/>
        <pt x="314" y="638" on="0"/>
        <pt x="274" y="641" on="1"/>
      </contour>
      <contour>
        <pt x="216" y="639" on="1"/>
        <pt x="170" y="627" on="0"/>
        <pt x="124" y="561" on="0"/>
        <pt x="124" y="526" on="1"/>
        <pt x="124" y="510" on="0"/>
        <pt x="134" y="475" on="0"/>
        <pt x="156" y="444" on="0"/>
        <pt x="191" y="419" on="0"/>
        <pt x="216" y="413" on="1"/>
      </contour>
      <contour>
        <pt x="274" y="56" on="1"/>
        <pt x="315" y="67" on="0"/>
        <pt x="365" y="137" on="0"/>
        <pt x="365" y="183" on="1"/>
        <pt x="365" y="203" on="0"/>
        <pt x="354" y="242" on="0"/>
        <pt x="331" y="276" on="0"/>
        <pt x="297" y="303" on="0"/>
        <pt x="274" y="309" on="1"/>
      </contour>
    </TTGlyph>
    <TTGlyph name="dotaccent" xMin="93" yMin="593" xMax="179" yMax="679">
      <contour>
        <pt x="179" y="593" on="1"/>
        <pt x="93" y="593" on="1"/>
        <pt x="93" y="679" on="1"/>
        <pt x="179" y="679" on="1"/>
      </contour>
    </TTGlyph>
    <TTGlyph name="dotlessi" xMin="78" yMin="0" xMax="152" yMax="444">
      <contour>
        <pt x="152" y="0" on="1"/>
        <pt x="78" y="0" on="1"/>
        <pt x="78" y="444" on="1"/>
        <pt x="152" y="444" on="1"/>
      </contour>
    </TTGlyph>
    <TTGlyph name="e" xMin="33" yMin="-10" xMax="407" yMax="459">
      <contour>
        <pt x="102" y="225" on="1"/>
        <pt x="103" y="185" on="0"/>
        <pt x="127" y="121" on="0"/>
        <pt x="166" y="75" on="0"/>
        <pt x="218" y="50" on="0"/>
        <pt x="247" y="50" on="1"/>
        <pt x="258" y="50" on="0"/>
        <pt x="291" y="54" on="0"/>
        <pt x="330" y="66" on="0"/>
        <pt x="373" y="88" on="0"/>
        <pt x="395" y="107" on="1"/>
        <pt x="395" y="104" on="0"/>
        <pt x="397" y="81" on="0"/>
        <pt x="398" y="80" on="1"/>
        <pt x="398" y="79" on="0"/>
        <pt x="399" y="69" on="0"/>
        <pt x="400" y="56" on="0"/>
        <pt x="401" y="45" on="0"/>
        <pt x="401" y="43" on="1"/>
        <pt x="359" y="13" on="0"/>
        <pt x="280" y="-10" on="0"/>
        <pt x="245" y="-10" on="1"/>
        <pt x="202" y="-10" on="0"/>
        <pt x="124" y="26" on="0"/>
        <pt x="67" y="90" on="0"/>
        <pt x="33" y="176" on="0"/>
        <pt x="33" y="225" on="1"/>
        <pt x="33" y="274" on="0"/>
        <pt x="65" y="359" on="0"/>
        <pt x="119" y="422" on="0"/>
        <pt x="191" y="459" on="0"/>
        <pt x="231" y="459" on="1"/>
        <pt x="281" y="459" on="0"/>
        <pt x="349" y="418" on="0"/>
        <pt x="390" y="351" on="0"/>
        <pt x="407" y="267" on="0"/>
        <pt x="407" y="225" on="1"/>
      </contour>
      <contour>
        <pt x="348" y="279" on="1"/>
        <pt x="342" y="319" on="0"/>
        <pt x="312" y="366" on="0"/>
        <pt x="277" y="391" on="0"/>
        <pt x="243" y="399" on="0"/>
        <pt x="231" y="399" on="1"/>
        <pt x="186" y="399" on="0"/>
        <pt x="121" y="330" on="0"/>
        <pt x="108" y="279" on="1"/>
      </contour>
    </TTGlyph>
    <TTGlyph name="eight" xMin="41" yMin="-21" xMax="448" yMax="676">
      <contour>
        <pt x="312" y="354" on="1"/>
        <pt x="373" y="334" on="0"/>
        <pt x="448" y="240" on="0"/>
        <pt x="448" y="180" on="1"/>
        <pt x="448" y="141" on="0"/>
        <pt x="417" y="68" on="0"/>
        <pt x="363" y="12" on="0"/>
        <pt x="288" y="-21" on="0"/>
        <pt x="244" y="-21" on="1"/>
        <pt x="201" y="-21" on="0"/>
        <pt x="127" y="12" on="0"/>
        <pt x="72" y="67" on="0"/>
        <pt x="41" y="140" on="0"/>
        <pt x="41" y="180" on="1"/>
        <pt x="41" y="240" on="0"/>
        <pt x="116" y="334" on="0"/>
        <pt x="177" y="354" on="1"/>
        <pt x="154" y="361" on="0"/>
        <pt x="110" y="388" on="0"/>
        <pt x="75" y="426" on="0"/>
        <pt x="54" y="474" on="0"/>
        <pt x="54" y="502" on="1"/>
        <pt x="54" y="536" on="0"/>
        <pt x="83" y="599" on="0"/>
        <pt x="134" y="647" on="0"/>
        <pt x="204" y="676" on="0"/>
        <pt x="245" y="676" on="1"/>
        <pt x="285" y="676" on="0"/>
        <pt x="354" y="648" on="0"/>
        <pt x="405" y="600" on="0"/>
        <pt x="435" y="537" on="0"/>
        <pt x="435" y="502" on="1"/>
        <pt x="435" y="474" on="0"/>
        <pt x="414" y="426" on="0"/>
        <pt x="380" y="388" on="0"/>
        <pt x="336" y="361" on="0"/>
      </contour>
      <contour>
        <pt x="245" y="384" on="1"/>
        <pt x="302" y="384" on="0"/>
        <pt x="366" y="450" on="0"/>
        <pt x="366" y="501" on="1"/>
        <pt x="366" y="556" on="0"/>
        <pt x="298" y="619" on="0"/>
        <pt x="244" y="619" on="1"/>
        <pt x="219" y="619" on="0"/>
        <pt x="175" y="604" on="0"/>
        <pt x="142" y="574" on="0"/>
        <pt x="123" y="530" on="0"/>
        <pt x="123" y="501" on="1"/>
        <pt x="123" y="453" on="0"/>
        <pt x="185" y="384" on="0"/>
      </contour>
      <contour>
        <pt x="245" y="39" on="1"/>
        <pt x="269" y="39" on="0"/>
        <pt x="313" y="56" on="0"/>
        <pt x="348" y="91" on="0"/>
        <pt x="369" y="145" on="0"/>
        <pt x="369" y="181" on="1"/>
        <pt x="369" y="220" on="0"/>
        <pt x="346" y="274" on="0"/>
        <pt x="309" y="309" on="0"/>
        <pt x="265" y="324" on="0"/>
        <pt x="244" y="324" on="1"/>
        <pt x="225" y="324" on="0"/>
        <pt x="181" y="309" on="0"/>
        <pt x="144" y="276" on="0"/>
        <pt x="120" y="221" on="0"/>
        <pt x="120" y="181" on="1"/>
        <pt x="120" y="146" on="0"/>
        <pt x="140" y="93" on="0"/>
        <pt x="175" y="57" on="0"/>
        <pt x="220" y="39" on="0"/>
      </contour>
    </TTGlyph>
    <TTGlyph name="emdash" xMin="0" yMin="244" xMax="978" yMax="304">
      <contour>
        <pt x="0" y="244" on="1"/>
        <pt x="0" y="304" on="1"/>
        <pt x="978" y="304" on="1"/>
        <pt x="978" y="244" on="1"/>
      </contour>
    </TTGlyph>
    <TTGlyph name="endash" xMin="0" yMin="244" xMax="489" yMax="304">
      <contour>
        <pt x="0" y="244" on="1"/>
        <pt x="0" y="304" on="1"/>
        <pt x="489" y="304" on="1"/>
        <pt x="489" y="244" on="1"/>
      </contour>
    </TTGlyph>
    <TTGlyph name="equal" xMin="54" yMin="135" xMax="707" yMax="364">
      <contour>
        <pt x="86" y="327" on="1"/>
        <pt x="75" y="327" on="0"/>
        <pt x="54" y="332" on="0"/>
        <pt x="54" y="346" on="1"/>
        <pt x="54" y="360" on="0"/>
        <pt x="75" y="364" on="0"/>
        <pt x="86" y="364" on="1"/>
        <pt x="675" y="364" on="1"/>
        <pt x="686" y="364" on="0"/>
        <pt x="707" y="359" on="0"/>
        <pt x="707" y="345" on="1"/>
        <pt x="707" y="331" on="0"/>
        <pt x="686" y="327" on="0"/>
        <pt x="675" y="327" on="1"/>
      </contour>
      <contour>
        <pt x="86" y="135" on="1"/>
        <pt x="75" y="135" on="0"/>
        <pt x="54" y="140" on="0"/>
        <pt x="54" y="154" on="1"/>
        <pt x="54" y="168" on="0"/>
        <pt x="75" y="172" on="0"/>
        <pt x="86" y="172" on="1"/>
        <pt x="675" y="172" on="1"/>
        <pt x="686" y="172" on="0"/>
        <pt x="707" y="167" on="0"/>
        <pt x="707" y="153" on="1"/>
        <pt x="707" y="139" on="0"/>
        <pt x="686" y="135" on="0"/>
        <pt x="675" y="135" on="1"/>
      </contour>
    </TTGlyph>
    <TTGlyph name="exclam" xMin="115" yMin="0" xMax="196" yMax="694">
      <contour>
        <pt x="188" y="173" on="1"/>
        <pt x="123" y="173" on="1"/>
        <pt x="115" y="694" on="1"/>
        <pt x="196" y="694" on="1"/>
      </contour>
      <contour>
        <pt x="115" y="81" on="1"/>
        <pt x="196" y="81" on="1"/>
        <pt x="196" y="0" on="1"/>
        <pt x="115" y="0" on="1"/>
      </contour>
    </TTGlyph>
    <TTGlyph name="exclamdown" xMin="115" yMin="-194" xMax="196" yMax="500">
      <contour>
        <pt x="196" y="419" on="1"/>
        <pt x="115" y="419" on="1"/>
        <pt x="115" y="500" on="1"/>
        <pt x="196" y="500" on="1"/>
      </contour>
      <contour>
        <pt x="123" y="327" on="1"/>
        <pt x="188" y="327" on="1"/>
        <pt x="196" y="-194" on="1"/>
        <pt x="115" y="-194" on="1"/>
      </contour>
    </TTGlyph>
    <TTGlyph name="f" xMin="26" yMin="0" xMax="339" yMax="704">
      <contour>
        <pt x="173" y="0" on="1"/>
        <pt x="99" y="0" on="1"/>
        <pt x="99" y="386" on="1"/>
        <pt x="26" y="386" on="1"/>
        <pt x="26" y="444" on="1"/>
        <pt x="99" y="444" on="1"/>
        <pt x="99" y="534" on="1"/>
        <pt x="99" y="570" on="0"/>
        <pt x="123" y="633" on="0"/>
        <pt x="167" y="678" on="0"/>
        <pt x="226" y="704" on="0"/>
        <pt x="262" y="704" on="1"/>
        <pt x="290" y="704" on="0"/>
        <pt x="334" y="696" on="0"/>
        <pt x="339" y="694" on="1"/>
        <pt x="339" y="628" on="1"/>
        <pt x="330" y="632" on="0"/>
        <pt x="287" y="644" on="0"/>
        <pt x="261" y="644" on="1"/>
        <pt x="249" y="644" on="0"/>
        <pt x="217" y="638" on="0"/>
        <pt x="190" y="621" on="0"/>
        <pt x="171" y="590" on="0"/>
        <pt x="171" y="564" on="1"/>
        <pt x="171" y="444" on="1"/>
        <pt x="280" y="444" on="1"/>
        <pt x="280" y="386" on="1"/>
        <pt x="173" y="386" on="1"/>
      </contour>
    </TTGlyph>
    <TTGlyph name="f_f" xMin="26" yMin="0" xMax="611" yMax="704">
      <contour>
        <pt x="173" y="0" on="1"/>
        <pt x="99" y="0" on="1"/>
        <pt x="99" y="386" on="1"/>
        <pt x="26" y="386" on="1"/>
        <pt x="26" y="444" on="1"/>
        <pt x="99" y="444" on="1"/>
        <pt x="99" y="534" on="1"/>
        <pt x="99" y="572" on="0"/>
        <pt x="124" y="634" on="0"/>
        <pt x="168" y="679" on="0"/>
        <pt x="228" y="704" on="0"/>
        <pt x="262" y="704" on="1"/>
        <pt x="288" y="704" on="0"/>
        <pt x="331" y="696" on="0"/>
        <pt x="340" y="694" on="1"/>
        <pt x="340" y="628" on="1"/>
        <pt x="330" y="632" on="0"/>
        <pt x="288" y="644" on="0"/>
        <pt x="261" y="644" on="1"/>
        <pt x="250" y="644" on="0"/>
        <pt x="219" y="639" on="0"/>
        <pt x="191" y="622" on="0"/>
        <pt x="171" y="590" on="0"/>
        <pt x="171" y="564" on="1"/>
        <pt x="171" y="444" on="1"/>
        <pt x="281" y="444" on="1"/>
        <pt x="281" y="386" on="1"/>
        <pt x="173" y="386" on="1"/>
      </contour>
      <contour>
        <pt x="444" y="0" on="1"/>
        <pt x="370" y="0" on="1"/>
        <pt x="370" y="534" on="1"/>
        <pt x="370" y="572" on="0"/>
        <pt x="395" y="634" on="0"/>
        <pt x="439" y="679" on="0"/>
        <pt x="499" y="704" on="0"/>
        <pt x="533" y="704" on="1"/>
        <pt x="559" y="704" on="0"/>
        <pt x="602" y="696" on="0"/>
        <pt x="611" y="694" on="1"/>
        <pt x="611" y="628" on="1"/>
        <pt x="601" y="632" on="0"/>
        <pt x="559" y="644" on="0"/>
        <pt x="532" y="644" on="1"/>
        <pt x="521" y="644" on="0"/>
        <pt x="490" y="639" on="0"/>
        <pt x="462" y="622" on="0"/>
        <pt x="442" y="590" on="0"/>
        <pt x="442" y="564" on="1"/>
        <pt x="442" y="444" on="1"/>
        <pt x="552" y="444" on="1"/>
        <pt x="552" y="386" on="1"/>
        <pt x="444" y="386" on="1"/>
      </contour>
    </TTGlyph>
    <TTGlyph name="f_f_i" xMin="26" yMin="0" xMax="719" yMax="704">
      <contour>
        <pt x="719" y="614" on="1"/>
        <pt x="638" y="614" on="1"/>
        <pt x="638" y="695" on="1"/>
        <pt x="719" y="695" on="1"/>
      </contour>
      <contour>
        <pt x="716" y="0" on="1"/>
        <pt x="642" y="0" on="1"/>
        <pt x="642" y="444" on="1"/>
        <pt x="716" y="444" on="1"/>
      </contour>
      <contour>
        <pt x="445" y="0" on="1"/>
        <pt x="371" y="0" on="1"/>
        <pt x="371" y="536" on="1"/>
        <pt x="371" y="572" on="0"/>
        <pt x="391" y="634" on="0"/>
        <pt x="426" y="679" on="0"/>
        <pt x="474" y="704" on="0"/>
        <pt x="502" y="704" on="1"/>
        <pt x="514" y="704" on="0"/>
        <pt x="529" y="703" on="0"/>
        <pt x="541" y="701" on="0"/>
        <pt x="552" y="698" on="0"/>
        <pt x="560" y="695" on="1"/>
        <pt x="560" y="627" on="1"/>
        <pt x="557" y="629" on="0"/>
        <pt x="525" y="644" on="0"/>
        <pt x="502" y="644" on="1"/>
        <pt x="492" y="644" on="0"/>
        <pt x="471" y="637" on="0"/>
        <pt x="454" y="619" on="0"/>
        <pt x="443" y="589" on="0"/>
        <pt x="443" y="566" on="1"/>
        <pt x="443" y="444" on="1"/>
        <pt x="560" y="444" on="1"/>
        <pt x="560" y="386" on="1"/>
        <pt x="445" y="386" on="1"/>
      </contour>
      <contour>
        <pt x="173" y="0" on="1"/>
        <pt x="99" y="0" on="1"/>
        <pt x="99" y="386" on="1"/>
        <pt x="26" y="386" on="1"/>
        <pt x="26" y="444" on="1"/>
        <pt x="99" y="444" on="1"/>
        <pt x="99" y="535" on="1"/>
        <pt x="99" y="571" on="0"/>
        <pt x="121" y="632" on="0"/>
        <pt x="160" y="678" on="0"/>
        <pt x="214" y="704" on="0"/>
        <pt x="246" y="704" on="1"/>
        <pt x="269" y="704" on="0"/>
        <pt x="306" y="696" on="0"/>
        <pt x="313" y="694" on="1"/>
        <pt x="313" y="628" on="1"/>
        <pt x="312" y="628" on="0"/>
        <pt x="272" y="644" on="0"/>
        <pt x="245" y="644" on="1"/>
        <pt x="235" y="644" on="0"/>
        <pt x="210" y="638" on="0"/>
        <pt x="187" y="621" on="0"/>
        <pt x="171" y="590" on="0"/>
        <pt x="171" y="564" on="1"/>
        <pt x="171" y="444" on="1"/>
        <pt x="288" y="444" on="1"/>
        <pt x="288" y="386" on="1"/>
        <pt x="173" y="386" on="1"/>
      </contour>
    </TTGlyph>
    <TTGlyph name="f_f_l" xMin="26" yMin="0" xMax="716" yMax="704">
      <contour>
        <pt x="173" y="0" on="1"/>
        <pt x="99" y="0" on="1"/>
        <pt x="99" y="386" on="1"/>
        <pt x="26" y="386" on="1"/>
        <pt x="26" y="444" on="1"/>
        <pt x="99" y="444" on="1"/>
        <pt x="99" y="535" on="1"/>
        <pt x="99" y="571" on="0"/>
        <pt x="121" y="632" on="0"/>
        <pt x="160" y="678" on="0"/>
        <pt x="214" y="704" on="0"/>
        <pt x="246" y="704" on="1"/>
        <pt x="269" y="704" on="0"/>
        <pt x="306" y="696" on="0"/>
        <pt x="313" y="694" on="1"/>
        <pt x="313" y="628" on="1"/>
        <pt x="312" y="628" on="0"/>
        <pt x="272" y="644" on="0"/>
        <pt x="245" y="644" on="1"/>
        <pt x="235" y="644" on="0"/>
        <pt x="210" y="638" on="0"/>
        <pt x="187" y="621" on="0"/>
        <pt x="171" y="590" on="0"/>
        <pt x="171" y="564" on="1"/>
        <pt x="171" y="444" on="1"/>
        <pt x="288" y="444" on="1"/>
        <pt x="288" y="386" on="1"/>
        <pt x="173" y="386" on="1"/>
      </contour>
      <contour>
        <pt x="716" y="0" on="1"/>
        <pt x="642" y="0" on="1"/>
        <pt x="642" y="694" on="1"/>
        <pt x="716" y="694" on="1"/>
      </contour>
      <contour>
        <pt x="445" y="0" on="1"/>
        <pt x="371" y="0" on="1"/>
        <pt x="371" y="536" on="1"/>
        <pt x="371" y="572" on="0"/>
        <pt x="391" y="634" on="0"/>
        <pt x="426" y="679" on="0"/>
        <pt x="474" y="704" on="0"/>
        <pt x="502" y="704" on="1"/>
        <pt x="525" y="704" on="0"/>
        <pt x="545" y="700" on="0"/>
        <pt x="560" y="694" on="1"/>
        <pt x="560" y="628" on="1"/>
        <pt x="547" y="636" on="0"/>
        <pt x="517" y="644" on="0"/>
        <pt x="502" y="644" on="1"/>
        <pt x="492" y="644" on="0"/>
        <pt x="471" y="637" on="0"/>
        <pt x="454" y="619" on="0"/>
        <pt x="443" y="589" on="0"/>
        <pt x="443" y="566" on="1"/>
        <pt x="443" y="444" on="1"/>
        <pt x="560" y="444" on="1"/>
        <pt x="560" y="386" on="1"/>
        <pt x="445" y="386" on="1"/>
      </contour>
    </TTGlyph>
    <TTGlyph name="fi" xMin="26" yMin="0" xMax="447" yMax="704">
      <contour>
        <pt x="447" y="614" on="1"/>
        <pt x="366" y="614" on="1"/>
        <pt x="366" y="695" on="1"/>
        <pt x="447" y="695" on="1"/>
      </contour>
      <contour>
        <pt x="444" y="0" on="1"/>
        <pt x="370" y="0" on="1"/>
        <pt x="370" y="444" on="1"/>
        <pt x="444" y="444" on="1"/>
      </contour>
      <contour>
        <pt x="173" y="0" on="1"/>
        <pt x="99" y="0" on="1"/>
        <pt x="99" y="386" on="1"/>
        <pt x="26" y="386" on="1"/>
        <pt x="26" y="444" on="1"/>
        <pt x="99" y="444" on="1"/>
        <pt x="99" y="536" on="1"/>
        <pt x="99" y="572" on="0"/>
        <pt x="119" y="634" on="0"/>
        <pt x="154" y="679" on="0"/>
        <pt x="202" y="704" on="0"/>
        <pt x="230" y="704" on="1"/>
        <pt x="253" y="704" on="0"/>
        <pt x="273" y="700" on="0"/>
        <pt x="288" y="694" on="1"/>
        <pt x="288" y="626" on="1"/>
        <pt x="277" y="634" on="0"/>
        <pt x="247" y="644" on="0"/>
        <pt x="230" y="644" on="1"/>
        <pt x="220" y="644" on="0"/>
        <pt x="199" y="637" on="0"/>
        <pt x="182" y="619" on="0"/>
        <pt x="171" y="589" on="0"/>
        <pt x="171" y="566" on="1"/>
        <pt x="171" y="444" on="1"/>
        <pt x="288" y="444" on="1"/>
        <pt x="288" y="386" on="1"/>
        <pt x="173" y="386" on="1"/>
      </contour>
    </TTGlyph>
    <TTGlyph name="five" xMin="38" yMin="-21" xMax="440" yMax="655">
      <contour>
        <pt x="150" y="386" on="1"/>
        <pt x="171" y="405" on="0"/>
        <pt x="225" y="426" on="0"/>
        <pt x="255" y="426" on="1"/>
        <pt x="293" y="426" on="0"/>
        <pt x="360" y="391" on="0"/>
        <pt x="411" y="331" on="0"/>
        <pt x="440" y="250" on="0"/>
        <pt x="440" y="203" on="1"/>
        <pt x="440" y="156" on="0"/>
        <pt x="406" y="74" on="0"/>
        <pt x="348" y="14" on="0"/>
        <pt x="269" y="-21" on="0"/>
        <pt x="225" y="-21" on="1"/>
        <pt x="215" y="-21" on="0"/>
        <pt x="172" y="-17" on="0"/>
        <pt x="120" y="3" on="0"/>
        <pt x="63" y="43" on="0"/>
        <pt x="38" y="78" on="1"/>
        <pt x="71" y="132" on="1"/>
        <pt x="83" y="108" on="0"/>
        <pt x="118" y="73" on="0"/>
        <pt x="159" y="50" on="0"/>
        <pt x="203" y="39" on="0"/>
        <pt x="224" y="39" on="1"/>
        <pt x="246" y="39" on="0"/>
        <pt x="292" y="55" on="0"/>
        <pt x="330" y="94" on="0"/>
        <pt x="354" y="158" on="0"/>
        <pt x="354" y="205" on="1"/>
        <pt x="354" y="250" on="0"/>
        <pt x="336" y="311" on="0"/>
        <pt x="307" y="349" on="0"/>
        <pt x="272" y="366" on="0"/>
        <pt x="254" y="366" on="1"/>
        <pt x="223" y="366" on="0"/>
        <pt x="163" y="330" on="0"/>
        <pt x="144" y="287" on="1"/>
        <pt x="79" y="287" on="1"/>
        <pt x="79" y="655" on="1"/>
        <pt x="407" y="655" on="1"/>
        <pt x="407" y="593" on="1"/>
        <pt x="150" y="593" on="1"/>
      </contour>
    </TTGlyph>
    <TTGlyph name="fl" xMin="26" yMin="0" xMax="444" yMax="704">
      <contour>
        <pt x="173" y="0" on="1"/>
        <pt x="99" y="0" on="1"/>
        <pt x="99" y="386" on="1"/>
        <pt x="26" y="386" on="1"/>
        <pt x="26" y="444" on="1"/>
        <pt x="99" y="444" on="1"/>
        <pt x="99" y="536" on="1"/>
        <pt x="99" y="572" on="0"/>
        <pt x="119" y="634" on="0"/>
        <pt x="154" y="679" on="0"/>
        <pt x="202" y="704" on="0"/>
        <pt x="230" y="704" on="1"/>
        <pt x="253" y="704" on="0"/>
        <pt x="273" y="700" on="0"/>
        <pt x="288" y="694" on="1"/>
        <pt x="288" y="628" on="1"/>
        <pt x="275" y="636" on="0"/>
        <pt x="245" y="644" on="0"/>
        <pt x="230" y="644" on="1"/>
        <pt x="220" y="644" on="0"/>
        <pt x="199" y="637" on="0"/>
        <pt x="182" y="619" on="0"/>
        <pt x="171" y="589" on="0"/>
        <pt x="171" y="566" on="1"/>
        <pt x="171" y="444" on="1"/>
        <pt x="288" y="444" on="1"/>
        <pt x="288" y="386" on="1"/>
        <pt x="173" y="386" on="1"/>
      </contour>
      <contour>
        <pt x="444" y="0" on="1"/>
        <pt x="370" y="0" on="1"/>
        <pt x="370" y="694" on="1"/>
        <pt x="444" y="694" on="1"/>
      </contour>
    </TTGlyph>
    <TTGlyph name="four" xMin="27" yMin="0" xMax="462" yMax="655">
      <contour>
        <pt x="365" y="0" on="1"/>
        <pt x="286" y="0" on="1"/>
        <pt x="286" y="172" on="1"/>
        <pt x="27" y="172" on="1"/>
        <pt x="27" y="232" on="1"/>
        <pt x="275" y="655" on="1"/>
        <pt x="365" y="655" on="1"/>
        <pt x="365" y="232" on="1"/>
        <pt x="462" y="232" on="1"/>
        <pt x="462" y="172" on="1"/>
        <pt x="365" y="172" on="1"/>
      </contour>
      <contour>
        <pt x="291" y="232" on="1"/>
        <pt x="291" y="610" on="1"/>
        <pt x="291" y="596" on="0"/>
        <pt x="270" y="542" on="0"/>
        <pt x="244" y="485" on="0"/>
        <pt x="219" y="436" on="0"/>
        <pt x="214" y="427" on="1"/>
        <pt x="182" y="367" on="0"/>
        <pt x="126" y="270" on="0"/>
        <pt x="104" y="232" on="1"/>
      </contour>
    </TTGlyph>
    <TTGlyph name="g" xMin="27" yMin="-205" xMax="475" yMax="454">
      <contour>
        <pt x="340" y="393" on="1"/>
        <pt x="356" y="373" on="0"/>
        <pt x="374" y="320" on="0"/>
        <pt x="374" y="293" on="1"/>
        <pt x="374" y="259" on="0"/>
        <pt x="349" y="200" on="0"/>
        <pt x="306" y="156" on="0"/>
        <pt x="249" y="131" on="0"/>
        <pt x="217" y="131" on="1"/>
        <pt x="187" y="131" on="0"/>
        <pt x="140" y="151" on="0"/>
        <pt x="127" y="160" on="1"/>
        <pt x="122" y="153" on="0"/>
        <pt x="117" y="140" on="0"/>
        <pt x="117" y="123" on="1"/>
        <pt x="117" y="103" on="0"/>
        <pt x="131" y="82" on="0"/>
        <pt x="150" y="72" on="0"/>
        <pt x="169" y="70" on="0"/>
        <pt x="174" y="70" on="1"/>
        <pt x="259" y="70" on="1"/>
        <pt x="269" y="70" on="0"/>
        <pt x="307" y="69" on="0"/>
        <pt x="352" y="61" on="0"/>
        <pt x="399" y="44" on="0"/>
        <pt x="438" y="13" on="0"/>
        <pt x="462" y="-35" on="0"/>
        <pt x="462" y="-70" on="1"/>
        <pt x="462" y="-99" on="0"/>
        <pt x="428" y="-148" on="0"/>
        <pt x="369" y="-184" on="0"/>
        <pt x="290" y="-205" on="0"/>
        <pt x="244" y="-205" on="1"/>
        <pt x="198" y="-205" on="0"/>
        <pt x="119" y="-184" on="0"/>
        <pt x="61" y="-147" on="0"/>
        <pt x="27" y="-98" on="0"/>
        <pt x="27" y="-71" on="1"/>
        <pt x="27" y="-50" on="0"/>
        <pt x="52" y="8" on="0"/>
        <pt x="90" y="33" on="1"/>
        <pt x="82" y="43" on="0"/>
        <pt x="65" y="80" on="0"/>
        <pt x="65" y="108" on="1"/>
        <pt x="65" y="126" on="0"/>
        <pt x="77" y="170" on="0"/>
        <pt x="94" y="194" on="1"/>
        <pt x="61" y="239" on="0"/>
        <pt x="61" y="293" on="1"/>
        <pt x="61" y="326" on="0"/>
        <pt x="86" y="385" on="0"/>
        <pt x="128" y="428" on="0"/>
        <pt x="185" y="454" on="0"/>
        <pt x="218" y="454" on="1"/>
        <pt x="233" y="454" on="0"/>
        <pt x="286" y="442" on="0"/>
        <pt x="311" y="421" on="1"/>
        <pt x="336" y="433" on="0"/>
        <pt x="384" y="446" on="0"/>
        <pt x="426" y="453" on="0"/>
        <pt x="457" y="454" on="0"/>
        <pt x="464" y="454" on="1"/>
        <pt x="475" y="393" on="1"/>
        <pt x="456" y="395" on="0"/>
        <pt x="426" y="395" on="0"/>
        <pt x="424" y="395" on="1"/>
        <pt x="396" y="395" on="0"/>
        <pt x="360" y="392" on="0"/>
        <pt x="344" y="390" on="1"/>
        <pt x="344" y="391" on="0"/>
        <pt x="342" y="393" on="1"/>
        <pt x="342" y="393" on="0"/>
        <pt x="341" y="394" on="1"/>
      </contour>
      <contour>
        <pt x="218" y="186" on="1"/>
        <pt x="230" y="186" on="0"/>
        <pt x="260" y="194" on="0"/>
        <pt x="287" y="218" on="0"/>
        <pt x="305" y="260" on="0"/>
        <pt x="305" y="293" on="1"/>
        <pt x="305" y="322" on="0"/>
        <pt x="290" y="362" on="0"/>
        <pt x="265" y="387" on="0"/>
        <pt x="234" y="399" on="0"/>
        <pt x="217" y="399" on="1"/>
        <pt x="205" y="399" on="0"/>
        <pt x="175" y="391" on="0"/>
        <pt x="148" y="367" on="0"/>
        <pt x="130" y="325" on="0"/>
        <pt x="130" y="292" on="1"/>
        <pt x="130" y="264" on="0"/>
        <pt x="145" y="223" on="0"/>
        <pt x="170" y="198" on="0"/>
        <pt x="202" y="186" on="0"/>
      </contour>
      <contour>
        <pt x="173" y="-2" on="1"/>
        <pt x="145" y="-2" on="0"/>
        <pt x="114" y="-22" on="0"/>
        <pt x="99" y="-47" on="0"/>
        <pt x="97" y="-69" on="0"/>
        <pt x="97" y="-70" on="1"/>
        <pt x="97" y="-88" on="0"/>
        <pt x="121" y="-118" on="0"/>
        <pt x="162" y="-139" on="0"/>
        <pt x="216" y="-150" on="0"/>
        <pt x="245" y="-150" on="1"/>
        <pt x="274" y="-150" on="0"/>
        <pt x="328" y="-138" on="0"/>
        <pt x="368" y="-117" on="0"/>
        <pt x="392" y="-88" on="0"/>
        <pt x="392" y="-71" on="1"/>
        <pt x="392" y="-45" on="0"/>
        <pt x="357" y="-17" on="0"/>
        <pt x="312" y="-4" on="0"/>
        <pt x="268" y="-2" on="0"/>
        <pt x="260" y="-2" on="1"/>
      </contour>
    </TTGlyph>
    <TTGlyph name="germandbls" xMin="78" yMin="-10" xMax="441" yMax="704">
      <contour>
        <pt x="318" y="411" on="1"/>
        <pt x="350" y="392" on="0"/>
        <pt x="396" y="338" on="0"/>
        <pt x="426" y="277" on="0"/>
        <pt x="441" y="211" on="0"/>
        <pt x="441" y="179" on="1"/>
        <pt x="441" y="139" on="0"/>
        <pt x="414" y="70" on="0"/>
        <pt x="367" y="19" on="0"/>
        <pt x="304" y="-10" on="0"/>
        <pt x="268" y="-10" on="1"/>
        <pt x="253" y="-10" on="0"/>
        <pt x="222" y="-5" on="0"/>
        <pt x="197" y="1" on="0"/>
        <pt x="181" y="7" on="0"/>
        <pt x="181" y="9" on="1"/>
        <pt x="181" y="10" on="0"/>
        <pt x="185" y="19" on="0"/>
        <pt x="185" y="20" on="1"/>
        <pt x="201" y="64" on="1"/>
        <pt x="220" y="56" on="0"/>
        <pt x="256" y="50" on="0"/>
        <pt x="267" y="50" on="1"/>
        <pt x="311" y="50" on="0"/>
        <pt x="366" y="120" on="0"/>
        <pt x="366" y="179" on="1"/>
        <pt x="366" y="219" on="0"/>
        <pt x="344" y="292" on="0"/>
        <pt x="303" y="348" on="0"/>
        <pt x="244" y="383" on="0"/>
        <pt x="206" y="384" on="1"/>
        <pt x="206" y="444" on="1"/>
        <pt x="244" y="445" on="0"/>
        <pt x="295" y="468" on="0"/>
        <pt x="326" y="502" on="0"/>
        <pt x="339" y="541" on="0"/>
        <pt x="339" y="558" on="1"/>
        <pt x="339" y="601" on="0"/>
        <pt x="283" y="644" on="0"/>
        <pt x="246" y="644" on="1"/>
        <pt x="238" y="644" on="0"/>
        <pt x="207" y="640" on="0"/>
        <pt x="175" y="622" on="0"/>
        <pt x="152" y="584" on="0"/>
        <pt x="152" y="550" on="1"/>
        <pt x="152" y="0" on="1"/>
        <pt x="78" y="0" on="1"/>
        <pt x="78" y="552" on="1"/>
        <pt x="78" y="590" on="0"/>
        <pt x="109" y="647" on="0"/>
        <pt x="157" y="685" on="0"/>
        <pt x="217" y="704" on="0"/>
        <pt x="246" y="704" on="1"/>
        <pt x="281" y="704" on="0"/>
        <pt x="342" y="681" on="0"/>
        <pt x="388" y="642" on="0"/>
        <pt x="414" y="588" on="0"/>
        <pt x="414" y="558" on="1"/>
        <pt x="414" y="515" on="0"/>
        <pt x="364" y="437" on="0"/>
      </contour>
    </TTGlyph>
    <TTGlyph name="grave" xMin="82" yMin="527" xMax="288" yMax="694">
      <contour>
        <pt x="82" y="694" on="1"/>
        <pt x="158" y="694" on="1"/>
        <pt x="288" y="527" on="1"/>
        <pt x="228" y="527" on="1"/>
      </contour>
    </TTGlyph>
    <TTGlyph name="h" xMin="77" yMin="0" xMax="424" yMax="694">
      <contour>
        <pt x="424" y="0" on="1"/>
        <pt x="348" y="0" on="1"/>
        <pt x="348" y="294" on="1"/>
        <pt x="348" y="307" on="0"/>
        <pt x="344" y="342" on="0"/>
        <pt x="326" y="373" on="0"/>
        <pt x="287" y="394" on="0"/>
        <pt x="252" y="394" on="1"/>
        <pt x="224" y="394" on="0"/>
        <pt x="185" y="366" on="0"/>
        <pt x="163" y="323" on="0"/>
        <pt x="153" y="272" on="0"/>
        <pt x="153" y="249" on="1"/>
        <pt x="153" y="0" on="1"/>
        <pt x="77" y="0" on="1"/>
        <pt x="77" y="694" on="1"/>
        <pt x="151" y="694" on="1"/>
        <pt x="151" y="385" on="1"/>
        <pt x="160" y="396" on="0"/>
        <pt x="186" y="421" on="0"/>
        <pt x="221" y="441" on="0"/>
        <pt x="264" y="454" on="0"/>
        <pt x="290" y="454" on="1"/>
        <pt x="335" y="454" on="0"/>
        <pt x="389" y="423" on="0"/>
        <pt x="416" y="377" on="0"/>
        <pt x="424" y="324" on="0"/>
        <pt x="424" y="301" on="1"/>
      </contour>
    </TTGlyph>
    <TTGlyph name="hungarumlaut" xMin="106" yMin="527" xMax="407" yMax="694">
      <contour>
        <pt x="166" y="527" on="1"/>
        <pt x="106" y="527" on="1"/>
        <pt x="168" y="694" on="1"/>
        <pt x="244" y="694" on="1"/>
      </contour>
      <contour>
        <pt x="329" y="527" on="1"/>
        <pt x="269" y="527" on="1"/>
        <pt x="331" y="694" on="1"/>
        <pt x="407" y="694" on="1"/>
      </contour>
    </TTGlyph>
    <TTGlyph name="hyphen" xMin="11" yMin="193" xMax="271" yMax="251">
      <contour>
        <pt x="11" y="193" on="1"/>
        <pt x="11" y="251" on="1"/>
        <pt x="271" y="251" on="1"/>
        <pt x="271" y="193" on="1"/>
      </contour>
    </TTGlyph>
    <TTGlyph name="i" xMin="72" yMin="0" xMax="158" yMax="679">
      <contour>
        <pt x="158" y="593" on="1"/>
        <pt x="72" y="593" on="1"/>
        <pt x="72" y="679" on="1"/>
        <pt x="158" y="679" on="1"/>
      </contour>
      <contour>
        <pt x="152" y="0" on="1"/>
        <pt x="78" y="0" on="1"/>
        <pt x="78" y="444" on="1"/>
        <pt x="152" y="444" on="1"/>
      </contour>
    </TTGlyph>
    <TTGlyph name="j" xMin="-62" yMin="-204" xMax="179" yMax="679">
      <contour>
        <pt x="179" y="593" on="1"/>
        <pt x="93" y="593" on="1"/>
        <pt x="93" y="679" on="1"/>
        <pt x="179" y="679" on="1"/>
      </contour>
      <contour>
        <pt x="-47" y="-110" on="1"/>
        <pt x="-39" y="-118" on="0"/>
        <pt x="0" y="-141" on="0"/>
        <pt x="29" y="-141" on="1"/>
        <pt x="35" y="-141" on="0"/>
        <pt x="60" y="-138" on="0"/>
        <pt x="85" y="-123" on="0"/>
        <pt x="105" y="-95" on="0"/>
        <pt x="105" y="-69" on="1"/>
        <pt x="105" y="444" on="1"/>
        <pt x="179" y="444" on="1"/>
        <pt x="179" y="-59" on="1"/>
        <pt x="179" y="-94" on="0"/>
        <pt x="158" y="-148" on="0"/>
        <pt x="124" y="-185" on="0"/>
        <pt x="80" y="-204" on="0"/>
        <pt x="56" y="-204" on="1"/>
        <pt x="21" y="-204" on="0"/>
        <pt x="-38" y="-184" on="0"/>
        <pt x="-62" y="-170" on="1"/>
      </contour>
    </TTGlyph>
    <TTGlyph name="k" xMin="78" yMin="0" xMax="458" yMax="694">
      <contour>
        <pt x="458" y="0" on="1"/>
        <pt x="376" y="0" on="1"/>
        <pt x="224" y="223" on="1"/>
        <pt x="148" y="144" on="1"/>
        <pt x="148" y="0" on="1"/>
        <pt x="78" y="0" on="1"/>
        <pt x="78" y="694" on="1"/>
        <pt x="151" y="694" on="1"/>
        <pt x="151" y="243" on="1"/>
        <pt x="344" y="444" on="1"/>
        <pt x="436" y="444" on="1"/>
        <pt x="272" y="273" on="1"/>
      </contour>
    </TTGlyph>
    <TTGlyph name="l" xMin="78" yMin="0" xMax="152" yMax="694">
      <contour>
        <pt x="152" y="0" on="1"/>
        <pt x="78" y="0" on="1"/>
        <pt x="78" y="694" on="1"/>
        <pt x="152" y="694" on="1"/>
      </contour>
    </TTGlyph>
    <TTGlyph name="m" xMin="77" yMin="0" xMax="697" yMax="454">
      <contour>
        <pt x="697" y="0" on="1"/>
        <pt x="621" y="0" on="1"/>
        <pt x="621" y="294" on="1"/>
        <pt x="621" y="308" on="0"/>
        <pt x="617" y="343" on="0"/>
        <pt x="597" y="373" on="0"/>
        <pt x="559" y="394" on="0"/>
        <pt x="524" y="394" on="1"/>
        <pt x="497" y="394" on="0"/>
        <pt x="459" y="367" on="0"/>
        <pt x="435" y="325" on="0"/>
        <pt x="425" y="274" on="0"/>
        <pt x="425" y="249" on="1"/>
        <pt x="425" y="0" on="1"/>
        <pt x="349" y="0" on="1"/>
        <pt x="349" y="294" on="1"/>
        <pt x="349" y="308" on="0"/>
        <pt x="345" y="343" on="0"/>
        <pt x="325" y="373" on="0"/>
        <pt x="287" y="394" on="0"/>
        <pt x="252" y="394" on="1"/>
        <pt x="225" y="394" on="0"/>
        <pt x="187" y="367" on="0"/>
        <pt x="163" y="325" on="0"/>
        <pt x="153" y="274" on="0"/>
        <pt x="153" y="249" on="1"/>
        <pt x="153" y="0" on="1"/>
        <pt x="77" y="0" on="1"/>
        <pt x="77" y="449" on="1"/>
        <pt x="148" y="449" on="1"/>
        <pt x="148" y="380" on="1"/>
        <pt x="154" y="388" on="0"/>
        <pt x="177" y="413" on="0"/>
        <pt x="212" y="437" on="0"/>
        <pt x="259" y="454" on="0"/>
        <pt x="290" y="454" on="1"/>
        <pt x="310" y="454" on="0"/>
        <pt x="348" y="446" on="0"/>
        <pt x="382" y="428" on="0"/>
        <pt x="408" y="397" on="0"/>
        <pt x="415" y="373" on="1"/>
        <pt x="421" y="381" on="0"/>
        <pt x="444" y="409" on="0"/>
        <pt x="480" y="435" on="0"/>
        <pt x="530" y="454" on="0"/>
        <pt x="562" y="454" on="1"/>
        <pt x="606" y="454" on="0"/>
        <pt x="659" y="426" on="0"/>
        <pt x="688" y="381" on="0"/>
        <pt x="697" y="327" on="0"/>
        <pt x="697" y="301" on="1"/>
      </contour>
    </TTGlyph>
    <TTGlyph name="macron" xMin="68" yMin="566" xMax="421" yMax="629">
      <contour>
        <pt x="68" y="566" on="1"/>
        <pt x="68" y="629" on="1"/>
        <pt x="421" y="629" on="1"/>
        <pt x="421" y="566" on="1"/>
      </contour>
    </TTGlyph>
    <TTGlyph name="n" xMin="77" yMin="0" xMax="424" yMax="454">
      <contour>
        <pt x="424" y="0" on="1"/>
        <pt x="348" y="0" on="1"/>
        <pt x="348" y="294" on="1"/>
        <pt x="348" y="307" on="0"/>
        <pt x="344" y="342" on="0"/>
        <pt x="326" y="373" on="0"/>
        <pt x="287" y="394" on="0"/>
        <pt x="252" y="394" on="1"/>
        <pt x="224" y="394" on="0"/>
        <pt x="185" y="366" on="0"/>
        <pt x="163" y="323" on="0"/>
        <pt x="153" y="272" on="0"/>
        <pt x="153" y="249" on="1"/>
        <pt x="153" y="0" on="1"/>
        <pt x="77" y="0" on="1"/>
        <pt x="77" y="449" on="1"/>
        <pt x="148" y="449" on="1"/>
        <pt x="148" y="381" on="1"/>
        <pt x="206" y="454" on="0"/>
        <pt x="290" y="454" on="1"/>
        <pt x="335" y="454" on="0"/>
        <pt x="389" y="423" on="0"/>
        <pt x="416" y="377" on="0"/>
        <pt x="424" y="324" on="0"/>
        <pt x="424" y="301" on="1"/>
      </contour>
    </TTGlyph>
    <TTGlyph name="nine" xMin="42" yMin="-21" xMax="447" yMax="676">
      <contour>
        <pt x="102" y="78" on="1"/>
        <pt x="122" y="58" on="0"/>
        <pt x="170" y="39" on="0"/>
        <pt x="201" y="39" on="1"/>
        <pt x="236" y="39" on="0"/>
        <pt x="293" y="74" on="0"/>
        <pt x="337" y="138" on="0"/>
        <pt x="363" y="226" on="0"/>
        <pt x="366" y="278" on="1"/>
        <pt x="337" y="243" on="0"/>
        <pt x="254" y="196" on="0"/>
        <pt x="199" y="196" on="1"/>
        <pt x="165" y="196" on="0"/>
        <pt x="107" y="234" on="0"/>
        <pt x="65" y="299" on="0"/>
        <pt x="42" y="386" on="0"/>
        <pt x="42" y="434" on="1"/>
        <pt x="42" y="477" on="0"/>
        <pt x="63" y="558" on="0"/>
        <pt x="99" y="601" on="1"/>
        <pt x="125" y="633" on="0"/>
        <pt x="194" y="676" on="0"/>
        <pt x="248" y="676" on="1"/>
        <pt x="281" y="676" on="0"/>
        <pt x="351" y="646" on="0"/>
        <pt x="410" y="569" on="0"/>
        <pt x="447" y="437" on="0"/>
        <pt x="447" y="335" on="1"/>
        <pt x="447" y="253" on="0"/>
        <pt x="406" y="121" on="0"/>
        <pt x="337" y="29" on="0"/>
        <pt x="249" y="-21" on="0"/>
        <pt x="201" y="-21" on="1"/>
        <pt x="168" y="-21" on="0"/>
        <pt x="105" y="-1" on="0"/>
        <pt x="71" y="25" on="1"/>
      </contour>
      <contour>
        <pt x="363" y="435" on="1"/>
        <pt x="362" y="453" on="0"/>
        <pt x="353" y="515" on="0"/>
        <pt x="328" y="575" on="0"/>
        <pt x="284" y="619" on="0"/>
        <pt x="248" y="619" on="1"/>
        <pt x="228" y="619" on="0"/>
        <pt x="197" y="608" on="0"/>
        <pt x="174" y="592" on="0"/>
        <pt x="158" y="573" on="0"/>
        <pt x="152" y="565" on="1"/>
        <pt x="129" y="531" on="0"/>
        <pt x="121" y="467" on="0"/>
        <pt x="121" y="434" on="1"/>
        <pt x="121" y="394" on="0"/>
        <pt x="130" y="342" on="0"/>
        <pt x="144" y="315" on="1"/>
        <pt x="156" y="293" on="0"/>
        <pt x="184" y="269" on="0"/>
        <pt x="210" y="258" on="0"/>
        <pt x="232" y="256" on="0"/>
        <pt x="238" y="256" on="1"/>
        <pt x="269" y="256" on="0"/>
        <pt x="316" y="283" on="0"/>
        <pt x="348" y="327" on="0"/>
        <pt x="364" y="383" on="0"/>
        <pt x="364" y="411" on="1"/>
        <pt x="364" y="416" on="0"/>
        <pt x="364" y="430" on="0"/>
      </contour>
    </TTGlyph>
    <TTGlyph name="numbersign" xMin="54" yMin="-194" xMax="761" yMax="694">
      <contour>
        <pt x="428" y="-171" on="1"/>
        <pt x="426" y="-179" on="0"/>
        <pt x="419" y="-194" on="0"/>
        <pt x="408" y="-194" on="1"/>
        <pt x="389" y="-194" on="0"/>
        <pt x="389" y="-175" on="1"/>
        <pt x="389" y="-174" on="0"/>
        <pt x="390" y="-168" on="0"/>
        <pt x="393" y="-157" on="1"/>
        <pt x="470" y="135" on="1"/>
        <pt x="283" y="135" on="1"/>
        <pt x="202" y="-171" on="1"/>
        <pt x="200" y="-179" on="0"/>
        <pt x="193" y="-194" on="0"/>
        <pt x="182" y="-194" on="1"/>
        <pt x="163" y="-194" on="0"/>
        <pt x="163" y="-175" on="1"/>
        <pt x="163" y="-174" on="0"/>
        <pt x="164" y="-168" on="0"/>
        <pt x="167" y="-157" on="1"/>
        <pt x="244" y="135" on="1"/>
        <pt x="86" y="135" on="1"/>
        <pt x="75" y="135" on="0"/>
        <pt x="54" y="140" on="0"/>
        <pt x="54" y="154" on="1"/>
        <pt x="54" y="168" on="0"/>
        <pt x="75" y="172" on="0"/>
        <pt x="86" y="172" on="1"/>
        <pt x="255" y="172" on="1"/>
        <pt x="296" y="327" on="1"/>
        <pt x="86" y="327" on="1"/>
        <pt x="75" y="327" on="0"/>
        <pt x="54" y="332" on="0"/>
        <pt x="54" y="346" on="1"/>
        <pt x="54" y="360" on="0"/>
        <pt x="75" y="364" on="0"/>
        <pt x="86" y="364" on="1"/>
        <pt x="306" y="364" on="1"/>
        <pt x="387" y="671" on="1"/>
        <pt x="389" y="679" on="0"/>
        <pt x="396" y="694" on="0"/>
        <pt x="407" y="694" on="1"/>
        <pt x="426" y="694" on="0"/>
        <pt x="426" y="675" on="1"/>
        <pt x="426" y="674" on="0"/>
        <pt x="425" y="668" on="0"/>
        <pt x="422" y="657" on="1"/>
        <pt x="345" y="364" on="1"/>
        <pt x="532" y="364" on="1"/>
        <pt x="613" y="671" on="1"/>
        <pt x="615" y="679" on="0"/>
        <pt x="622" y="694" on="0"/>
        <pt x="633" y="694" on="1"/>
        <pt x="652" y="694" on="0"/>
        <pt x="652" y="675" on="1"/>
        <pt x="652" y="674" on="0"/>
        <pt x="651" y="668" on="0"/>
        <pt x="648" y="657" on="1"/>
        <pt x="571" y="364" on="1"/>
        <pt x="729" y="364" on="1"/>
        <pt x="740" y="364" on="0"/>
        <pt x="761" y="359" on="0"/>
        <pt x="761" y="345" on="1"/>
        <pt x="761" y="331" on="0"/>
        <pt x="740" y="327" on="0"/>
        <pt x="729" y="327" on="1"/>
        <pt x="560" y="327" on="1"/>
        <pt x="519" y="172" on="1"/>
        <pt x="729" y="172" on="1"/>
        <pt x="740" y="172" on="0"/>
        <pt x="761" y="167" on="0"/>
        <pt x="761" y="153" on="1"/>
        <pt x="761" y="139" on="0"/>
        <pt x="740" y="135" on="0"/>
        <pt x="729" y="135" on="1"/>
        <pt x="509" y="135" on="1"/>
      </contour>
      <contour>
        <pt x="481" y="172" on="1"/>
        <pt x="522" y="327" on="1"/>
        <pt x="334" y="327" on="1"/>
        <pt x="293" y="172" on="1"/>
      </contour>
    </TTGlyph>
    <TTGlyph name="o" xMin="30" yMin="-10" xMax="459" yMax="459">
      <contour>
        <pt x="459" y="220" on="1"/>
        <pt x="459" y="172" on="0"/>
        <pt x="425" y="88" on="0"/>
        <pt x="367" y="26" on="0"/>
        <pt x="288" y="-10" on="0"/>
        <pt x="244" y="-10" on="1"/>
        <pt x="201" y="-10" on="0"/>
        <pt x="124" y="25" on="0"/>
        <pt x="65" y="87" on="0"/>
        <pt x="30" y="171" on="0"/>
        <pt x="30" y="220" on="1"/>
        <pt x="30" y="270" on="0"/>
        <pt x="64" y="357" on="0"/>
        <pt x="123" y="422" on="0"/>
        <pt x="201" y="459" on="0"/>
        <pt x="245" y="459" on="1"/>
        <pt x="288" y="459" on="0"/>
        <pt x="366" y="422" on="0"/>
        <pt x="424" y="358" on="0"/>
        <pt x="459" y="271" on="0"/>
      </contour>
      <contour>
        <pt x="245" y="52" on="1"/>
        <pt x="270" y="52" on="0"/>
        <pt x="320" y="73" on="0"/>
        <pt x="359" y="117" on="0"/>
        <pt x="383" y="184" on="0"/>
        <pt x="383" y="230" on="1"/>
        <pt x="383" y="274" on="0"/>
        <pt x="359" y="338" on="0"/>
        <pt x="320" y="379" on="0"/>
        <pt x="270" y="399" on="0"/>
        <pt x="244" y="399" on="1"/>
        <pt x="220" y="399" on="0"/>
        <pt x="171" y="380" on="0"/>
        <pt x="131" y="340" on="0"/>
        <pt x="106" y="275" on="0"/>
        <pt x="106" y="230" on="1"/>
        <pt x="106" y="186" on="0"/>
        <pt x="129" y="119" on="0"/>
        <pt x="168" y="74" on="0"/>
        <pt x="218" y="52" on="0"/>
      </contour>
    </TTGlyph>
    <TTGlyph name="oe" xMin="30" yMin="-10" xMax="734" yMax="459">
      <contour>
        <pt x="446" y="225" on="1"/>
        <pt x="447" y="183" on="0"/>
        <pt x="471" y="118" on="0"/>
        <pt x="511" y="73" on="0"/>
        <pt x="561" y="50" on="0"/>
        <pt x="587" y="50" on="1"/>
        <pt x="616" y="50" on="0"/>
        <pt x="689" y="75" on="0"/>
        <pt x="722" y="107" on="1"/>
        <pt x="722" y="104" on="0"/>
        <pt x="724" y="81" on="0"/>
        <pt x="725" y="80" on="1"/>
        <pt x="725" y="76" on="0"/>
        <pt x="728" y="51" on="0"/>
        <pt x="728" y="47" on="1"/>
        <pt x="728" y="44" on="0"/>
        <pt x="706" y="25" on="0"/>
        <pt x="667" y="5" on="0"/>
        <pt x="616" y="-10" on="0"/>
        <pt x="586" y="-10" on="1"/>
        <pt x="539" y="-10" on="0"/>
        <pt x="443" y="37" on="0"/>
        <pt x="409" y="91" on="1"/>
        <pt x="389" y="60" on="0"/>
        <pt x="343" y="21" on="0"/>
        <pt x="297" y="-2" on="0"/>
        <pt x="254" y="-10" on="0"/>
        <pt x="237" y="-10" on="1"/>
        <pt x="196" y="-10" on="0"/>
        <pt x="121" y="26" on="0"/>
        <pt x="64" y="89" on="0"/>
        <pt x="30" y="175" on="0"/>
        <pt x="30" y="225" on="1"/>
        <pt x="30" y="274" on="0"/>
        <pt x="63" y="360" on="0"/>
        <pt x="120" y="423" on="0"/>
        <pt x="195" y="459" on="0"/>
        <pt x="237" y="459" on="1"/>
        <pt x="248" y="459" on="0"/>
        <pt x="286" y="454" on="0"/>
        <pt x="333" y="435" on="0"/>
        <pt x="383" y="396" on="0"/>
        <pt x="407" y="361" on="1"/>
        <pt x="439" y="412" on="0"/>
        <pt x="527" y="459" on="0"/>
        <pt x="571" y="459" on="1"/>
        <pt x="612" y="459" on="0"/>
        <pt x="667" y="429" on="0"/>
        <pt x="703" y="383" on="0"/>
        <pt x="723" y="328" on="0"/>
        <pt x="732" y="276" on="0"/>
        <pt x="734" y="234" on="0"/>
        <pt x="734" y="225" on="1"/>
      </contour>
      <contour>
        <pt x="674" y="279" on="1"/>
        <pt x="665" y="342" on="0"/>
        <pt x="607" y="399" on="0"/>
        <pt x="571" y="399" on="1"/>
        <pt x="552" y="399" on="0"/>
        <pt x="515" y="382" on="0"/>
        <pt x="483" y="351" on="0"/>
        <pt x="459" y="307" on="0"/>
        <pt x="452" y="279" on="1"/>
      </contour>
      <contour>
        <pt x="236" y="50" on="1"/>
        <pt x="262" y="50" on="0"/>
        <pt x="310" y="73" on="0"/>
        <pt x="348" y="118" on="0"/>
        <pt x="370" y="185" on="0"/>
        <pt x="370" y="230" on="1"/>
        <pt x="370" y="275" on="0"/>
        <pt x="346" y="339" on="0"/>
        <pt x="308" y="380" on="0"/>
        <pt x="260" y="399" on="0"/>
        <pt x="237" y="399" on="1"/>
        <pt x="212" y="399" on="0"/>
        <pt x="164" y="379" on="0"/>
        <pt x="125" y="338" on="0"/>
        <pt x="101" y="274" on="0"/>
        <pt x="101" y="230" on="1"/>
        <pt x="101" y="184" on="0"/>
        <pt x="125" y="116" on="0"/>
        <pt x="163" y="72" on="0"/>
        <pt x="211" y="50" on="0"/>
      </contour>
    </TTGlyph>
    <TTGlyph name="one" xMin="88" yMin="0" xMax="416" yMax="676">
      <contour>
        <pt x="294" y="58" on="1"/>
        <pt x="416" y="58" on="1"/>
        <pt x="416" y="0" on="1"/>
        <pt x="94" y="0" on="1"/>
        <pt x="94" y="58" on="1"/>
        <pt x="216" y="58" on="1"/>
        <pt x="216" y="576" on="1"/>
        <pt x="200" y="569" on="0"/>
        <pt x="134" y="552" on="0"/>
        <pt x="88" y="552" on="1"/>
        <pt x="88" y="592" on="1"/>
        <pt x="88" y="606" on="0"/>
        <pt x="92" y="611" on="0"/>
        <pt x="103" y="611" on="1"/>
        <pt x="144" y="612" on="0"/>
        <pt x="203" y="628" on="0"/>
        <pt x="244" y="649" on="0"/>
        <pt x="269" y="670" on="0"/>
        <pt x="275" y="676" on="1"/>
        <pt x="294" y="676" on="1"/>
      </contour>
    </TTGlyph>
    <TTGlyph name="oslash" xMin="30" yMin="-112" xMax="459" yMax="557">
      <contour>
        <pt x="380" y="405" on="1"/>
        <pt x="420" y="369" on="0"/>
        <pt x="459" y="271" on="0"/>
        <pt x="459" y="220" on="1"/>
        <pt x="459" y="172" on="0"/>
        <pt x="425" y="88" on="0"/>
        <pt x="367" y="26" on="0"/>
        <pt x="288" y="-10" on="0"/>
        <pt x="244" y="-10" on="1"/>
        <pt x="228" y="-10" on="0"/>
        <pt x="186" y="-3" on="0"/>
        <pt x="160" y="8" on="1"/>
        <pt x="94" y="-112" on="1"/>
        <pt x="41" y="-82" on="1"/>
        <pt x="109" y="41" on="1"/>
        <pt x="107" y="43" on="0"/>
        <pt x="82" y="68" on="0"/>
        <pt x="53" y="113" on="0"/>
        <pt x="30" y="178" on="0"/>
        <pt x="30" y="220" on="1"/>
        <pt x="30" y="270" on="0"/>
        <pt x="64" y="357" on="0"/>
        <pt x="123" y="422" on="0"/>
        <pt x="201" y="459" on="0"/>
        <pt x="245" y="459" on="1"/>
        <pt x="262" y="459" on="0"/>
        <pt x="305" y="451" on="0"/>
        <pt x="330" y="439" on="1"/>
        <pt x="395" y="557" on="1"/>
        <pt x="448" y="527" on="1"/>
      </contour>
      <contour>
        <pt x="301" y="386" on="1"/>
        <pt x="276" y="399" on="0"/>
        <pt x="245" y="399" on="1"/>
        <pt x="219" y="399" on="0"/>
        <pt x="168" y="377" on="0"/>
        <pt x="129" y="333" on="0"/>
        <pt x="105" y="265" on="0"/>
        <pt x="105" y="220" on="1"/>
        <pt x="105" y="212" on="0"/>
        <pt x="107" y="184" on="0"/>
        <pt x="114" y="151" on="0"/>
        <pt x="129" y="116" on="0"/>
        <pt x="142" y="100" on="1"/>
      </contour>
      <contour>
        <pt x="190" y="62" on="1"/>
        <pt x="216" y="50" on="0"/>
        <pt x="245" y="50" on="1"/>
        <pt x="269" y="50" on="0"/>
        <pt x="319" y="69" on="0"/>
        <pt x="359" y="111" on="0"/>
        <pt x="384" y="175" on="0"/>
        <pt x="384" y="220" on="1"/>
        <pt x="384" y="252" on="0"/>
        <pt x="368" y="319" on="0"/>
        <pt x="348" y="346" on="1"/>
      </contour>
    </TTGlyph>
    <TTGlyph name="p" xMin="78" yMin="-194" xMax="466" yMax="454">
      <contour>
        <pt x="154" y="-194" on="1"/>
        <pt x="78" y="-194" on="1"/>
        <pt x="78" y="444" on="1"/>
        <pt x="152" y="444" on="1"/>
        <pt x="152" y="397" on="1"/>
        <pt x="191" y="430" on="0"/>
        <pt x="278" y="454" on="0"/>
        <pt x="309" y="454" on="1"/>
        <pt x="344" y="454" on="0"/>
        <pt x="402" y="416" on="0"/>
        <pt x="443" y="352" on="0"/>
        <pt x="466" y="268" on="0"/>
        <pt x="466" y="223" on="1"/>
        <pt x="466" y="172" on="0"/>
        <pt x="436" y="86" on="0"/>
        <pt x="386" y="25" on="0"/>
        <pt x="320" y="-10" on="0"/>
        <pt x="284" y="-10" on="1"/>
        <pt x="243" y="-10" on="0"/>
        <pt x="180" y="22" on="0"/>
        <pt x="154" y="45" on="1"/>
      </contour>
      <contour>
        <pt x="154" y="130" on="1"/>
        <pt x="154" y="118" on="0"/>
        <pt x="163" y="91" on="0"/>
        <pt x="182" y="74" on="1"/>
        <pt x="196" y="63" on="0"/>
        <pt x="226" y="50" on="0"/>
        <pt x="247" y="50" on="1"/>
        <pt x="275" y="50" on="0"/>
        <pt x="326" y="76" on="0"/>
        <pt x="366" y="121" on="0"/>
        <pt x="390" y="185" on="0"/>
        <pt x="390" y="222" on="1"/>
        <pt x="390" y="258" on="0"/>
        <pt x="369" y="320" on="0"/>
        <pt x="333" y="366" on="0"/>
        <pt x="284" y="392" on="0"/>
        <pt x="256" y="392" on="1"/>
        <pt x="225" y="392" on="0"/>
        <pt x="171" y="362" on="0"/>
        <pt x="154" y="336" on="1"/>
      </contour>
    </TTGlyph>
    <TTGlyph name="parenleft" xMin="78" yMin="-251" xMax="326" yMax="750">
      <contour>
        <pt x="326" y="750" on="1"/>
        <pt x="301" y="727" on="0"/>
        <pt x="241" y="647" on="0"/>
        <pt x="189" y="526" on="0"/>
        <pt x="154" y="360" on="0"/>
        <pt x="154" y="249" on="1"/>
        <pt x="154" y="184" on="0"/>
        <pt x="170" y="46" on="0"/>
        <pt x="210" y="-86" on="0"/>
        <pt x="276" y="-205" on="0"/>
        <pt x="326" y="-251" on="1"/>
        <pt x="266" y="-251" on="1"/>
        <pt x="212" y="-203" on="0"/>
        <pt x="139" y="-83" on="0"/>
        <pt x="96" y="47" on="0"/>
        <pt x="78" y="184" on="0"/>
        <pt x="78" y="250" on="1"/>
        <pt x="78" y="311" on="0"/>
        <pt x="95" y="445" on="0"/>
        <pt x="137" y="577" on="0"/>
        <pt x="210" y="700" on="0"/>
        <pt x="266" y="750" on="1"/>
      </contour>
    </TTGlyph>
    <TTGlyph name="parenright" xMin="54" yMin="-251" xMax="302" yMax="750">
      <contour>
        <pt x="54" y="-251" on="1"/>
        <pt x="79" y="-228" on="0"/>
        <pt x="139" y="-148" on="0"/>
        <pt x="191" y="-27" on="0"/>
        <pt x="226" y="139" on="0"/>
        <pt x="226" y="250" on="1"/>
        <pt x="226" y="315" on="0"/>
        <pt x="210" y="453" on="0"/>
        <pt x="170" y="585" on="0"/>
        <pt x="104" y="704" on="0"/>
        <pt x="54" y="750" on="1"/>
        <pt x="114" y="750" on="1"/>
        <pt x="168" y="702" on="0"/>
        <pt x="241" y="582" on="0"/>
        <pt x="284" y="452" on="0"/>
        <pt x="302" y="315" on="0"/>
        <pt x="302" y="249" on="1"/>
        <pt x="302" y="188" on="0"/>
        <pt x="285" y="54" on="0"/>
        <pt x="243" y="-78" on="0"/>
        <pt x="170" y="-201" on="0"/>
        <pt x="114" y="-251" on="1"/>
      </contour>
    </TTGlyph>
    <TTGlyph name="percent" xMin="54" yMin="-56" xMax="761" yMax="750">
      <contour>
        <pt x="212" y="-39" on="1"/>
        <pt x="208" y="-46" on="0"/>
        <pt x="200" y="-56" on="0"/>
        <pt x="192" y="-56" on="1"/>
        <pt x="184" y="-56" on="0"/>
        <pt x="173" y="-45" on="0"/>
        <pt x="173" y="-37" on="1"/>
        <pt x="173" y="-36" on="0"/>
        <pt x="175" y="-28" on="0"/>
        <pt x="180" y="-19" on="1"/>
        <pt x="605" y="732" on="1"/>
        <pt x="613" y="746" on="0"/>
        <pt x="623" y="750" on="0"/>
        <pt x="627" y="750" on="1"/>
        <pt x="633" y="750" on="0"/>
        <pt x="645" y="741" on="0"/>
        <pt x="645" y="731" on="1"/>
        <pt x="645" y="730" on="0"/>
        <pt x="643" y="722" on="0"/>
        <pt x="638" y="713" on="1"/>
      </contour>
      <contour>
        <pt x="761" y="145" on="1"/>
        <pt x="761" y="102" on="0"/>
        <pt x="739" y="28" on="0"/>
        <pt x="702" y="-26" on="0"/>
        <pt x="653" y="-56" on="0"/>
        <pt x="626" y="-56" on="1"/>
        <pt x="600" y="-56" on="0"/>
        <pt x="551" y="-27" on="0"/>
        <pt x="512" y="26" on="0"/>
        <pt x="489" y="101" on="0"/>
        <pt x="489" y="146" on="1"/>
        <pt x="489" y="190" on="0"/>
        <pt x="512" y="264" on="0"/>
        <pt x="550" y="317" on="0"/>
        <pt x="600" y="347" on="0"/>
        <pt x="626" y="347" on="1"/>
        <pt x="652" y="347" on="0"/>
        <pt x="701" y="317" on="0"/>
        <pt x="739" y="264" on="0"/>
        <pt x="761" y="190" on="0"/>
      </contour>
      <contour>
        <pt x="626" y="4" on="1"/>
        <pt x="640" y="4" on="0"/>
        <pt x="664" y="27" on="0"/>
        <pt x="681" y="66" on="0"/>
        <pt x="691" y="118" on="0"/>
        <pt x="691" y="146" on="1"/>
        <pt x="691" y="173" on="0"/>
        <pt x="682" y="224" on="0"/>
        <pt x="665" y="263" on="0"/>
        <pt x="641" y="287" on="0"/>
        <pt x="626" y="287" on="1"/>
        <pt x="619" y="287" on="0"/>
        <pt x="598" y="279" on="0"/>
        <pt x="578" y="250" on="0"/>
        <pt x="564" y="193" on="0"/>
        <pt x="564" y="145" on="1"/>
        <pt x="564" y="99" on="0"/>
        <pt x="578" y="43" on="0"/>
        <pt x="597" y="13" on="0"/>
        <pt x="619" y="4" on="0"/>
      </contour>
      <contour>
        <pt x="326" y="548" on="1"/>
        <pt x="326" y="505" on="0"/>
        <pt x="304" y="431" on="0"/>
        <pt x="267" y="377" on="0"/>
        <pt x="218" y="347" on="0"/>
        <pt x="191" y="347" on="1"/>
        <pt x="165" y="347" on="0"/>
        <pt x="116" y="376" on="0"/>
        <pt x="77" y="429" on="0"/>
        <pt x="54" y="504" on="0"/>
        <pt x="54" y="549" on="1"/>
        <pt x="54" y="593" on="0"/>
        <pt x="77" y="667" on="0"/>
        <pt x="115" y="720" on="0"/>
        <pt x="165" y="750" on="0"/>
        <pt x="191" y="750" on="1"/>
        <pt x="217" y="750" on="0"/>
        <pt x="266" y="720" on="0"/>
        <pt x="304" y="667" on="0"/>
        <pt x="326" y="593" on="0"/>
      </contour>
      <contour>
        <pt x="191" y="407" on="1"/>
        <pt x="205" y="407" on="0"/>
        <pt x="229" y="430" on="0"/>
        <pt x="246" y="469" on="0"/>
        <pt x="256" y="521" on="0"/>
        <pt x="256" y="549" on="1"/>
        <pt x="256" y="576" on="0"/>
        <pt x="247" y="627" on="0"/>
        <pt x="230" y="666" on="0"/>
        <pt x="206" y="690" on="0"/>
        <pt x="191" y="690" on="1"/>
        <pt x="184" y="690" on="0"/>
        <pt x="163" y="682" on="0"/>
        <pt x="143" y="653" on="0"/>
        <pt x="129" y="596" on="0"/>
        <pt x="129" y="548" on="1"/>
        <pt x="129" y="502" on="0"/>
        <pt x="143" y="446" on="0"/>
        <pt x="162" y="416" on="0"/>
        <pt x="184" y="407" on="0"/>
      </contour>
    </TTGlyph>
    <TTGlyph name="period" xMin="95" yMin="0" xMax="176" yMax="81">
      <contour>
        <pt x="176" y="0" on="1"/>
        <pt x="95" y="0" on="1"/>
        <pt x="95" y="81" on="1"/>
        <pt x="176" y="81" on="1"/>
      </contour>
    </TTGlyph>
    <TTGlyph name="plus" xMin="54" yMin="-77" xMax="707" yMax="576">
      <contour>
        <pt x="399" y="-45" on="1"/>
        <pt x="399" y="-56" on="0"/>
        <pt x="394" y="-77" on="0"/>
        <pt x="380" y="-77" on="1"/>
        <pt x="366" y="-77" on="0"/>
        <pt x="362" y="-56" on="0"/>
        <pt x="362" y="-45" on="1"/>
        <pt x="362" y="231" on="1"/>
        <pt x="86" y="231" on="1"/>
        <pt x="75" y="231" on="0"/>
        <pt x="54" y="236" on="0"/>
        <pt x="54" y="250" on="1"/>
        <pt x="54" y="264" on="0"/>
        <pt x="75" y="268" on="0"/>
        <pt x="86" y="268" on="1"/>
        <pt x="362" y="268" on="1"/>
        <pt x="362" y="544" on="1"/>
        <pt x="362" y="555" on="0"/>
        <pt x="367" y="576" on="0"/>
        <pt x="381" y="576" on="1"/>
        <pt x="395" y="576" on="0"/>
        <pt x="399" y="555" on="0"/>
        <pt x="399" y="544" on="1"/>
        <pt x="399" y="268" on="1"/>
        <pt x="675" y="268" on="1"/>
        <pt x="686" y="268" on="0"/>
        <pt x="707" y="263" on="0"/>
        <pt x="707" y="249" on="1"/>
        <pt x="707" y="235" on="0"/>
        <pt x="686" y="231" on="0"/>
        <pt x="675" y="231" on="1"/>
        <pt x="399" y="231" on="1"/>
      </contour>
    </TTGlyph>
    <TTGlyph name="q" xMin="35" yMin="-194" xMax="423" yMax="454">
      <contour>
        <pt x="423" y="-194" on="1"/>
        <pt x="347" y="-194" on="1"/>
        <pt x="347" y="51" on="1"/>
        <pt x="342" y="45" on="0"/>
        <pt x="317" y="25" on="0"/>
        <pt x="280" y="5" on="0"/>
        <pt x="232" y="-10" on="0"/>
        <pt x="203" y="-10" on="1"/>
        <pt x="168" y="-10" on="0"/>
        <pt x="106" y="26" on="0"/>
        <pt x="61" y="89" on="0"/>
        <pt x="35" y="173" on="0"/>
        <pt x="35" y="221" on="1"/>
        <pt x="35" y="271" on="0"/>
        <pt x="65" y="357" on="0"/>
        <pt x="115" y="419" on="0"/>
        <pt x="181" y="454" on="0"/>
        <pt x="218" y="454" on="1"/>
        <pt x="264" y="454" on="0"/>
        <pt x="329" y="413" on="0"/>
        <pt x="349" y="390" on="1"/>
        <pt x="349" y="454" on="1"/>
        <pt x="423" y="454" on="1"/>
      </contour>
      <contour>
        <pt x="349" y="287" on="1"/>
        <pt x="349" y="302" on="0"/>
        <pt x="337" y="339" on="0"/>
        <pt x="314" y="370" on="0"/>
        <pt x="278" y="392" on="0"/>
        <pt x="254" y="392" on="1"/>
        <pt x="227" y="392" on="0"/>
        <pt x="176" y="368" on="0"/>
        <pt x="136" y="323" on="0"/>
        <pt x="111" y="260" on="0"/>
        <pt x="111" y="221" on="1"/>
        <pt x="111" y="186" on="0"/>
        <pt x="132" y="124" on="0"/>
        <pt x="168" y="77" on="0"/>
        <pt x="217" y="50" on="0"/>
        <pt x="245" y="50" on="1"/>
        <pt x="267" y="50" on="0"/>
        <pt x="318" y="73" on="0"/>
        <pt x="338" y="104" on="1"/>
        <pt x="346" y="115" on="0"/>
        <pt x="349" y="125" on="0"/>
        <pt x="349" y="139" on="1"/>
      </contour>
    </TTGlyph>
    <TTGlyph name="question" xMin="54" yMin="0" xMax="407" yMax="704">
      <contour>
        <pt x="249" y="173" on="1"/>
        <pt x="184" y="173" on="1"/>
        <pt x="184" y="224" on="1"/>
        <pt x="184" y="266" on="0"/>
        <pt x="202" y="340" on="0"/>
        <pt x="233" y="403" on="0"/>
        <pt x="272" y="454" on="0"/>
        <pt x="293" y="472" on="1"/>
        <pt x="306" y="483" on="0"/>
        <pt x="331" y="516" on="0"/>
        <pt x="331" y="550" on="1"/>
        <pt x="331" y="580" on="0"/>
        <pt x="311" y="617" on="0"/>
        <pt x="279" y="637" on="0"/>
        <pt x="239" y="644" on="0"/>
        <pt x="219" y="644" on="1"/>
        <pt x="207" y="644" on="0"/>
        <pt x="176" y="641" on="0"/>
        <pt x="138" y="630" on="0"/>
        <pt x="97" y="608" on="0"/>
        <pt x="76" y="589" on="1"/>
        <pt x="54" y="651" on="1"/>
        <pt x="77" y="668" on="0"/>
        <pt x="159" y="704" on="0"/>
        <pt x="218" y="704" on="1"/>
        <pt x="271" y="704" on="0"/>
        <pt x="344" y="677" on="0"/>
        <pt x="388" y="634" on="0"/>
        <pt x="407" y="578" on="0"/>
        <pt x="407" y="549" on="1"/>
        <pt x="407" y="523" on="0"/>
        <pt x="395" y="484" on="0"/>
        <pt x="379" y="456" on="0"/>
        <pt x="360" y="436" on="0"/>
        <pt x="352" y="430" on="1"/>
        <pt x="338" y="418" on="0"/>
        <pt x="302" y="380" on="0"/>
        <pt x="271" y="328" on="0"/>
        <pt x="249" y="261" on="0"/>
        <pt x="249" y="221" on="1"/>
      </contour>
      <contour>
        <pt x="176" y="81" on="1"/>
        <pt x="257" y="81" on="1"/>
        <pt x="257" y="0" on="1"/>
        <pt x="176" y="0" on="1"/>
      </contour>
    </TTGlyph>
    <TTGlyph name="questiondown" xMin="54" yMin="-204" xMax="407" yMax="500">
      <contour>
        <pt x="257" y="419" on="1"/>
        <pt x="176" y="419" on="1"/>
        <pt x="176" y="500" on="1"/>
        <pt x="257" y="500" on="1"/>
      </contour>
      <contour>
        <pt x="407" y="-151" on="1"/>
        <pt x="378" y="-168" on="0"/>
        <pt x="281" y="-204" on="0"/>
        <pt x="218" y="-204" on="1"/>
        <pt x="173" y="-204" on="0"/>
        <pt x="111" y="-179" on="0"/>
        <pt x="72" y="-136" on="0"/>
        <pt x="54" y="-80" on="0"/>
        <pt x="54" y="-49" on="1"/>
        <pt x="54" y="-3" on="0"/>
        <pt x="81" y="50" on="0"/>
        <pt x="97" y="65" on="1"/>
        <pt x="139" y="108" on="0"/>
        <pt x="184" y="217" on="0"/>
        <pt x="184" y="277" on="1"/>
        <pt x="184" y="327" on="1"/>
        <pt x="249" y="327" on="1"/>
        <pt x="249" y="274" on="1"/>
        <pt x="249" y="205" on="0"/>
        <pt x="202" y="79" on="0"/>
        <pt x="157" y="27" on="1"/>
        <pt x="147" y="15" on="0"/>
        <pt x="130" y="-17" on="0"/>
        <pt x="130" y="-51" on="1"/>
        <pt x="130" y="-96" on="0"/>
        <pt x="167" y="-144" on="0"/>
        <pt x="218" y="-144" on="1"/>
        <pt x="247" y="-144" on="0"/>
        <pt x="335" y="-124" on="0"/>
        <pt x="385" y="-89" on="1"/>
      </contour>
    </TTGlyph>
    <TTGlyph name="quotedblleft" xMin="185" yMin="488" xMax="456" yMax="694">
      <contour>
        <pt x="241" y="569" on="1"/>
        <pt x="266" y="569" on="1"/>
        <pt x="266" y="488" on="1"/>
        <pt x="185" y="488" on="1"/>
        <pt x="185" y="568" on="1"/>
        <pt x="226" y="694" on="1"/>
        <pt x="266" y="694" on="1"/>
      </contour>
      <contour>
        <pt x="431" y="569" on="1"/>
        <pt x="456" y="569" on="1"/>
        <pt x="456" y="488" on="1"/>
        <pt x="375" y="488" on="1"/>
        <pt x="375" y="568" on="1"/>
        <pt x="416" y="694" on="1"/>
        <pt x="456" y="694" on="1"/>
      </contour>
    </TTGlyph>
    <TTGlyph name="quotedblright" xMin="33" yMin="488" xMax="304" yMax="694">
      <contour>
        <pt x="73" y="488" on="1"/>
        <pt x="33" y="488" on="1"/>
        <pt x="58" y="613" on="1"/>
        <pt x="33" y="613" on="1"/>
        <pt x="33" y="694" on="1"/>
        <pt x="114" y="694" on="1"/>
        <pt x="114" y="614" on="1"/>
      </contour>
      <contour>
        <pt x="263" y="488" on="1"/>
        <pt x="223" y="488" on="1"/>
        <pt x="248" y="613" on="1"/>
        <pt x="223" y="613" on="1"/>
        <pt x="223" y="694" on="1"/>
        <pt x="304" y="694" on="1"/>
        <pt x="304" y="614" on="1"/>
      </contour>
    </TTGlyph>
    <TTGlyph name="quoteleft" xMin="95" yMin="488" xMax="176" yMax="694">
      <contour>
        <pt x="151" y="569" on="1"/>
        <pt x="176" y="569" on="1"/>
        <pt x="176" y="488" on="1"/>
        <pt x="95" y="488" on="1"/>
        <pt x="95" y="568" on="1"/>
        <pt x="136" y="694" on="1"/>
        <pt x="176" y="694" on="1"/>
      </contour>
    </TTGlyph>
    <TTGlyph name="quoteright" xMin="95" yMin="488" xMax="176" yMax="694">
      <contour>
        <pt x="135" y="488" on="1"/>
        <pt x="95" y="488" on="1"/>
        <pt x="120" y="613" on="1"/>
        <pt x="95" y="613" on="1"/>
        <pt x="95" y="694" on="1"/>
        <pt x="176" y="694" on="1"/>
        <pt x="176" y="614" on="1"/>
      </contour>
    </TTGlyph>
    <TTGlyph name="r" xMin="78" yMin="0" xMax="318" yMax="454">
      <contour>
        <pt x="152" y="0" on="1"/>
        <pt x="78" y="0" on="1"/>
        <pt x="78" y="449" on="1"/>
        <pt x="147" y="449" on="1"/>
        <pt x="147" y="361" on="1"/>
        <pt x="157" y="376" on="0"/>
        <pt x="188" y="408" on="0"/>
        <pt x="230" y="435" on="0"/>
        <pt x="284" y="454" on="0"/>
        <pt x="318" y="454" on="1"/>
        <pt x="318" y="387" on="1"/>
        <pt x="284" y="387" on="0"/>
        <pt x="224" y="362" on="0"/>
        <pt x="179" y="319" on="0"/>
        <pt x="152" y="257" on="0"/>
        <pt x="152" y="219" on="1"/>
      </contour>
    </TTGlyph>
    <TTGlyph name="ring" xMin="214" yMin="527" xMax="432" yMax="694">
      <contour>
        <pt x="432" y="610" on="1"/>
        <pt x="432" y="594" on="0"/>
        <pt x="416" y="564" on="0"/>
        <pt x="387" y="541" on="0"/>
        <pt x="347" y="527" on="0"/>
        <pt x="323" y="527" on="1"/>
        <pt x="277" y="527" on="0"/>
        <pt x="214" y="576" on="0"/>
        <pt x="214" y="611" on="1"/>
        <pt x="214" y="627" on="0"/>
        <pt x="230" y="657" on="0"/>
        <pt x="259" y="680" on="0"/>
        <pt x="299" y="694" on="0"/>
        <pt x="323" y="694" on="1"/>
        <pt x="369" y="694" on="0"/>
        <pt x="432" y="645" on="0"/>
      </contour>
      <contour>
        <pt x="323" y="569" on="1"/>
        <pt x="331" y="569" on="0"/>
        <pt x="350" y="572" on="0"/>
        <pt x="366" y="581" on="0"/>
        <pt x="377" y="598" on="0"/>
        <pt x="377" y="611" on="1"/>
        <pt x="377" y="626" on="0"/>
        <pt x="363" y="643" on="0"/>
        <pt x="344" y="651" on="0"/>
        <pt x="326" y="652" on="0"/>
        <pt x="323" y="652" on="1"/>
        <pt x="315" y="652" on="0"/>
        <pt x="296" y="649" on="0"/>
        <pt x="280" y="640" on="0"/>
        <pt x="269" y="624" on="0"/>
        <pt x="269" y="610" on="1"/>
        <pt x="269" y="595" on="0"/>
        <pt x="283" y="578" on="0"/>
        <pt x="302" y="570" on="0"/>
        <pt x="320" y="569" on="0"/>
      </contour>
    </TTGlyph>
    <TTGlyph name="s" xMin="27" yMin="-10" xMax="352" yMax="459">
      <contour>
        <pt x="324" y="363" on="1"/>
        <pt x="291" y="382" on="0"/>
        <pt x="225" y="400" on="0"/>
        <pt x="185" y="400" on="1"/>
        <pt x="180" y="400" on="0"/>
        <pt x="153" y="398" on="0"/>
        <pt x="124" y="386" on="0"/>
        <pt x="102" y="361" on="0"/>
        <pt x="102" y="338" on="1"/>
        <pt x="102" y="319" on="0"/>
        <pt x="119" y="296" on="0"/>
        <pt x="145" y="281" on="0"/>
        <pt x="176" y="274" on="0"/>
        <pt x="189" y="271" on="1"/>
        <pt x="212" y="267" on="0"/>
        <pt x="247" y="259" on="0"/>
        <pt x="277" y="247" on="0"/>
        <pt x="303" y="229" on="0"/>
        <pt x="317" y="215" on="1"/>
        <pt x="319" y="213" on="0"/>
        <pt x="330" y="200" on="0"/>
        <pt x="342" y="177" on="0"/>
        <pt x="352" y="146" on="0"/>
        <pt x="352" y="127" on="1"/>
        <pt x="352" y="105" on="0"/>
        <pt x="338" y="57" on="0"/>
        <pt x="302" y="16" on="0"/>
        <pt x="240" y="-10" on="0"/>
        <pt x="192" y="-10" on="1"/>
        <pt x="158" y="-10" on="0"/>
        <pt x="99" y="3" on="0"/>
        <pt x="55" y="19" on="0"/>
        <pt x="29" y="33" on="0"/>
        <pt x="27" y="34" on="1"/>
        <pt x="39" y="102" on="1"/>
        <pt x="80" y="73" on="0"/>
        <pt x="161" y="52" on="0"/>
        <pt x="191" y="52" on="1"/>
        <pt x="196" y="52" on="0"/>
        <pt x="226" y="54" on="0"/>
        <pt x="258" y="67" on="0"/>
        <pt x="283" y="95" on="0"/>
        <pt x="283" y="121" on="1"/>
        <pt x="283" y="141" on="0"/>
        <pt x="264" y="166" on="0"/>
        <pt x="236" y="182" on="0"/>
        <pt x="204" y="190" on="0"/>
        <pt x="192" y="193" on="1"/>
        <pt x="170" y="198" on="0"/>
        <pt x="137" y="205" on="0"/>
        <pt x="110" y="215" on="0"/>
        <pt x="86" y="229" on="0"/>
        <pt x="72" y="241" on="1"/>
        <pt x="61" y="252" on="0"/>
        <pt x="33" y="296" on="0"/>
        <pt x="33" y="329" on="1"/>
        <pt x="33" y="378" on="0"/>
        <pt x="77" y="431" on="0"/>
        <pt x="134" y="455" on="0"/>
        <pt x="186" y="459" on="0"/>
        <pt x="195" y="459" on="1"/>
        <pt x="212" y="459" on="0"/>
        <pt x="288" y="451" on="0"/>
        <pt x="336" y="428" on="1"/>
      </contour>
    </TTGlyph>
    <TTGlyph name="semicolon" xMin="95" yMin="-125" xMax="176" yMax="444">
      <contour>
        <pt x="176" y="363" on="1"/>
        <pt x="95" y="363" on="1"/>
        <pt x="95" y="444" on="1"/>
        <pt x="176" y="444" on="1"/>
      </contour>
      <contour>
        <pt x="120" y="0" on="1"/>
        <pt x="95" y="0" on="1"/>
        <pt x="95" y="81" on="1"/>
        <pt x="176" y="81" on="1"/>
        <pt x="176" y="1" on="1"/>
        <pt x="135" y="-125" on="1"/>
        <pt x="95" y="-125" on="1"/>
      </contour>
    </TTGlyph>
    <TTGlyph name="seven" xMin="41" yMin="-10" xMax="448" yMax="655">
      <contour>
        <pt x="41" y="587" on="1"/>
        <pt x="41" y="655" on="1"/>
        <pt x="448" y="655" on="1"/>
        <pt x="448" y="592" on="1"/>
        <pt x="407" y="544" on="0"/>
        <pt x="329" y="417" on="0"/>
        <pt x="268" y="264" on="0"/>
        <pt x="231" y="88" on="0"/>
        <pt x="231" y="-10" on="1"/>
        <pt x="150" y="-10" on="1"/>
        <pt x="150" y="72" on="0"/>
        <pt x="176" y="215" on="0"/>
        <pt x="218" y="336" on="0"/>
        <pt x="270" y="436" on="0"/>
        <pt x="322" y="514" on="0"/>
        <pt x="368" y="571" on="0"/>
        <pt x="383" y="588" on="1"/>
        <pt x="263" y="588" on="1"/>
        <pt x="254" y="588" on="0"/>
        <pt x="236" y="587" on="0"/>
        <pt x="227" y="587" on="1"/>
      </contour>
    </TTGlyph>
    <TTGlyph name="six" xMin="42" yMin="-21" xMax="447" yMax="676">
      <contour>
        <pt x="407" y="598" on="1"/>
        <pt x="385" y="606" on="0"/>
        <pt x="336" y="619" on="0"/>
        <pt x="304" y="619" on="1"/>
        <pt x="267" y="619" on="0"/>
        <pt x="204" y="585" on="0"/>
        <pt x="157" y="523" on="0"/>
        <pt x="127" y="434" on="0"/>
        <pt x="123" y="378" on="1"/>
        <pt x="151" y="412" on="0"/>
        <pt x="234" y="459" on="0"/>
        <pt x="290" y="459" on="1"/>
        <pt x="324" y="459" on="0"/>
        <pt x="382" y="421" on="0"/>
        <pt x="424" y="356" on="0"/>
        <pt x="447" y="270" on="0"/>
        <pt x="447" y="222" on="1"/>
        <pt x="447" y="195" on="0"/>
        <pt x="441" y="149" on="0"/>
        <pt x="428" y="108" on="0"/>
        <pt x="405" y="69" on="0"/>
        <pt x="388" y="49" on="1"/>
        <pt x="359" y="14" on="0"/>
        <pt x="291" y="-21" on="0"/>
        <pt x="246" y="-21" on="1"/>
        <pt x="216" y="-21" on="0"/>
        <pt x="145" y="5" on="0"/>
        <pt x="84" y="80" on="0"/>
        <pt x="42" y="214" on="0"/>
        <pt x="42" y="322" on="1"/>
        <pt x="42" y="403" on="0"/>
        <pt x="85" y="533" on="0"/>
        <pt x="157" y="626" on="0"/>
        <pt x="251" y="676" on="0"/>
        <pt x="302" y="676" on="1"/>
        <pt x="328" y="676" on="0"/>
        <pt x="376" y="667" on="0"/>
        <pt x="407" y="656" on="1"/>
      </contour>
      <contour>
        <pt x="124" y="218" on="1"/>
        <pt x="125" y="206" on="0"/>
        <pt x="134" y="147" on="0"/>
        <pt x="160" y="86" on="0"/>
        <pt x="207" y="39" on="0"/>
        <pt x="246" y="39" on="1"/>
        <pt x="283" y="39" on="0"/>
        <pt x="324" y="72" on="0"/>
        <pt x="338" y="92" on="1"/>
        <pt x="361" y="126" on="0"/>
        <pt x="368" y="190" on="0"/>
        <pt x="368" y="221" on="1"/>
        <pt x="368" y="250" on="0"/>
        <pt x="362" y="310" on="0"/>
        <pt x="345" y="340" on="1"/>
        <pt x="323" y="378" on="0"/>
        <pt x="276" y="399" on="0"/>
        <pt x="251" y="399" on="1"/>
        <pt x="219" y="399" on="0"/>
        <pt x="171" y="371" on="0"/>
        <pt x="140" y="327" on="0"/>
        <pt x="125" y="272" on="0"/>
        <pt x="125" y="246" on="1"/>
        <pt x="124" y="241" on="0"/>
        <pt x="124" y="224" on="0"/>
      </contour>
    </TTGlyph>
    <TTGlyph name="slash" xMin="54" yMin="-250" xMax="435" yMax="750">
      <contour>
        <pt x="93" y="-229" on="1"/>
        <pt x="90" y="-237" on="0"/>
        <pt x="83" y="-250" on="0"/>
        <pt x="73" y="-250" on="1"/>
        <pt x="54" y="-250" on="0"/>
        <pt x="54" y="-231" on="1"/>
        <pt x="54" y="-229" on="0"/>
        <pt x="55" y="-224" on="0"/>
        <pt x="59" y="-214" on="1"/>
        <pt x="396" y="728" on="1"/>
        <pt x="400" y="738" on="0"/>
        <pt x="407" y="750" on="0"/>
        <pt x="417" y="750" on="1"/>
        <pt x="423" y="750" on="0"/>
        <pt x="435" y="741" on="0"/>
        <pt x="435" y="731" on="1"/>
        <pt x="435" y="729" on="0"/>
        <pt x="434" y="724" on="0"/>
        <pt x="430" y="714" on="1"/>
      </contour>
    </TTGlyph>
    <TTGlyph name="suppress" xMin="-8" yMin="270" xMax="238" yMax="399">
      <contour>
        <pt x="9" y="270" on="1"/>
        <pt x="-8" y="325" on="1"/>
        <pt x="220" y="399" on="1"/>
        <pt x="238" y="344" on="1"/>
      </contour>
    </TTGlyph>
    <TTGlyph name="t" xMin="18" yMin="-10" xMax="326" yMax="571">
      <contour>
        <pt x="171" y="134" on="1"/>
        <pt x="171" y="121" on="0"/>
        <pt x="174" y="92" on="0"/>
        <pt x="185" y="68" on="0"/>
        <pt x="205" y="52" on="0"/>
        <pt x="221" y="52" on="1"/>
        <pt x="235" y="52" on="0"/>
        <pt x="285" y="64" on="0"/>
        <pt x="311" y="87" on="1"/>
        <pt x="326" y="29" on="1"/>
        <pt x="303" y="17" on="0"/>
        <pt x="233" y="-10" on="0"/>
        <pt x="182" y="-10" on="1"/>
        <pt x="156" y="-10" on="0"/>
        <pt x="124" y="13" on="0"/>
        <pt x="106" y="50" on="0"/>
        <pt x="100" y="95" on="0"/>
        <pt x="100" y="117" on="1"/>
        <pt x="100" y="386" on="1"/>
        <pt x="18" y="386" on="1"/>
        <pt x="18" y="444" on="1"/>
        <pt x="102" y="444" on="1"/>
        <pt x="102" y="571" on="1"/>
        <pt x="171" y="571" on="1"/>
        <pt x="171" y="444" on="1"/>
        <pt x="309" y="444" on="1"/>
        <pt x="309" y="386" on="1"/>
        <pt x="171" y="386" on="1"/>
      </contour>
    </TTGlyph>
    <TTGlyph name="three" xMin="41" yMin="-21" xMax="448" yMax="676">
      <contour>
        <pt x="54" y="566" on="1"/>
        <pt x="83" y="616" on="0"/>
        <pt x="183" y="676" on="0"/>
        <pt x="243" y="676" on="1"/>
        <pt x="279" y="676" on="0"/>
        <pt x="344" y="653" on="0"/>
        <pt x="393" y="613" on="0"/>
        <pt x="421" y="557" on="0"/>
        <pt x="421" y="525" on="1"/>
        <pt x="421" y="475" on="0"/>
        <pt x="365" y="383" on="0"/>
        <pt x="312" y="354" on="1"/>
        <pt x="376" y="332" on="0"/>
        <pt x="448" y="238" on="0"/>
        <pt x="448" y="180" on="1"/>
        <pt x="448" y="140" on="0"/>
        <pt x="417" y="68" on="0"/>
        <pt x="362" y="12" on="0"/>
        <pt x="287" y="-21" on="0"/>
        <pt x="243" y="-21" on="1"/>
        <pt x="225" y="-21" on="0"/>
        <pt x="175" y="-13" on="0"/>
        <pt x="121" y="9" on="0"/>
        <pt x="65" y="51" on="0"/>
        <pt x="41" y="84" on="1"/>
        <pt x="52" y="143" on="1"/>
        <pt x="69" y="116" on="0"/>
        <pt x="115" y="77" on="0"/>
        <pt x="165" y="51" on="0"/>
        <pt x="217" y="39" on="0"/>
        <pt x="241" y="39" on="1"/>
        <pt x="268" y="39" on="0"/>
        <pt x="313" y="61" on="0"/>
        <pt x="344" y="99" on="0"/>
        <pt x="362" y="151" on="0"/>
        <pt x="362" y="181" on="1"/>
        <pt x="362" y="202" on="0"/>
        <pt x="351" y="251" on="0"/>
        <pt x="322" y="295" on="0"/>
        <pt x="273" y="324" on="0"/>
        <pt x="234" y="324" on="1"/>
        <pt x="163" y="324" on="1"/>
        <pt x="163" y="384" on="1"/>
        <pt x="167" y="384" on="0"/>
        <pt x="191" y="386" on="0"/>
        <pt x="217" y="389" on="0"/>
        <pt x="239" y="391" on="0"/>
        <pt x="241" y="391" on="1"/>
        <pt x="282" y="400" on="0"/>
        <pt x="341" y="474" on="0"/>
        <pt x="341" y="525" on="1"/>
        <pt x="341" y="549" on="0"/>
        <pt x="324" y="585" on="0"/>
        <pt x="297" y="608" on="0"/>
        <pt x="261" y="619" on="0"/>
        <pt x="242" y="619" on="1"/>
        <pt x="191" y="619" on="0"/>
        <pt x="108" y="560" on="0"/>
        <pt x="89" y="512" on="1"/>
      </contour>
    </TTGlyph>
    <TTGlyph name="tilde" xMin="82" yMin="557" xMax="407" yMax="675">
      <contour>
        <pt x="407" y="675" on="1"/>
        <pt x="406" y="645" on="0"/>
        <pt x="388" y="601" on="0"/>
        <pt x="361" y="572" on="0"/>
        <pt x="328" y="557" on="0"/>
        <pt x="312" y="557" on="1"/>
        <pt x="293" y="557" on="0"/>
        <pt x="260" y="574" on="0"/>
        <pt x="238" y="590" on="1"/>
        <pt x="230" y="595" on="0"/>
        <pt x="197" y="615" on="0"/>
        <pt x="180" y="615" on="1"/>
        <pt x="169" y="615" on="0"/>
        <pt x="155" y="604" on="0"/>
        <pt x="146" y="587" on="0"/>
        <pt x="142" y="567" on="0"/>
        <pt x="142" y="557" on="1"/>
        <pt x="82" y="557" on="1"/>
        <pt x="83" y="587" on="0"/>
        <pt x="101" y="631" on="0"/>
        <pt x="128" y="660" on="0"/>
        <pt x="161" y="675" on="0"/>
        <pt x="177" y="675" on="1"/>
        <pt x="196" y="675" on="0"/>
        <pt x="229" y="658" on="0"/>
        <pt x="251" y="642" on="1"/>
        <pt x="259" y="637" on="0"/>
        <pt x="292" y="617" on="0"/>
        <pt x="309" y="617" on="1"/>
        <pt x="320" y="617" on="0"/>
        <pt x="334" y="628" on="0"/>
        <pt x="343" y="645" on="0"/>
        <pt x="347" y="665" on="0"/>
        <pt x="347" y="675" on="1"/>
      </contour>
    </TTGlyph>
    <TTGlyph name="two" xMin="41" yMin="0" xMax="440" yMax="676">
      <contour>
        <pt x="272" y="285" on="1"/>
        <pt x="323" y="335" on="0"/>
        <pt x="360" y="422" on="0"/>
        <pt x="360" y="461" on="1"/>
        <pt x="360" y="493" on="0"/>
        <pt x="340" y="549" on="0"/>
        <pt x="303" y="590" on="0"/>
        <pt x="250" y="614" on="0"/>
        <pt x="218" y="614" on="1"/>
        <pt x="162" y="614" on="0"/>
        <pt x="101" y="539" on="0"/>
        <pt x="82" y="458" on="1"/>
        <pt x="79" y="463" on="0"/>
        <pt x="74" y="469" on="0"/>
        <pt x="66" y="480" on="0"/>
        <pt x="53" y="497" on="0"/>
        <pt x="41" y="512" on="1"/>
        <pt x="51" y="547" on="0"/>
        <pt x="83" y="607" on="0"/>
        <pt x="129" y="651" on="0"/>
        <pt x="191" y="676" on="0"/>
        <pt x="231" y="676" on="1"/>
        <pt x="281" y="676" on="0"/>
        <pt x="358" y="641" on="0"/>
        <pt x="412" y="582" on="0"/>
        <pt x="440" y="505" on="0"/>
        <pt x="440" y="463" on="1"/>
        <pt x="440" y="429" on="0"/>
        <pt x="418" y="370" on="0"/>
        <pt x="381" y="317" on="0"/>
        <pt x="331" y="268" on="0"/>
        <pt x="303" y="244" on="1"/>
        <pt x="279" y="222" on="0"/>
        <pt x="222" y="169" on="0"/>
        <pt x="170" y="119" on="0"/>
        <pt x="129" y="77" on="0"/>
        <pt x="119" y="67" on="1"/>
        <pt x="226" y="67" on="1"/>
        <pt x="235" y="67" on="0"/>
        <pt x="253" y="68" on="0"/>
        <pt x="262" y="68" on="1"/>
        <pt x="440" y="68" on="1"/>
        <pt x="440" y="0" on="1"/>
        <pt x="49" y="0" on="1"/>
        <pt x="49" y="63" on="1"/>
      </contour>
    </TTGlyph>
    <TTGlyph name="u" xMin="77" yMin="-10" xMax="424" yMax="444">
      <contour>
        <pt x="424" y="0" on="1"/>
        <pt x="350" y="0" on="1"/>
        <pt x="350" y="50" on="1"/>
        <pt x="327" y="29" on="0"/>
        <pt x="277" y="5" on="0"/>
        <pt x="230" y="-7" on="0"/>
        <pt x="193" y="-10" on="0"/>
        <pt x="182" y="-10" on="1"/>
        <pt x="151" y="-10" on="0"/>
        <pt x="111" y="8" on="0"/>
        <pt x="87" y="39" on="0"/>
        <pt x="77" y="84" on="0"/>
        <pt x="77" y="111" on="1"/>
        <pt x="77" y="444" on="1"/>
        <pt x="153" y="444" on="1"/>
        <pt x="153" y="115" on="1"/>
        <pt x="153" y="99" on="0"/>
        <pt x="157" y="73" on="0"/>
        <pt x="173" y="55" on="0"/>
        <pt x="204" y="45" on="0"/>
        <pt x="230" y="45" on="1"/>
        <pt x="279" y="45" on="0"/>
        <pt x="348" y="101" on="0"/>
        <pt x="348" y="158" on="1"/>
        <pt x="348" y="444" on="1"/>
        <pt x="424" y="444" on="1"/>
      </contour>
    </TTGlyph>
    <TTGlyph name="uni00AD" xMin="11" yMin="193" xMax="271" yMax="251">
      <contour>
        <pt x="11" y="193" on="1"/>
        <pt x="11" y="251" on="1"/>
        <pt x="271" y="251" on="1"/>
        <pt x="271" y="193" on="1"/>
      </contour>
    </TTGlyph>
    <TTGlyph name="uni0237" xMin="-62" yMin="-204" xMax="179" yMax="444">
      <contour>
        <pt x="179" y="-59" on="1"/>
        <pt x="179" y="-94" on="0"/>
        <pt x="158" y="-148" on="0"/>
        <pt x="124" y="-185" on="0"/>
        <pt x="80" y="-204" on="0"/>
        <pt x="56" y="-204" on="1"/>
        <pt x="21" y="-204" on="0"/>
        <pt x="-38" y="-184" on="0"/>
        <pt x="-62" y="-170" on="1"/>
        <pt x="-42" y="-110" on="1"/>
        <pt x="-41" y="-111" on="0"/>
        <pt x="-31" y="-121" on="0"/>
        <pt x="-12" y="-132" on="0"/>
        <pt x="15" y="-141" on="0"/>
        <pt x="31" y="-141" on="1"/>
        <pt x="39" y="-141" on="0"/>
        <pt x="64" y="-137" on="0"/>
        <pt x="88" y="-122" on="0"/>
        <pt x="105" y="-94" on="0"/>
        <pt x="105" y="-69" on="1"/>
        <pt x="105" y="444" on="1"/>
        <pt x="179" y="444" on="1"/>
      </contour>
    </TTGlyph>
    <TTGlyph name="uni0394" xMin="41" yMin="0" xMax="774" yMax="694">
      <contour>
        <pt x="774" y="0" on="1"/>
        <pt x="41" y="0" on="1"/>
        <pt x="362" y="694" on="1"/>
        <pt x="453" y="694" on="1"/>
      </contour>
      <contour>
        <pt x="155" y="81" on="1"/>
        <pt x="642" y="81" on="1"/>
        <pt x="471" y="451" on="1"/>
        <pt x="469" y="456" on="0"/>
        <pt x="460" y="475" on="0"/>
        <pt x="450" y="499" on="0"/>
        <pt x="439" y="524" on="0"/>
        <pt x="434" y="534" on="1"/>
        <pt x="422" y="563" on="0"/>
        <pt x="405" y="604" on="0"/>
        <pt x="398" y="622" on="1"/>
        <pt x="390" y="597" on="0"/>
        <pt x="357" y="524" on="0"/>
        <pt x="331" y="464" on="1"/>
      </contour>
    </TTGlyph>
    <TTGlyph name="uni03A9" xMin="44" yMin="0" xMax="662" yMax="715">
      <contour>
        <pt x="662" y="0" on="1"/>
        <pt x="424" y="0" on="1"/>
        <pt x="425" y="59" on="0"/>
        <pt x="463" y="164" on="0"/>
        <pt x="494" y="228" on="1"/>
        <pt x="525" y="294" on="0"/>
        <pt x="566" y="404" on="0"/>
        <pt x="566" y="461" on="1"/>
        <pt x="566" y="503" on="0"/>
        <pt x="533" y="574" on="0"/>
        <pt x="476" y="626" on="0"/>
        <pt x="398" y="655" on="0"/>
        <pt x="353" y="655" on="1"/>
        <pt x="308" y="655" on="0"/>
        <pt x="230" y="626" on="0"/>
        <pt x="173" y="575" on="0"/>
        <pt x="140" y="503" on="0"/>
        <pt x="140" y="461" on="1"/>
        <pt x="140" y="399" on="0"/>
        <pt x="187" y="281" on="0"/>
        <pt x="216" y="222" on="1"/>
        <pt x="234" y="185" on="0"/>
        <pt x="259" y="124" on="0"/>
        <pt x="275" y="71" on="0"/>
        <pt x="282" y="24" on="0"/>
        <pt x="282" y="0" on="1"/>
        <pt x="44" y="0" on="1"/>
        <pt x="44" y="68" on="1"/>
        <pt x="126" y="68" on="1"/>
        <pt x="135" y="68" on="0"/>
        <pt x="153" y="67" on="0"/>
        <pt x="162" y="67" on="1"/>
        <pt x="213" y="67" on="1"/>
        <pt x="210" y="81" on="0"/>
        <pt x="201" y="107" on="0"/>
        <pt x="186" y="142" on="0"/>
        <pt x="162" y="189" on="0"/>
        <pt x="143" y="222" on="1"/>
        <pt x="125" y="254" on="0"/>
        <pt x="93" y="313" on="0"/>
        <pt x="68" y="372" on="0"/>
        <pt x="54" y="431" on="0"/>
        <pt x="54" y="462" on="1"/>
        <pt x="54" y="513" on="0"/>
        <pt x="100" y="605" on="0"/>
        <pt x="180" y="674" on="0"/>
        <pt x="289" y="715" on="0"/>
        <pt x="353" y="715" on="1"/>
        <pt x="416" y="715" on="0"/>
        <pt x="526" y="674" on="0"/>
        <pt x="606" y="605" on="0"/>
        <pt x="652" y="513" on="0"/>
        <pt x="652" y="462" on="1"/>
        <pt x="652" y="431" on="0"/>
        <pt x="638" y="371" on="0"/>
        <pt x="614" y="314" on="0"/>
        <pt x="583" y="258" on="0"/>
        <pt x="567" y="230" on="1"/>
        <pt x="551" y="201" on="0"/>
        <pt x="527" y="157" on="0"/>
        <pt x="509" y="119" on="0"/>
        <pt x="498" y="86" on="0"/>
        <pt x="493" y="67" on="1"/>
        <pt x="544" y="67" on="1"/>
        <pt x="553" y="67" on="0"/>
        <pt x="571" y="68" on="0"/>
        <pt x="580" y="68" on="1"/>
        <pt x="662" y="68" on="1"/>
      </contour>
    </TTGlyph>
    <TTGlyph name="v" xMin="14" yMin="0" xMax="433" yMax="444">
      <contour>
        <pt x="268" y="0" on="1"/>
        <pt x="179" y="0" on="1"/>
        <pt x="14" y="444" on="1"/>
        <pt x="92" y="444" on="1"/>
        <pt x="184" y="187" on="1"/>
        <pt x="190" y="171" on="0"/>
        <pt x="202" y="135" on="0"/>
        <pt x="213" y="100" on="0"/>
        <pt x="222" y="67" on="0"/>
        <pt x="224" y="54" on="1"/>
        <pt x="225" y="54" on="1"/>
        <pt x="227" y="68" on="0"/>
        <pt x="242" y="118" on="0"/>
        <pt x="260" y="173" on="0"/>
        <pt x="279" y="227" on="0"/>
        <pt x="285" y="245" on="1"/>
        <pt x="358" y="444" on="1"/>
        <pt x="433" y="444" on="1"/>
      </contour>
    </TTGlyph>
    <TTGlyph name="w" xMin="14" yMin="0" xMax="650" yMax="444">
      <contour>
        <pt x="516" y="0" on="1"/>
        <pt x="428" y="0" on="1"/>
        <pt x="357" y="250" on="1"/>
        <pt x="354" y="259" on="0"/>
        <pt x="345" y="292" on="0"/>
        <pt x="336" y="331" on="0"/>
        <pt x="329" y="371" on="0"/>
        <pt x="328" y="386" on="1"/>
        <pt x="327" y="386" on="1"/>
        <pt x="325" y="360" on="0"/>
        <pt x="303" y="268" on="0"/>
        <pt x="273" y="160" on="0"/>
        <pt x="239" y="47" on="0"/>
        <pt x="225" y="0" on="1"/>
        <pt x="148" y="0" on="1"/>
        <pt x="14" y="444" on="1"/>
        <pt x="90" y="444" on="1"/>
        <pt x="161" y="197" on="1"/>
        <pt x="175" y="146" on="0"/>
        <pt x="191" y="72" on="0"/>
        <pt x="192" y="58" on="1"/>
        <pt x="193" y="58" on="1"/>
        <pt x="194" y="74" on="0"/>
        <pt x="203" y="120" on="0"/>
        <pt x="216" y="171" on="0"/>
        <pt x="231" y="225" on="0"/>
        <pt x="238" y="248" on="1"/>
        <pt x="295" y="444" on="1"/>
        <pt x="364" y="444" on="1"/>
        <pt x="430" y="218" on="1"/>
        <pt x="446" y="165" on="0"/>
        <pt x="468" y="74" on="0"/>
        <pt x="470" y="56" on="1"/>
        <pt x="471" y="56" on="1"/>
        <pt x="473" y="72" on="0"/>
        <pt x="483" y="120" on="0"/>
        <pt x="497" y="173" on="0"/>
        <pt x="512" y="223" on="0"/>
        <pt x="517" y="241" on="1"/>
        <pt x="577" y="444" on="1"/>
        <pt x="650" y="444" on="1"/>
      </contour>
    </TTGlyph>
    <TTGlyph name="x" xMin="0" yMin="0" xMax="447" yMax="444">
      <contour>
        <pt x="447" y="0" on="1"/>
        <pt x="363" y="0" on="1"/>
        <pt x="221" y="186" on="1"/>
        <pt x="83" y="0" on="1"/>
        <pt x="0" y="0" on="1"/>
        <pt x="187" y="229" on="1"/>
        <pt x="5" y="444" on="1"/>
        <pt x="90" y="444" on="1"/>
        <pt x="221" y="282" on="1"/>
        <pt x="347" y="444" on="1"/>
        <pt x="431" y="444" on="1"/>
        <pt x="254" y="229" on="1"/>
      </contour>
    </TTGlyph>
    <TTGlyph name="y" xMin="14" yMin="-204" xMax="433" yMax="444">
      <contour>
        <pt x="224" y="-94" on="1"/>
        <pt x="208" y="-135" on="0"/>
        <pt x="175" y="-180" on="0"/>
        <pt x="145" y="-201" on="0"/>
        <pt x="119" y="-204" on="0"/>
        <pt x="110" y="-204" on="1"/>
        <pt x="86" y="-204" on="0"/>
        <pt x="44" y="-197" on="0"/>
        <pt x="39" y="-196" on="1"/>
        <pt x="33" y="-131" on="1"/>
        <pt x="56" y="-140" on="0"/>
        <pt x="99" y="-146" on="0"/>
        <pt x="110" y="-146" on="1"/>
        <pt x="117" y="-146" on="0"/>
        <pt x="129" y="-143" on="0"/>
        <pt x="143" y="-132" on="0"/>
        <pt x="157" y="-110" on="0"/>
        <pt x="165" y="-91" on="1"/>
        <pt x="200" y="0" on="1"/>
        <pt x="14" y="444" on="1"/>
        <pt x="93" y="444" on="1"/>
        <pt x="164" y="269" on="1"/>
        <pt x="167" y="262" on="0"/>
        <pt x="187" y="210" on="0"/>
        <pt x="209" y="146" on="0"/>
        <pt x="228" y="80" on="0"/>
        <pt x="230" y="58" on="1"/>
        <pt x="231" y="58" on="1"/>
        <pt x="233" y="85" on="0"/>
        <pt x="260" y="179" on="0"/>
        <pt x="298" y="288" on="0"/>
        <pt x="341" y="400" on="0"/>
        <pt x="358" y="444" on="1"/>
        <pt x="433" y="444" on="1"/>
      </contour>
    </TTGlyph>
    <TTGlyph name="z" xMin="27" yMin="0" xMax="393" yMax="444">
      <contour>
        <pt x="129" y="60" on="1"/>
        <pt x="214" y="60" on="1"/>
        <pt x="223" y="60" on="0"/>
        <pt x="241" y="61" on="0"/>
        <pt x="250" y="61" on="1"/>
        <pt x="393" y="61" on="1"/>
        <pt x="393" y="0" on="1"/>
        <pt x="27" y="0" on="1"/>
        <pt x="27" y="40" on="1"/>
        <pt x="288" y="386" on="1"/>
        <pt x="212" y="386" on="1"/>
        <pt x="203" y="386" on="0"/>
        <pt x="185" y="385" on="0"/>
        <pt x="176" y="385" on="1"/>
        <pt x="41" y="385" on="1"/>
        <pt x="41" y="444" on="1"/>
        <pt x="390" y="444" on="1"/>
        <pt x="390" y="405" on="1"/>
      </contour>
    </TTGlyph>
    <TTGlyph name="zero" xMin="41" yMin="-21" xMax="448" yMax="676">
      <contour>
        <pt x="448" y="326" on="1"/>
        <pt x="448" y="253" on="0"/>
        <pt x="433" y="137" on="0"/>
        <pt x="407" y="84" on="1"/>
        <pt x="381" y="32" on="0"/>
        <pt x="294" y="-21" on="0"/>
        <pt x="244" y="-21" on="1"/>
        <pt x="193" y="-21" on="0"/>
        <pt x="105" y="35" on="0"/>
        <pt x="82" y="85" on="1"/>
        <pt x="70" y="111" on="0"/>
        <pt x="54" y="162" on="0"/>
        <pt x="45" y="219" on="0"/>
        <pt x="41" y="285" on="0"/>
        <pt x="41" y="326" on="1"/>
        <pt x="41" y="391" on="0"/>
        <pt x="55" y="510" on="0"/>
        <pt x="80" y="564" on="1"/>
        <pt x="108" y="624" on="0"/>
        <pt x="196" y="676" on="0"/>
        <pt x="245" y="676" on="1"/>
        <pt x="265" y="676" on="0"/>
        <pt x="312" y="665" on="0"/>
        <pt x="359" y="636" on="0"/>
        <pt x="403" y="583" on="0"/>
        <pt x="419" y="541" on="1"/>
        <pt x="439" y="487" on="0"/>
        <pt x="448" y="377" on="0"/>
      </contour>
      <contour>
        <pt x="245" y="39" on="1"/>
        <pt x="277" y="39" on="0"/>
        <pt x="320" y="71" on="0"/>
        <pt x="348" y="123" on="0"/>
        <pt x="364" y="188" on="0"/>
        <pt x="371" y="255" on="0"/>
        <pt x="372" y="316" on="0"/>
        <pt x="372" y="338" on="1"/>
        <pt x="372" y="373" on="0"/>
        <pt x="368" y="468" on="0"/>
        <pt x="344" y="555" on="0"/>
        <pt x="292" y="616" on="0"/>
        <pt x="244" y="616" on="1"/>
        <pt x="213" y="616" on="0"/>
        <pt x="153" y="574" on="0"/>
        <pt x="135" y="521" on="1"/>
        <pt x="121" y="478" on="0"/>
        <pt x="117" y="387" on="0"/>
        <pt x="117" y="338" on="1"/>
        <pt x="117" y="315" on="0"/>
        <pt x="118" y="252" on="0"/>
        <pt x="125" y="185" on="0"/>
        <pt x="141" y="121" on="0"/>
        <pt x="169" y="70" on="0"/>
        <pt x="213" y="39" on="0"/>
      </contour>
    </TTGlyph>
</ttFont>
